%FSLAX45Y45*%
G04 Gerber Fmt 4.5, Leading zero omitted, Abs format (unit mm)*
G04 Created by KiCad (PCBNEW (6.0.5)) date 2022-09-08 21:10:07*
%MOMM*%
%LPD*%
G01*
G04 APERTURE LIST*
%TA.AperFunction,Profile*%
%ADD10C,0.100000*%
%TD*%
%ADD11C,0.200000*%
G04 APERTURE END LIST*
D10*
X7800000Y-18500000D02*
G75*
G03*
X7900000Y-18600000I100000J0D01*
G01*
X7800000Y-18500000D02*
X7800000Y-6000000D01*
X12100000Y-6000000D02*
G75*
G03*
X12000000Y-5900000I-100000J0D01*
G01*
X7900000Y-5900000D02*
X12000000Y-5900000D01*
X7900000Y-5900000D02*
G75*
G03*
X7800000Y-6000000I0J-100000D01*
G01*
X12000000Y-18600000D02*
X7900000Y-18600000D01*
X12000000Y-18600000D02*
G75*
G03*
X12100000Y-18500000I0J100000D01*
G01*
X12100000Y-6000000D02*
X12100000Y-18500000D01*
D11*
X8052619Y-18915476D02*
X8052619Y-18715476D01*
X8100238Y-18715476D01*
X8128809Y-18725000D01*
X8147857Y-18744048D01*
X8157381Y-18763095D01*
X8166905Y-18801190D01*
X8166905Y-18829762D01*
X8157381Y-18867857D01*
X8147857Y-18886905D01*
X8128809Y-18905952D01*
X8100238Y-18915476D01*
X8052619Y-18915476D01*
X8252619Y-18915476D02*
X8252619Y-18782143D01*
X8252619Y-18820238D02*
X8262143Y-18801190D01*
X8271667Y-18791667D01*
X8290714Y-18782143D01*
X8309762Y-18782143D01*
X8376428Y-18915476D02*
X8376428Y-18782143D01*
X8376428Y-18715476D02*
X8366905Y-18725000D01*
X8376428Y-18734524D01*
X8385952Y-18725000D01*
X8376428Y-18715476D01*
X8376428Y-18734524D01*
X8500238Y-18915476D02*
X8481190Y-18905952D01*
X8471667Y-18886905D01*
X8471667Y-18715476D01*
X8605000Y-18915476D02*
X8585952Y-18905952D01*
X8576429Y-18886905D01*
X8576429Y-18715476D01*
X8833571Y-18915476D02*
X8833571Y-18715476D01*
X8900238Y-18858333D01*
X8966905Y-18715476D01*
X8966905Y-18915476D01*
X9147857Y-18915476D02*
X9147857Y-18810714D01*
X9138333Y-18791667D01*
X9119286Y-18782143D01*
X9081190Y-18782143D01*
X9062143Y-18791667D01*
X9147857Y-18905952D02*
X9128810Y-18915476D01*
X9081190Y-18915476D01*
X9062143Y-18905952D01*
X9052619Y-18886905D01*
X9052619Y-18867857D01*
X9062143Y-18848810D01*
X9081190Y-18839286D01*
X9128810Y-18839286D01*
X9147857Y-18829762D01*
X9243095Y-18782143D02*
X9243095Y-18982143D01*
X9243095Y-18791667D02*
X9262143Y-18782143D01*
X9300238Y-18782143D01*
X9319286Y-18791667D01*
X9328810Y-18801190D01*
X9338333Y-18820238D01*
X9338333Y-18877381D01*
X9328810Y-18896429D01*
X9319286Y-18905952D01*
X9300238Y-18915476D01*
X9262143Y-18915476D01*
X9243095Y-18905952D01*
X9424048Y-18896429D02*
X9433571Y-18905952D01*
X9424048Y-18915476D01*
X9414524Y-18905952D01*
X9424048Y-18896429D01*
X9424048Y-18915476D01*
X9424048Y-18791667D02*
X9433571Y-18801190D01*
X9424048Y-18810714D01*
X9414524Y-18801190D01*
X9424048Y-18791667D01*
X9424048Y-18810714D01*
M02*
