%TF.GenerationSoftware,KiCad,Pcbnew,(6.0.5)*%
%TF.CreationDate,2022-09-08T21:10:04+02:00*%
%TF.ProjectId,Bissell-Bouten_Envelope-o-Matic,42697373-656c-46c2-9d42-6f7574656e5f,1.0*%
%TF.SameCoordinates,Original*%
%TF.FileFunction,Soldermask,Top*%
%TF.FilePolarity,Negative*%
%FSLAX46Y46*%
G04 Gerber Fmt 4.6, Leading zero omitted, Abs format (unit mm)*
G04 Created by KiCad (PCBNEW (6.0.5)) date 2022-09-08 21:10:04*
%MOMM*%
%LPD*%
G01*
G04 APERTURE LIST*
G04 Aperture macros list*
%AMRoundRect*
0 Rectangle with rounded corners*
0 $1 Rounding radius*
0 $2 $3 $4 $5 $6 $7 $8 $9 X,Y pos of 4 corners*
0 Add a 4 corners polygon primitive as box body*
4,1,4,$2,$3,$4,$5,$6,$7,$8,$9,$2,$3,0*
0 Add four circle primitives for the rounded corners*
1,1,$1+$1,$2,$3*
1,1,$1+$1,$4,$5*
1,1,$1+$1,$6,$7*
1,1,$1+$1,$8,$9*
0 Add four rect primitives between the rounded corners*
20,1,$1+$1,$2,$3,$4,$5,0*
20,1,$1+$1,$4,$5,$6,$7,0*
20,1,$1+$1,$6,$7,$8,$9,0*
20,1,$1+$1,$8,$9,$2,$3,0*%
G04 Aperture macros list end*
%ADD10C,1.600000*%
%ADD11O,1.600000X1.600000*%
%ADD12RoundRect,0.249900X-0.750100X0.600100X-0.750100X-0.600100X0.750100X-0.600100X0.750100X0.600100X0*%
%ADD13O,2.000000X1.700000*%
%ADD14C,2.000000*%
%ADD15R,1.700000X1.700000*%
%ADD16O,1.700000X1.700000*%
%ADD17RoundRect,0.249900X0.600100X0.750100X-0.600100X0.750100X-0.600100X-0.750100X0.600100X-0.750100X0*%
%ADD18O,1.700000X2.000000*%
%ADD19R,1.800000X1.800000*%
%ADD20C,1.800000*%
%ADD21O,2.500000X4.000000*%
%ADD22O,2.720000X3.240000*%
G04 APERTURE END LIST*
D10*
%TO.C,R29*%
X91000000Y-160880000D03*
D11*
X91000000Y-150720000D03*
%TD*%
D12*
%TO.C,ENV_OUT1*%
X94000000Y-179000000D03*
D13*
X94000000Y-181500000D03*
%TD*%
D10*
%TO.C,R2*%
X101000000Y-174080000D03*
D11*
X101000000Y-163920000D03*
%TD*%
D10*
%TO.C,C8*%
X102500000Y-140000000D03*
X97500000Y-140000000D03*
%TD*%
%TO.C,R28*%
X109000000Y-150800000D03*
D11*
X109000000Y-160960000D03*
%TD*%
D14*
%TO.C,C9*%
X95000000Y-125000000D03*
X105000000Y-125000000D03*
%TD*%
D12*
%TO.C,ENV_INV1*%
X102000000Y-179000000D03*
D13*
X102000000Y-181500000D03*
%TD*%
D15*
%TO.C,CN2*%
X116973000Y-115373000D03*
D16*
X116973000Y-112833000D03*
X116973000Y-110293000D03*
X116973000Y-107753000D03*
X116973000Y-105213000D03*
X116973000Y-102673000D03*
X116973000Y-100133000D03*
X116973000Y-97593000D03*
%TD*%
D12*
%TO.C,GATE_OUT1*%
X82000000Y-179000000D03*
D13*
X82000000Y-181500000D03*
%TD*%
D10*
%TO.C,R3*%
X91000000Y-163920000D03*
D11*
X91000000Y-174080000D03*
%TD*%
D10*
%TO.C,R1*%
X106000000Y-163920000D03*
D11*
X106000000Y-174080000D03*
%TD*%
D15*
%TO.C,CN1*%
X81413000Y-115372000D03*
D16*
X81413000Y-112832000D03*
X81413000Y-110292000D03*
X81413000Y-107752000D03*
X81413000Y-105212000D03*
X81413000Y-102672000D03*
X81413000Y-100132000D03*
X81413000Y-97592000D03*
%TD*%
D17*
%TO.C,SIGNAL_IN1*%
X114000000Y-174000000D03*
D18*
X111500000Y-174000000D03*
%TD*%
D10*
%TO.C,R25*%
X86000000Y-174080000D03*
D11*
X86000000Y-163920000D03*
%TD*%
D10*
%TO.C,R33*%
X96000000Y-163920000D03*
D11*
X96000000Y-174080000D03*
%TD*%
D19*
%TO.C,LED3*%
X86230000Y-180000000D03*
D20*
X88770000Y-180000000D03*
%TD*%
D19*
%TO.C,LED2*%
X106230000Y-180000000D03*
D20*
X108770000Y-180000000D03*
%TD*%
D21*
%TO.C,FAST_SLOW_ENV1*%
X95150000Y-132500000D03*
X100000000Y-132500000D03*
X104850000Y-132500000D03*
%TD*%
D22*
%TO.C,GATE_OFFSET1*%
X95200000Y-157500000D03*
X104800000Y-157500000D03*
D19*
X97500000Y-150000000D03*
D20*
X100000000Y-150000000D03*
X102500000Y-150000000D03*
%TD*%
D19*
%TO.C,LED1*%
X116230000Y-180000000D03*
D20*
X118770000Y-180000000D03*
%TD*%
D22*
%TO.C,CLOCK_SPEED1*%
X95200000Y-107500000D03*
X104800000Y-107500000D03*
D19*
X97500000Y-100000000D03*
D20*
X100000000Y-100000000D03*
X102500000Y-100000000D03*
%TD*%
D22*
%TO.C,GAIN1*%
X95200000Y-65000000D03*
X104800000Y-65000000D03*
D19*
X102500000Y-72500000D03*
D20*
X100000000Y-72500000D03*
X97500000Y-72500000D03*
%TD*%
M02*
