%TF.GenerationSoftware,KiCad,Pcbnew,(6.0.5)*%
%TF.CreationDate,2022-09-08T21:10:04+02:00*%
%TF.ProjectId,Bissell-Bouten_Envelope-o-Matic,42697373-656c-46c2-9d42-6f7574656e5f,1.0*%
%TF.SameCoordinates,Original*%
%TF.FileFunction,Legend,Bot*%
%TF.FilePolarity,Positive*%
%FSLAX46Y46*%
G04 Gerber Fmt 4.6, Leading zero omitted, Abs format (unit mm)*
G04 Created by KiCad (PCBNEW (6.0.5)) date 2022-09-08 21:10:04*
%MOMM*%
%LPD*%
G01*
G04 APERTURE LIST*
G04 Aperture macros list*
%AMRoundRect*
0 Rectangle with rounded corners*
0 $1 Rounding radius*
0 $2 $3 $4 $5 $6 $7 $8 $9 X,Y pos of 4 corners*
0 Add a 4 corners polygon primitive as box body*
4,1,4,$2,$3,$4,$5,$6,$7,$8,$9,$2,$3,0*
0 Add four circle primitives for the rounded corners*
1,1,$1+$1,$2,$3*
1,1,$1+$1,$4,$5*
1,1,$1+$1,$6,$7*
1,1,$1+$1,$8,$9*
0 Add four rect primitives between the rounded corners*
20,1,$1+$1,$2,$3,$4,$5,0*
20,1,$1+$1,$4,$5,$6,$7,0*
20,1,$1+$1,$6,$7,$8,$9,0*
20,1,$1+$1,$8,$9,$2,$3,0*%
G04 Aperture macros list end*
%ADD10C,0.150000*%
%ADD11C,0.120000*%
%ADD12C,1.600000*%
%ADD13O,1.600000X1.600000*%
%ADD14RoundRect,0.249900X-0.750100X0.600100X-0.750100X-0.600100X0.750100X-0.600100X0.750100X0.600100X0*%
%ADD15O,2.000000X1.700000*%
%ADD16C,2.000000*%
%ADD17R,1.700000X1.700000*%
%ADD18O,1.700000X1.700000*%
%ADD19RoundRect,0.249900X0.600100X0.750100X-0.600100X0.750100X-0.600100X-0.750100X0.600100X-0.750100X0*%
%ADD20O,1.700000X2.000000*%
%ADD21R,1.800000X1.800000*%
%ADD22C,1.800000*%
%ADD23O,2.500000X4.000000*%
%ADD24O,2.720000X3.240000*%
G04 APERTURE END LIST*
D10*
%TO.C,LED3*%
X88619047Y-184412380D02*
X89095238Y-184412380D01*
X89095238Y-183412380D01*
X88285714Y-183888571D02*
X87952380Y-183888571D01*
X87809523Y-184412380D02*
X88285714Y-184412380D01*
X88285714Y-183412380D01*
X87809523Y-183412380D01*
X87380952Y-184412380D02*
X87380952Y-183412380D01*
X87142857Y-183412380D01*
X87000000Y-183460000D01*
X86904761Y-183555238D01*
X86857142Y-183650476D01*
X86809523Y-183840952D01*
X86809523Y-183983809D01*
X86857142Y-184174285D01*
X86904761Y-184269523D01*
X87000000Y-184364761D01*
X87142857Y-184412380D01*
X87380952Y-184412380D01*
X86476190Y-183412380D02*
X85857142Y-183412380D01*
X86190476Y-183793333D01*
X86047619Y-183793333D01*
X85952380Y-183840952D01*
X85904761Y-183888571D01*
X85857142Y-183983809D01*
X85857142Y-184221904D01*
X85904761Y-184317142D01*
X85952380Y-184364761D01*
X86047619Y-184412380D01*
X86333333Y-184412380D01*
X86428571Y-184364761D01*
X86476190Y-184317142D01*
%TO.C,LED2*%
X108619047Y-184412380D02*
X109095238Y-184412380D01*
X109095238Y-183412380D01*
X108285714Y-183888571D02*
X107952380Y-183888571D01*
X107809523Y-184412380D02*
X108285714Y-184412380D01*
X108285714Y-183412380D01*
X107809523Y-183412380D01*
X107380952Y-184412380D02*
X107380952Y-183412380D01*
X107142857Y-183412380D01*
X107000000Y-183460000D01*
X106904761Y-183555238D01*
X106857142Y-183650476D01*
X106809523Y-183840952D01*
X106809523Y-183983809D01*
X106857142Y-184174285D01*
X106904761Y-184269523D01*
X107000000Y-184364761D01*
X107142857Y-184412380D01*
X107380952Y-184412380D01*
X106428571Y-183507619D02*
X106380952Y-183460000D01*
X106285714Y-183412380D01*
X106047619Y-183412380D01*
X105952380Y-183460000D01*
X105904761Y-183507619D01*
X105857142Y-183602857D01*
X105857142Y-183698095D01*
X105904761Y-183840952D01*
X106476190Y-184412380D01*
X105857142Y-184412380D01*
%TO.C,FAST_SLOW_ENV1*%
X106261904Y-127428571D02*
X106595238Y-127428571D01*
X106595238Y-127952380D02*
X106595238Y-126952380D01*
X106119047Y-126952380D01*
X105785714Y-127666666D02*
X105309523Y-127666666D01*
X105880952Y-127952380D02*
X105547619Y-126952380D01*
X105214285Y-127952380D01*
X104928571Y-127904761D02*
X104785714Y-127952380D01*
X104547619Y-127952380D01*
X104452380Y-127904761D01*
X104404761Y-127857142D01*
X104357142Y-127761904D01*
X104357142Y-127666666D01*
X104404761Y-127571428D01*
X104452380Y-127523809D01*
X104547619Y-127476190D01*
X104738095Y-127428571D01*
X104833333Y-127380952D01*
X104880952Y-127333333D01*
X104928571Y-127238095D01*
X104928571Y-127142857D01*
X104880952Y-127047619D01*
X104833333Y-127000000D01*
X104738095Y-126952380D01*
X104500000Y-126952380D01*
X104357142Y-127000000D01*
X104071428Y-126952380D02*
X103500000Y-126952380D01*
X103785714Y-127952380D02*
X103785714Y-126952380D01*
X103404761Y-128047619D02*
X102642857Y-128047619D01*
X102452380Y-127904761D02*
X102309523Y-127952380D01*
X102071428Y-127952380D01*
X101976190Y-127904761D01*
X101928571Y-127857142D01*
X101880952Y-127761904D01*
X101880952Y-127666666D01*
X101928571Y-127571428D01*
X101976190Y-127523809D01*
X102071428Y-127476190D01*
X102261904Y-127428571D01*
X102357142Y-127380952D01*
X102404761Y-127333333D01*
X102452380Y-127238095D01*
X102452380Y-127142857D01*
X102404761Y-127047619D01*
X102357142Y-127000000D01*
X102261904Y-126952380D01*
X102023809Y-126952380D01*
X101880952Y-127000000D01*
X100976190Y-127952380D02*
X101452380Y-127952380D01*
X101452380Y-126952380D01*
X100452380Y-126952380D02*
X100261904Y-126952380D01*
X100166666Y-127000000D01*
X100071428Y-127095238D01*
X100023809Y-127285714D01*
X100023809Y-127619047D01*
X100071428Y-127809523D01*
X100166666Y-127904761D01*
X100261904Y-127952380D01*
X100452380Y-127952380D01*
X100547619Y-127904761D01*
X100642857Y-127809523D01*
X100690476Y-127619047D01*
X100690476Y-127285714D01*
X100642857Y-127095238D01*
X100547619Y-127000000D01*
X100452380Y-126952380D01*
X99690476Y-126952380D02*
X99452380Y-127952380D01*
X99261904Y-127238095D01*
X99071428Y-127952380D01*
X98833333Y-126952380D01*
X98690476Y-128047619D02*
X97928571Y-128047619D01*
X97690476Y-127428571D02*
X97357142Y-127428571D01*
X97214285Y-127952380D02*
X97690476Y-127952380D01*
X97690476Y-126952380D01*
X97214285Y-126952380D01*
X96785714Y-127952380D02*
X96785714Y-126952380D01*
X96214285Y-127952380D01*
X96214285Y-126952380D01*
X95880952Y-126952380D02*
X95547619Y-127952380D01*
X95214285Y-126952380D01*
X94357142Y-127952380D02*
X94928571Y-127952380D01*
X94642857Y-127952380D02*
X94642857Y-126952380D01*
X94738095Y-127095238D01*
X94833333Y-127190476D01*
X94928571Y-127238095D01*
%TO.C,GATE_OFFSET1*%
X104547619Y-147000000D02*
X104642857Y-146952380D01*
X104785714Y-146952380D01*
X104928571Y-147000000D01*
X105023809Y-147095238D01*
X105071428Y-147190476D01*
X105119047Y-147380952D01*
X105119047Y-147523809D01*
X105071428Y-147714285D01*
X105023809Y-147809523D01*
X104928571Y-147904761D01*
X104785714Y-147952380D01*
X104690476Y-147952380D01*
X104547619Y-147904761D01*
X104500000Y-147857142D01*
X104500000Y-147523809D01*
X104690476Y-147523809D01*
X104119047Y-147666666D02*
X103642857Y-147666666D01*
X104214285Y-147952380D02*
X103880952Y-146952380D01*
X103547619Y-147952380D01*
X103357142Y-146952380D02*
X102785714Y-146952380D01*
X103071428Y-147952380D02*
X103071428Y-146952380D01*
X102452380Y-147428571D02*
X102119047Y-147428571D01*
X101976190Y-147952380D02*
X102452380Y-147952380D01*
X102452380Y-146952380D01*
X101976190Y-146952380D01*
X101785714Y-148047619D02*
X101023809Y-148047619D01*
X100595238Y-146952380D02*
X100404761Y-146952380D01*
X100309523Y-147000000D01*
X100214285Y-147095238D01*
X100166666Y-147285714D01*
X100166666Y-147619047D01*
X100214285Y-147809523D01*
X100309523Y-147904761D01*
X100404761Y-147952380D01*
X100595238Y-147952380D01*
X100690476Y-147904761D01*
X100785714Y-147809523D01*
X100833333Y-147619047D01*
X100833333Y-147285714D01*
X100785714Y-147095238D01*
X100690476Y-147000000D01*
X100595238Y-146952380D01*
X99404761Y-147428571D02*
X99738095Y-147428571D01*
X99738095Y-147952380D02*
X99738095Y-146952380D01*
X99261904Y-146952380D01*
X98547619Y-147428571D02*
X98880952Y-147428571D01*
X98880952Y-147952380D02*
X98880952Y-146952380D01*
X98404761Y-146952380D01*
X98071428Y-147904761D02*
X97928571Y-147952380D01*
X97690476Y-147952380D01*
X97595238Y-147904761D01*
X97547619Y-147857142D01*
X97500000Y-147761904D01*
X97500000Y-147666666D01*
X97547619Y-147571428D01*
X97595238Y-147523809D01*
X97690476Y-147476190D01*
X97880952Y-147428571D01*
X97976190Y-147380952D01*
X98023809Y-147333333D01*
X98071428Y-147238095D01*
X98071428Y-147142857D01*
X98023809Y-147047619D01*
X97976190Y-147000000D01*
X97880952Y-146952380D01*
X97642857Y-146952380D01*
X97500000Y-147000000D01*
X97071428Y-147428571D02*
X96738095Y-147428571D01*
X96595238Y-147952380D02*
X97071428Y-147952380D01*
X97071428Y-146952380D01*
X96595238Y-146952380D01*
X96309523Y-146952380D02*
X95738095Y-146952380D01*
X96023809Y-147952380D02*
X96023809Y-146952380D01*
X94880952Y-147952380D02*
X95452380Y-147952380D01*
X95166666Y-147952380D02*
X95166666Y-146952380D01*
X95261904Y-147095238D01*
X95357142Y-147190476D01*
X95452380Y-147238095D01*
X101547904Y-152428571D02*
X101405047Y-152476190D01*
X101357428Y-152523809D01*
X101309809Y-152619047D01*
X101309809Y-152761904D01*
X101357428Y-152857142D01*
X101405047Y-152904761D01*
X101500285Y-152952380D01*
X101881238Y-152952380D01*
X101881238Y-151952380D01*
X101547904Y-151952380D01*
X101452666Y-152000000D01*
X101405047Y-152047619D01*
X101357428Y-152142857D01*
X101357428Y-152238095D01*
X101405047Y-152333333D01*
X101452666Y-152380952D01*
X101547904Y-152428571D01*
X101881238Y-152428571D01*
X100357428Y-152952380D02*
X100928857Y-152952380D01*
X100643142Y-152952380D02*
X100643142Y-151952380D01*
X100738380Y-152095238D01*
X100833619Y-152190476D01*
X100928857Y-152238095D01*
X99738380Y-151952380D02*
X99643142Y-151952380D01*
X99547904Y-152000000D01*
X99500285Y-152047619D01*
X99452666Y-152142857D01*
X99405047Y-152333333D01*
X99405047Y-152571428D01*
X99452666Y-152761904D01*
X99500285Y-152857142D01*
X99547904Y-152904761D01*
X99643142Y-152952380D01*
X99738380Y-152952380D01*
X99833619Y-152904761D01*
X99881238Y-152857142D01*
X99928857Y-152761904D01*
X99976476Y-152571428D01*
X99976476Y-152333333D01*
X99928857Y-152142857D01*
X99881238Y-152047619D01*
X99833619Y-152000000D01*
X99738380Y-151952380D01*
X98786000Y-151952380D02*
X98690761Y-151952380D01*
X98595523Y-152000000D01*
X98547904Y-152047619D01*
X98500285Y-152142857D01*
X98452666Y-152333333D01*
X98452666Y-152571428D01*
X98500285Y-152761904D01*
X98547904Y-152857142D01*
X98595523Y-152904761D01*
X98690761Y-152952380D01*
X98786000Y-152952380D01*
X98881238Y-152904761D01*
X98928857Y-152857142D01*
X98976476Y-152761904D01*
X99024095Y-152571428D01*
X99024095Y-152333333D01*
X98976476Y-152142857D01*
X98928857Y-152047619D01*
X98881238Y-152000000D01*
X98786000Y-151952380D01*
X98024095Y-152952380D02*
X98024095Y-151952380D01*
X97928857Y-152571428D02*
X97643142Y-152952380D01*
X97643142Y-152285714D02*
X98024095Y-152666666D01*
%TO.C,LED1*%
X118619047Y-184412380D02*
X119095238Y-184412380D01*
X119095238Y-183412380D01*
X118285714Y-183888571D02*
X117952380Y-183888571D01*
X117809523Y-184412380D02*
X118285714Y-184412380D01*
X118285714Y-183412380D01*
X117809523Y-183412380D01*
X117380952Y-184412380D02*
X117380952Y-183412380D01*
X117142857Y-183412380D01*
X117000000Y-183460000D01*
X116904761Y-183555238D01*
X116857142Y-183650476D01*
X116809523Y-183840952D01*
X116809523Y-183983809D01*
X116857142Y-184174285D01*
X116904761Y-184269523D01*
X117000000Y-184364761D01*
X117142857Y-184412380D01*
X117380952Y-184412380D01*
X115857142Y-184412380D02*
X116428571Y-184412380D01*
X116142857Y-184412380D02*
X116142857Y-183412380D01*
X116238095Y-183555238D01*
X116333333Y-183650476D01*
X116428571Y-183698095D01*
%TO.C,CLOCK_SPEED1*%
X104857142Y-113857142D02*
X104904761Y-113904761D01*
X105047619Y-113952380D01*
X105142857Y-113952380D01*
X105285714Y-113904761D01*
X105380952Y-113809523D01*
X105428571Y-113714285D01*
X105476190Y-113523809D01*
X105476190Y-113380952D01*
X105428571Y-113190476D01*
X105380952Y-113095238D01*
X105285714Y-113000000D01*
X105142857Y-112952380D01*
X105047619Y-112952380D01*
X104904761Y-113000000D01*
X104857142Y-113047619D01*
X103952380Y-113952380D02*
X104428571Y-113952380D01*
X104428571Y-112952380D01*
X103428571Y-112952380D02*
X103238095Y-112952380D01*
X103142857Y-113000000D01*
X103047619Y-113095238D01*
X103000000Y-113285714D01*
X103000000Y-113619047D01*
X103047619Y-113809523D01*
X103142857Y-113904761D01*
X103238095Y-113952380D01*
X103428571Y-113952380D01*
X103523809Y-113904761D01*
X103619047Y-113809523D01*
X103666666Y-113619047D01*
X103666666Y-113285714D01*
X103619047Y-113095238D01*
X103523809Y-113000000D01*
X103428571Y-112952380D01*
X102000000Y-113857142D02*
X102047619Y-113904761D01*
X102190476Y-113952380D01*
X102285714Y-113952380D01*
X102428571Y-113904761D01*
X102523809Y-113809523D01*
X102571428Y-113714285D01*
X102619047Y-113523809D01*
X102619047Y-113380952D01*
X102571428Y-113190476D01*
X102523809Y-113095238D01*
X102428571Y-113000000D01*
X102285714Y-112952380D01*
X102190476Y-112952380D01*
X102047619Y-113000000D01*
X102000000Y-113047619D01*
X101571428Y-113952380D02*
X101571428Y-112952380D01*
X101000000Y-113952380D02*
X101428571Y-113380952D01*
X101000000Y-112952380D02*
X101571428Y-113523809D01*
X100809523Y-114047619D02*
X100047619Y-114047619D01*
X99857142Y-113904761D02*
X99714285Y-113952380D01*
X99476190Y-113952380D01*
X99380952Y-113904761D01*
X99333333Y-113857142D01*
X99285714Y-113761904D01*
X99285714Y-113666666D01*
X99333333Y-113571428D01*
X99380952Y-113523809D01*
X99476190Y-113476190D01*
X99666666Y-113428571D01*
X99761904Y-113380952D01*
X99809523Y-113333333D01*
X99857142Y-113238095D01*
X99857142Y-113142857D01*
X99809523Y-113047619D01*
X99761904Y-113000000D01*
X99666666Y-112952380D01*
X99428571Y-112952380D01*
X99285714Y-113000000D01*
X98857142Y-113952380D02*
X98857142Y-112952380D01*
X98476190Y-112952380D01*
X98380952Y-113000000D01*
X98333333Y-113047619D01*
X98285714Y-113142857D01*
X98285714Y-113285714D01*
X98333333Y-113380952D01*
X98380952Y-113428571D01*
X98476190Y-113476190D01*
X98857142Y-113476190D01*
X97857142Y-113428571D02*
X97523809Y-113428571D01*
X97380952Y-113952380D02*
X97857142Y-113952380D01*
X97857142Y-112952380D01*
X97380952Y-112952380D01*
X96952380Y-113428571D02*
X96619047Y-113428571D01*
X96476190Y-113952380D02*
X96952380Y-113952380D01*
X96952380Y-112952380D01*
X96476190Y-112952380D01*
X96047619Y-113952380D02*
X96047619Y-112952380D01*
X95809523Y-112952380D01*
X95666666Y-113000000D01*
X95571428Y-113095238D01*
X95523809Y-113190476D01*
X95476190Y-113380952D01*
X95476190Y-113523809D01*
X95523809Y-113714285D01*
X95571428Y-113809523D01*
X95666666Y-113904761D01*
X95809523Y-113952380D01*
X96047619Y-113952380D01*
X94523809Y-113952380D02*
X95095238Y-113952380D01*
X94809523Y-113952380D02*
X94809523Y-112952380D01*
X94904761Y-113095238D01*
X95000000Y-113190476D01*
X95095238Y-113238095D01*
X101547904Y-102428571D02*
X101405047Y-102476190D01*
X101357428Y-102523809D01*
X101309809Y-102619047D01*
X101309809Y-102761904D01*
X101357428Y-102857142D01*
X101405047Y-102904761D01*
X101500285Y-102952380D01*
X101881238Y-102952380D01*
X101881238Y-101952380D01*
X101547904Y-101952380D01*
X101452666Y-102000000D01*
X101405047Y-102047619D01*
X101357428Y-102142857D01*
X101357428Y-102238095D01*
X101405047Y-102333333D01*
X101452666Y-102380952D01*
X101547904Y-102428571D01*
X101881238Y-102428571D01*
X100928857Y-102047619D02*
X100881238Y-102000000D01*
X100786000Y-101952380D01*
X100547904Y-101952380D01*
X100452666Y-102000000D01*
X100405047Y-102047619D01*
X100357428Y-102142857D01*
X100357428Y-102238095D01*
X100405047Y-102380952D01*
X100976476Y-102952380D01*
X100357428Y-102952380D01*
X99738380Y-101952380D02*
X99643142Y-101952380D01*
X99547904Y-102000000D01*
X99500285Y-102047619D01*
X99452666Y-102142857D01*
X99405047Y-102333333D01*
X99405047Y-102571428D01*
X99452666Y-102761904D01*
X99500285Y-102857142D01*
X99547904Y-102904761D01*
X99643142Y-102952380D01*
X99738380Y-102952380D01*
X99833619Y-102904761D01*
X99881238Y-102857142D01*
X99928857Y-102761904D01*
X99976476Y-102571428D01*
X99976476Y-102333333D01*
X99928857Y-102142857D01*
X99881238Y-102047619D01*
X99833619Y-102000000D01*
X99738380Y-101952380D01*
X98786000Y-101952380D02*
X98690761Y-101952380D01*
X98595523Y-102000000D01*
X98547904Y-102047619D01*
X98500285Y-102142857D01*
X98452666Y-102333333D01*
X98452666Y-102571428D01*
X98500285Y-102761904D01*
X98547904Y-102857142D01*
X98595523Y-102904761D01*
X98690761Y-102952380D01*
X98786000Y-102952380D01*
X98881238Y-102904761D01*
X98928857Y-102857142D01*
X98976476Y-102761904D01*
X99024095Y-102571428D01*
X99024095Y-102333333D01*
X98976476Y-102142857D01*
X98928857Y-102047619D01*
X98881238Y-102000000D01*
X98786000Y-101952380D01*
X98024095Y-102952380D02*
X98024095Y-101952380D01*
X97928857Y-102571428D02*
X97643142Y-102952380D01*
X97643142Y-102285714D02*
X98024095Y-102666666D01*
%TO.C,GAIN1*%
X101404761Y-74500000D02*
X101500000Y-74452380D01*
X101642857Y-74452380D01*
X101785714Y-74500000D01*
X101880952Y-74595238D01*
X101928571Y-74690476D01*
X101976190Y-74880952D01*
X101976190Y-75023809D01*
X101928571Y-75214285D01*
X101880952Y-75309523D01*
X101785714Y-75404761D01*
X101642857Y-75452380D01*
X101547619Y-75452380D01*
X101404761Y-75404761D01*
X101357142Y-75357142D01*
X101357142Y-75023809D01*
X101547619Y-75023809D01*
X100976190Y-75166666D02*
X100500000Y-75166666D01*
X101071428Y-75452380D02*
X100738095Y-74452380D01*
X100404761Y-75452380D01*
X100071428Y-75452380D02*
X100071428Y-74452380D01*
X99595238Y-75452380D02*
X99595238Y-74452380D01*
X99023809Y-75452380D01*
X99023809Y-74452380D01*
X98023809Y-75452380D02*
X98595238Y-75452380D01*
X98309523Y-75452380D02*
X98309523Y-74452380D01*
X98404761Y-74595238D01*
X98500000Y-74690476D01*
X98595238Y-74738095D01*
X101975904Y-69928571D02*
X101833047Y-69976190D01*
X101785428Y-70023809D01*
X101737809Y-70119047D01*
X101737809Y-70261904D01*
X101785428Y-70357142D01*
X101833047Y-70404761D01*
X101928285Y-70452380D01*
X102309238Y-70452380D01*
X102309238Y-69452380D01*
X101975904Y-69452380D01*
X101880666Y-69500000D01*
X101833047Y-69547619D01*
X101785428Y-69642857D01*
X101785428Y-69738095D01*
X101833047Y-69833333D01*
X101880666Y-69880952D01*
X101975904Y-69928571D01*
X102309238Y-69928571D01*
X100785428Y-70452380D02*
X101356857Y-70452380D01*
X101071142Y-70452380D02*
X101071142Y-69452380D01*
X101166380Y-69595238D01*
X101261619Y-69690476D01*
X101356857Y-69738095D01*
X100166380Y-69452380D02*
X100071142Y-69452380D01*
X99975904Y-69500000D01*
X99928285Y-69547619D01*
X99880666Y-69642857D01*
X99833047Y-69833333D01*
X99833047Y-70071428D01*
X99880666Y-70261904D01*
X99928285Y-70357142D01*
X99975904Y-70404761D01*
X100071142Y-70452380D01*
X100166380Y-70452380D01*
X100261619Y-70404761D01*
X100309238Y-70357142D01*
X100356857Y-70261904D01*
X100404476Y-70071428D01*
X100404476Y-69833333D01*
X100356857Y-69642857D01*
X100309238Y-69547619D01*
X100261619Y-69500000D01*
X100166380Y-69452380D01*
X99214000Y-69452380D02*
X99118761Y-69452380D01*
X99023523Y-69500000D01*
X98975904Y-69547619D01*
X98928285Y-69642857D01*
X98880666Y-69833333D01*
X98880666Y-70071428D01*
X98928285Y-70261904D01*
X98975904Y-70357142D01*
X99023523Y-70404761D01*
X99118761Y-70452380D01*
X99214000Y-70452380D01*
X99309238Y-70404761D01*
X99356857Y-70357142D01*
X99404476Y-70261904D01*
X99452095Y-70071428D01*
X99452095Y-69833333D01*
X99404476Y-69642857D01*
X99356857Y-69547619D01*
X99309238Y-69500000D01*
X99214000Y-69452380D01*
X98452095Y-70452380D02*
X98452095Y-69452380D01*
X98356857Y-70071428D02*
X98071142Y-70452380D01*
X98071142Y-69785714D02*
X98452095Y-70166666D01*
D11*
%TO.C,LED3*%
X90230000Y-183000000D02*
X90230000Y-182000000D01*
X89730000Y-182500000D02*
X90730000Y-182500000D01*
X84940000Y-181545000D02*
X84940000Y-178455000D01*
X84940000Y-181544830D02*
G75*
G03*
X90490000Y-179999538I2560000J1544830D01*
G01*
X90490000Y-180000462D02*
G75*
G03*
X84940000Y-178455170I-2990000J462D01*
G01*
X90000000Y-180000000D02*
G75*
G03*
X90000000Y-180000000I-2500000J0D01*
G01*
%TO.C,LED2*%
X109730000Y-182500000D02*
X110730000Y-182500000D01*
X110230000Y-183000000D02*
X110230000Y-182000000D01*
X104940000Y-181545000D02*
X104940000Y-178455000D01*
X104940000Y-181544830D02*
G75*
G03*
X110490000Y-179999538I2560000J1544830D01*
G01*
X110490000Y-180000462D02*
G75*
G03*
X104940000Y-178455170I-2990000J462D01*
G01*
X110000000Y-180000000D02*
G75*
G03*
X110000000Y-180000000I-2500000J0D01*
G01*
%TO.C,FAST_SLOW_ENV1*%
X106500000Y-136000000D02*
X106500000Y-129000000D01*
X93500000Y-136000000D02*
X106500000Y-136000000D01*
X106500000Y-129000000D02*
X93500000Y-129000000D01*
X93500000Y-129000000D02*
X93500000Y-136000000D01*
%TO.C,GATE_OFFSET1*%
X101660000Y-150880000D02*
X100830000Y-150880000D01*
X104870000Y-150880000D02*
X103380000Y-150880000D01*
X95120000Y-150880000D02*
X95120000Y-155600000D01*
X104870000Y-159410000D02*
X104870000Y-162470000D01*
X95130000Y-159410000D02*
X95130000Y-162470000D01*
X100000000Y-158500000D02*
X100000000Y-156500000D01*
X99210000Y-150880000D02*
X98680000Y-150880000D01*
X96310000Y-150880000D02*
X95130000Y-150880000D01*
X101000000Y-157500000D02*
X99000000Y-157500000D01*
X104870000Y-150880000D02*
X104870000Y-155600000D01*
X104870000Y-162470000D02*
X95130000Y-162470000D01*
X103000000Y-157500000D02*
G75*
G03*
X103000000Y-157500000I-3000000J0D01*
G01*
%TO.C,LED1*%
X114940000Y-181545000D02*
X114940000Y-178455000D01*
X119730000Y-182500000D02*
X120730000Y-182500000D01*
X120230000Y-183000000D02*
X120230000Y-182000000D01*
X120490000Y-180000462D02*
G75*
G03*
X114940000Y-178455170I-2990000J462D01*
G01*
X114940000Y-181544830D02*
G75*
G03*
X120490000Y-179999538I2560000J1544830D01*
G01*
X120000000Y-180000000D02*
G75*
G03*
X120000000Y-180000000I-2500000J0D01*
G01*
%TO.C,CLOCK_SPEED1*%
X101660000Y-100880000D02*
X100830000Y-100880000D01*
X104870000Y-100880000D02*
X103380000Y-100880000D01*
X104870000Y-112470000D02*
X95130000Y-112470000D01*
X96310000Y-100880000D02*
X95130000Y-100880000D01*
X104870000Y-100880000D02*
X104870000Y-105600000D01*
X95120000Y-100880000D02*
X95120000Y-105600000D01*
X95130000Y-109410000D02*
X95130000Y-112470000D01*
X104870000Y-109410000D02*
X104870000Y-112470000D01*
X101000000Y-107500000D02*
X99000000Y-107500000D01*
X99210000Y-100880000D02*
X98680000Y-100880000D01*
X100000000Y-108500000D02*
X100000000Y-106500000D01*
X103000000Y-107500000D02*
G75*
G03*
X103000000Y-107500000I-3000000J0D01*
G01*
%TO.C,GAIN1*%
X104880000Y-71620000D02*
X104880000Y-66900000D01*
X104870000Y-63090000D02*
X104870000Y-60030000D01*
X95130000Y-71620000D02*
X96620000Y-71620000D01*
X100790000Y-71620000D02*
X101320000Y-71620000D01*
X99000000Y-65000000D02*
X101000000Y-65000000D01*
X95130000Y-71620000D02*
X95130000Y-66900000D01*
X95130000Y-63090000D02*
X95130000Y-60030000D01*
X103690000Y-71620000D02*
X104870000Y-71620000D01*
X100000000Y-64000000D02*
X100000000Y-66000000D01*
X95130000Y-60030000D02*
X104870000Y-60030000D01*
X98340000Y-71620000D02*
X99170000Y-71620000D01*
X103000000Y-65000000D02*
G75*
G03*
X103000000Y-65000000I-3000000J0D01*
G01*
%TD*%
%LPC*%
D12*
%TO.C,R29*%
X91000000Y-160880000D03*
D13*
X91000000Y-150720000D03*
%TD*%
D14*
%TO.C,ENV_OUT1*%
X94000000Y-179000000D03*
D15*
X94000000Y-181500000D03*
%TD*%
D12*
%TO.C,R2*%
X101000000Y-174080000D03*
D13*
X101000000Y-163920000D03*
%TD*%
D12*
%TO.C,C8*%
X102500000Y-140000000D03*
X97500000Y-140000000D03*
%TD*%
%TO.C,R28*%
X109000000Y-150800000D03*
D13*
X109000000Y-160960000D03*
%TD*%
D16*
%TO.C,C9*%
X95000000Y-125000000D03*
X105000000Y-125000000D03*
%TD*%
D14*
%TO.C,ENV_INV1*%
X102000000Y-179000000D03*
D15*
X102000000Y-181500000D03*
%TD*%
D17*
%TO.C,CN2*%
X116973000Y-115373000D03*
D18*
X116973000Y-112833000D03*
X116973000Y-110293000D03*
X116973000Y-107753000D03*
X116973000Y-105213000D03*
X116973000Y-102673000D03*
X116973000Y-100133000D03*
X116973000Y-97593000D03*
%TD*%
D14*
%TO.C,GATE_OUT1*%
X82000000Y-179000000D03*
D15*
X82000000Y-181500000D03*
%TD*%
D12*
%TO.C,R3*%
X91000000Y-163920000D03*
D13*
X91000000Y-174080000D03*
%TD*%
D12*
%TO.C,R1*%
X106000000Y-163920000D03*
D13*
X106000000Y-174080000D03*
%TD*%
D17*
%TO.C,CN1*%
X81413000Y-115372000D03*
D18*
X81413000Y-112832000D03*
X81413000Y-110292000D03*
X81413000Y-107752000D03*
X81413000Y-105212000D03*
X81413000Y-102672000D03*
X81413000Y-100132000D03*
X81413000Y-97592000D03*
%TD*%
D19*
%TO.C,SIGNAL_IN1*%
X114000000Y-174000000D03*
D20*
X111500000Y-174000000D03*
%TD*%
D12*
%TO.C,R25*%
X86000000Y-174080000D03*
D13*
X86000000Y-163920000D03*
%TD*%
D12*
%TO.C,R33*%
X96000000Y-163920000D03*
D13*
X96000000Y-174080000D03*
%TD*%
D21*
%TO.C,LED3*%
X86230000Y-180000000D03*
D22*
X88770000Y-180000000D03*
%TD*%
D21*
%TO.C,LED2*%
X106230000Y-180000000D03*
D22*
X108770000Y-180000000D03*
%TD*%
D23*
%TO.C,FAST_SLOW_ENV1*%
X95150000Y-132500000D03*
X100000000Y-132500000D03*
X104850000Y-132500000D03*
%TD*%
D24*
%TO.C,GATE_OFFSET1*%
X95200000Y-157500000D03*
X104800000Y-157500000D03*
D21*
X97500000Y-150000000D03*
D22*
X100000000Y-150000000D03*
X102500000Y-150000000D03*
%TD*%
D21*
%TO.C,LED1*%
X116230000Y-180000000D03*
D22*
X118770000Y-180000000D03*
%TD*%
D24*
%TO.C,CLOCK_SPEED1*%
X95200000Y-107500000D03*
X104800000Y-107500000D03*
D21*
X97500000Y-100000000D03*
D22*
X100000000Y-100000000D03*
X102500000Y-100000000D03*
%TD*%
D24*
%TO.C,GAIN1*%
X95200000Y-65000000D03*
X104800000Y-65000000D03*
D21*
X102500000Y-72500000D03*
D22*
X100000000Y-72500000D03*
X97500000Y-72500000D03*
%TD*%
M02*
