%FSLAX45Y45*%
G04 Gerber Fmt 4.5, Leading zero omitted, Abs format (unit mm)*
G04 Created by KiCad (PCBNEW (6.0.5)) date 2022-09-08 21:10:07*
%MOMM*%
%LPD*%
G01*
G04 APERTURE LIST*
%TA.AperFunction,Profile*%
%ADD10C,0.100000*%
%TD*%
%ADD11C,0.200000*%
%ADD12C,0.080000*%
%ADD13C,0.090000*%
%ADD14C,0.100000*%
%ADD15C,0.130000*%
%ADD16C,0.150000*%
G04 APERTURE END LIST*
D10*
X7800000Y-18500000D02*
G75*
G03*
X7900000Y-18600000I100000J0D01*
G01*
X7800000Y-18500000D02*
X7800000Y-6000000D01*
X12100000Y-6000000D02*
G75*
G03*
X12000000Y-5900000I-100000J0D01*
G01*
X7900000Y-5900000D02*
X12000000Y-5900000D01*
X7900000Y-5900000D02*
G75*
G03*
X7800000Y-6000000I0J-100000D01*
G01*
X12000000Y-18600000D02*
X7900000Y-18600000D01*
X12000000Y-18600000D02*
G75*
G03*
X12100000Y-18500000I0J100000D01*
G01*
X12100000Y-6000000D02*
X12100000Y-18500000D01*
D11*
D12*
X8560000Y-16352000D02*
X8640000Y-16432000D01*
X8640000Y-16352000D02*
X8560000Y-16432000D01*
X8560000Y-17368000D02*
X8640000Y-17448000D01*
X8640000Y-17368000D02*
X8560000Y-17448000D01*
X9060000Y-15032000D02*
X9140000Y-15112000D01*
X9140000Y-15032000D02*
X9060000Y-15112000D01*
X9060000Y-16048000D02*
X9140000Y-16128000D01*
X9140000Y-16048000D02*
X9060000Y-16128000D01*
X9060000Y-16352000D02*
X9140000Y-16432000D01*
X9140000Y-16352000D02*
X9060000Y-16432000D01*
X9060000Y-17368000D02*
X9140000Y-17448000D01*
X9140000Y-17368000D02*
X9060000Y-17448000D01*
X9560000Y-16352000D02*
X9640000Y-16432000D01*
X9640000Y-16352000D02*
X9560000Y-16432000D01*
X9560000Y-17368000D02*
X9640000Y-17448000D01*
X9640000Y-17368000D02*
X9560000Y-17448000D01*
X9710000Y-13960000D02*
X9790000Y-14040000D01*
X9790000Y-13960000D02*
X9710000Y-14040000D01*
X10060000Y-16352000D02*
X10140000Y-16432000D01*
X10140000Y-16352000D02*
X10060000Y-16432000D01*
X10060000Y-17368000D02*
X10140000Y-17448000D01*
X10140000Y-17368000D02*
X10060000Y-17448000D01*
X10210000Y-13960000D02*
X10290000Y-14040000D01*
X10290000Y-13960000D02*
X10210000Y-14040000D01*
X10560000Y-16352000D02*
X10640000Y-16432000D01*
X10640000Y-16352000D02*
X10560000Y-16432000D01*
X10560000Y-17368000D02*
X10640000Y-17448000D01*
X10640000Y-17368000D02*
X10560000Y-17448000D01*
X10860000Y-15040000D02*
X10940000Y-15120000D01*
X10940000Y-15040000D02*
X10860000Y-15120000D01*
X10860000Y-16056000D02*
X10940000Y-16136000D01*
X10940000Y-16056000D02*
X10860000Y-16136000D01*
D13*
X8668000Y-18000000D02*
G75*
G03*
X8668000Y-18000000I-45000J0D01*
G01*
X8922000Y-18000000D02*
G75*
G03*
X8922000Y-18000000I-45000J0D01*
G01*
X10668000Y-18000000D02*
G75*
G03*
X10668000Y-18000000I-45000J0D01*
G01*
X10922000Y-18000000D02*
G75*
G03*
X10922000Y-18000000I-45000J0D01*
G01*
X11668000Y-18000000D02*
G75*
G03*
X11668000Y-18000000I-45000J0D01*
G01*
X11922000Y-18000000D02*
G75*
G03*
X11922000Y-18000000I-45000J0D01*
G01*
D14*
X8141300Y-9709200D02*
X8141300Y-9809200D01*
X8091300Y-9759200D02*
X8191300Y-9759200D01*
X8141300Y-9963200D02*
X8141300Y-10063200D01*
X8091300Y-10013200D02*
X8191300Y-10013200D01*
X8141300Y-10217200D02*
X8141300Y-10317200D01*
X8091300Y-10267200D02*
X8191300Y-10267200D01*
X8141300Y-10471200D02*
X8141300Y-10571200D01*
X8091300Y-10521200D02*
X8191300Y-10521200D01*
X8141300Y-10725200D02*
X8141300Y-10825200D01*
X8091300Y-10775200D02*
X8191300Y-10775200D01*
X8141300Y-10979200D02*
X8141300Y-11079200D01*
X8091300Y-11029200D02*
X8191300Y-11029200D01*
X8141300Y-11233200D02*
X8141300Y-11333200D01*
X8091300Y-11283200D02*
X8191300Y-11283200D01*
X8141300Y-11487200D02*
X8141300Y-11587200D01*
X8091300Y-11537200D02*
X8191300Y-11537200D01*
X8200000Y-17850000D02*
X8200000Y-17950000D01*
X8150000Y-17900000D02*
X8250000Y-17900000D01*
X8200000Y-18100000D02*
X8200000Y-18200000D01*
X8150000Y-18150000D02*
X8250000Y-18150000D01*
X9400000Y-17850000D02*
X9400000Y-17950000D01*
X9350000Y-17900000D02*
X9450000Y-17900000D01*
X9400000Y-18100000D02*
X9400000Y-18200000D01*
X9350000Y-18150000D02*
X9450000Y-18150000D01*
X9500000Y-12450000D02*
X9500000Y-12550000D01*
X9450000Y-12500000D02*
X9550000Y-12500000D01*
X9750000Y-7200000D02*
X9750000Y-7300000D01*
X9700000Y-7250000D02*
X9800000Y-7250000D01*
X9750000Y-9950000D02*
X9750000Y-10050000D01*
X9700000Y-10000000D02*
X9800000Y-10000000D01*
X9750000Y-14950000D02*
X9750000Y-15050000D01*
X9700000Y-15000000D02*
X9800000Y-15000000D01*
X10000000Y-7200000D02*
X10000000Y-7300000D01*
X9950000Y-7250000D02*
X10050000Y-7250000D01*
X10000000Y-9950000D02*
X10000000Y-10050000D01*
X9950000Y-10000000D02*
X10050000Y-10000000D01*
X10000000Y-14950000D02*
X10000000Y-15050000D01*
X9950000Y-15000000D02*
X10050000Y-15000000D01*
X10200000Y-17850000D02*
X10200000Y-17950000D01*
X10150000Y-17900000D02*
X10250000Y-17900000D01*
X10200000Y-18100000D02*
X10200000Y-18200000D01*
X10150000Y-18150000D02*
X10250000Y-18150000D01*
X10250000Y-7200000D02*
X10250000Y-7300000D01*
X10200000Y-7250000D02*
X10300000Y-7250000D01*
X10250000Y-9950000D02*
X10250000Y-10050000D01*
X10200000Y-10000000D02*
X10300000Y-10000000D01*
X10250000Y-14950000D02*
X10250000Y-15050000D01*
X10200000Y-15000000D02*
X10300000Y-15000000D01*
X10500000Y-12450000D02*
X10500000Y-12550000D01*
X10450000Y-12500000D02*
X10550000Y-12500000D01*
X11150000Y-17350000D02*
X11150000Y-17450000D01*
X11100000Y-17400000D02*
X11200000Y-17400000D01*
X11400000Y-17350000D02*
X11400000Y-17450000D01*
X11350000Y-17400000D02*
X11450000Y-17400000D01*
X11697300Y-9709300D02*
X11697300Y-9809300D01*
X11647300Y-9759300D02*
X11747300Y-9759300D01*
X11697300Y-9963300D02*
X11697300Y-10063300D01*
X11647300Y-10013300D02*
X11747300Y-10013300D01*
X11697300Y-10217300D02*
X11697300Y-10317300D01*
X11647300Y-10267300D02*
X11747300Y-10267300D01*
X11697300Y-10471300D02*
X11697300Y-10571300D01*
X11647300Y-10521300D02*
X11747300Y-10521300D01*
X11697300Y-10725300D02*
X11697300Y-10825300D01*
X11647300Y-10775300D02*
X11747300Y-10775300D01*
X11697300Y-10979300D02*
X11697300Y-11079300D01*
X11647300Y-11029300D02*
X11747300Y-11029300D01*
X11697300Y-11233300D02*
X11697300Y-11333300D01*
X11647300Y-11283300D02*
X11747300Y-11283300D01*
X11697300Y-11487300D02*
X11697300Y-11587300D01*
X11647300Y-11537300D02*
X11747300Y-11537300D01*
D15*
X9565962Y-6545962D02*
X9565962Y-6454038D01*
X9474038Y-6454038D01*
X9474038Y-6545962D01*
X9565962Y-6545962D01*
D11*
X9465000Y-6475000D02*
X9465000Y-6525000D01*
X9575000Y-6475000D02*
X9575000Y-6525000D01*
X9465000Y-6525000D02*
G75*
G03*
X9575000Y-6525000I55000J0D01*
G01*
X9575000Y-6475000D02*
G75*
G03*
X9465000Y-6475000I-55000J0D01*
G01*
D15*
X9565962Y-10795962D02*
X9565962Y-10704038D01*
X9474038Y-10704038D01*
X9474038Y-10795962D01*
X9565962Y-10795962D01*
D11*
X9575000Y-10775000D02*
X9575000Y-10725000D01*
X9465000Y-10775000D02*
X9465000Y-10725000D01*
X9575000Y-10725000D02*
G75*
G03*
X9465000Y-10725000I-55000J0D01*
G01*
X9465000Y-10775000D02*
G75*
G03*
X9575000Y-10775000I55000J0D01*
G01*
D15*
X9565962Y-15795962D02*
X9565962Y-15704038D01*
X9474038Y-15704038D01*
X9474038Y-15795962D01*
X9565962Y-15795962D01*
D11*
X9575000Y-15775000D02*
X9575000Y-15725000D01*
X9465000Y-15775000D02*
X9465000Y-15725000D01*
X9575000Y-15725000D02*
G75*
G03*
X9465000Y-15725000I-55000J0D01*
G01*
X9465000Y-15775000D02*
G75*
G03*
X9575000Y-15775000I55000J0D01*
G01*
D15*
X10525962Y-6545962D02*
X10525962Y-6454038D01*
X10434038Y-6454038D01*
X10434038Y-6545962D01*
X10525962Y-6545962D01*
D11*
X10425000Y-6475000D02*
X10425000Y-6525000D01*
X10535000Y-6475000D02*
X10535000Y-6525000D01*
X10425000Y-6525000D02*
G75*
G03*
X10535000Y-6525000I55000J0D01*
G01*
X10535000Y-6475000D02*
G75*
G03*
X10425000Y-6475000I-55000J0D01*
G01*
D15*
X10525962Y-10795962D02*
X10525962Y-10704038D01*
X10434038Y-10704038D01*
X10434038Y-10795962D01*
X10525962Y-10795962D01*
D11*
X10535000Y-10775000D02*
X10535000Y-10725000D01*
X10425000Y-10775000D02*
X10425000Y-10725000D01*
X10535000Y-10725000D02*
G75*
G03*
X10425000Y-10725000I-55000J0D01*
G01*
X10425000Y-10775000D02*
G75*
G03*
X10535000Y-10775000I55000J0D01*
G01*
D15*
X10525962Y-15795962D02*
X10525962Y-15704038D01*
X10434038Y-15704038D01*
X10434038Y-15795962D01*
X10525962Y-15795962D01*
D11*
X10535000Y-15775000D02*
X10535000Y-15725000D01*
X10425000Y-15775000D02*
X10425000Y-15725000D01*
X10535000Y-15725000D02*
G75*
G03*
X10425000Y-15725000I-55000J0D01*
G01*
X10425000Y-15775000D02*
G75*
G03*
X10535000Y-15775000I55000J0D01*
G01*
D16*
X9515000Y-13325000D02*
X9590000Y-13250000D01*
X9515000Y-13175000D01*
X9440000Y-13250000D01*
X9515000Y-13325000D01*
D11*
X9580000Y-13325000D02*
X9580000Y-13175000D01*
X9450000Y-13325000D02*
X9450000Y-13175000D01*
X9580000Y-13175000D02*
G75*
G03*
X9450000Y-13175000I-65000J0D01*
G01*
X9450000Y-13325000D02*
G75*
G03*
X9580000Y-13325000I65000J0D01*
G01*
D16*
X10000000Y-13325000D02*
X10075000Y-13250000D01*
X10000000Y-13175000D01*
X9925000Y-13250000D01*
X10000000Y-13325000D01*
D11*
X10065000Y-13325000D02*
X10065000Y-13175000D01*
X9935000Y-13325000D02*
X9935000Y-13175000D01*
X10065000Y-13175000D02*
G75*
G03*
X9935000Y-13175000I-65000J0D01*
G01*
X9935000Y-13325000D02*
G75*
G03*
X10065000Y-13325000I65000J0D01*
G01*
D16*
X10485000Y-13325000D02*
X10560000Y-13250000D01*
X10485000Y-13175000D01*
X10410000Y-13250000D01*
X10485000Y-13325000D01*
D11*
X10550000Y-13325000D02*
X10550000Y-13175000D01*
X10420000Y-13325000D02*
X10420000Y-13175000D01*
X10550000Y-13175000D02*
G75*
G03*
X10420000Y-13175000I-65000J0D01*
G01*
X10420000Y-13325000D02*
G75*
G03*
X10550000Y-13325000I65000J0D01*
G01*
X8052619Y-18915476D02*
X8052619Y-18715476D01*
X8100238Y-18715476D01*
X8128809Y-18725000D01*
X8147857Y-18744048D01*
X8157381Y-18763095D01*
X8166905Y-18801190D01*
X8166905Y-18829762D01*
X8157381Y-18867857D01*
X8147857Y-18886905D01*
X8128809Y-18905952D01*
X8100238Y-18915476D01*
X8052619Y-18915476D01*
X8252619Y-18915476D02*
X8252619Y-18782143D01*
X8252619Y-18820238D02*
X8262143Y-18801190D01*
X8271667Y-18791667D01*
X8290714Y-18782143D01*
X8309762Y-18782143D01*
X8376428Y-18915476D02*
X8376428Y-18782143D01*
X8376428Y-18715476D02*
X8366905Y-18725000D01*
X8376428Y-18734524D01*
X8385952Y-18725000D01*
X8376428Y-18715476D01*
X8376428Y-18734524D01*
X8500238Y-18915476D02*
X8481190Y-18905952D01*
X8471667Y-18886905D01*
X8471667Y-18715476D01*
X8605000Y-18915476D02*
X8585952Y-18905952D01*
X8576429Y-18886905D01*
X8576429Y-18715476D01*
X8833571Y-18915476D02*
X8833571Y-18715476D01*
X8900238Y-18858333D01*
X8966905Y-18715476D01*
X8966905Y-18915476D01*
X9147857Y-18915476D02*
X9147857Y-18810714D01*
X9138333Y-18791667D01*
X9119286Y-18782143D01*
X9081190Y-18782143D01*
X9062143Y-18791667D01*
X9147857Y-18905952D02*
X9128810Y-18915476D01*
X9081190Y-18915476D01*
X9062143Y-18905952D01*
X9052619Y-18886905D01*
X9052619Y-18867857D01*
X9062143Y-18848810D01*
X9081190Y-18839286D01*
X9128810Y-18839286D01*
X9147857Y-18829762D01*
X9243095Y-18782143D02*
X9243095Y-18982143D01*
X9243095Y-18791667D02*
X9262143Y-18782143D01*
X9300238Y-18782143D01*
X9319286Y-18791667D01*
X9328810Y-18801190D01*
X9338333Y-18820238D01*
X9338333Y-18877381D01*
X9328810Y-18896429D01*
X9319286Y-18905952D01*
X9300238Y-18915476D01*
X9262143Y-18915476D01*
X9243095Y-18905952D01*
X9424048Y-18896429D02*
X9433571Y-18905952D01*
X9424048Y-18915476D01*
X9414524Y-18905952D01*
X9424048Y-18896429D01*
X9424048Y-18915476D01*
X9424048Y-18791667D02*
X9433571Y-18801190D01*
X9424048Y-18810714D01*
X9414524Y-18801190D01*
X9424048Y-18791667D01*
X9424048Y-18810714D01*
D12*
X7715000Y-19205000D02*
X7795000Y-19285000D01*
X7795000Y-19205000D02*
X7715000Y-19285000D01*
D11*
X8090714Y-19135476D02*
X8109762Y-19135476D01*
X8128809Y-19145000D01*
X8138333Y-19154524D01*
X8147857Y-19173571D01*
X8157381Y-19211667D01*
X8157381Y-19259286D01*
X8147857Y-19297381D01*
X8138333Y-19316429D01*
X8128809Y-19325952D01*
X8109762Y-19335476D01*
X8090714Y-19335476D01*
X8071667Y-19325952D01*
X8062143Y-19316429D01*
X8052619Y-19297381D01*
X8043095Y-19259286D01*
X8043095Y-19211667D01*
X8052619Y-19173571D01*
X8062143Y-19154524D01*
X8071667Y-19145000D01*
X8090714Y-19135476D01*
X8243095Y-19316429D02*
X8252619Y-19325952D01*
X8243095Y-19335476D01*
X8233571Y-19325952D01*
X8243095Y-19316429D01*
X8243095Y-19335476D01*
X8366905Y-19221190D02*
X8347857Y-19211667D01*
X8338333Y-19202143D01*
X8328809Y-19183095D01*
X8328809Y-19173571D01*
X8338333Y-19154524D01*
X8347857Y-19145000D01*
X8366905Y-19135476D01*
X8405000Y-19135476D01*
X8424048Y-19145000D01*
X8433571Y-19154524D01*
X8443095Y-19173571D01*
X8443095Y-19183095D01*
X8433571Y-19202143D01*
X8424048Y-19211667D01*
X8405000Y-19221190D01*
X8366905Y-19221190D01*
X8347857Y-19230714D01*
X8338333Y-19240238D01*
X8328809Y-19259286D01*
X8328809Y-19297381D01*
X8338333Y-19316429D01*
X8347857Y-19325952D01*
X8366905Y-19335476D01*
X8405000Y-19335476D01*
X8424048Y-19325952D01*
X8433571Y-19316429D01*
X8443095Y-19297381D01*
X8443095Y-19259286D01*
X8433571Y-19240238D01*
X8424048Y-19230714D01*
X8405000Y-19221190D01*
X8566905Y-19135476D02*
X8585952Y-19135476D01*
X8605000Y-19145000D01*
X8614524Y-19154524D01*
X8624048Y-19173571D01*
X8633571Y-19211667D01*
X8633571Y-19259286D01*
X8624048Y-19297381D01*
X8614524Y-19316429D01*
X8605000Y-19325952D01*
X8585952Y-19335476D01*
X8566905Y-19335476D01*
X8547857Y-19325952D01*
X8538333Y-19316429D01*
X8528810Y-19297381D01*
X8519286Y-19259286D01*
X8519286Y-19211667D01*
X8528810Y-19173571D01*
X8538333Y-19154524D01*
X8547857Y-19145000D01*
X8566905Y-19135476D01*
X8757381Y-19135476D02*
X8776429Y-19135476D01*
X8795476Y-19145000D01*
X8805000Y-19154524D01*
X8814524Y-19173571D01*
X8824048Y-19211667D01*
X8824048Y-19259286D01*
X8814524Y-19297381D01*
X8805000Y-19316429D01*
X8795476Y-19325952D01*
X8776429Y-19335476D01*
X8757381Y-19335476D01*
X8738333Y-19325952D01*
X8728810Y-19316429D01*
X8719286Y-19297381D01*
X8709762Y-19259286D01*
X8709762Y-19211667D01*
X8719286Y-19173571D01*
X8728810Y-19154524D01*
X8738333Y-19145000D01*
X8757381Y-19135476D01*
X8909762Y-19335476D02*
X8909762Y-19202143D01*
X8909762Y-19221190D02*
X8919286Y-19211667D01*
X8938333Y-19202143D01*
X8966905Y-19202143D01*
X8985952Y-19211667D01*
X8995476Y-19230714D01*
X8995476Y-19335476D01*
X8995476Y-19230714D02*
X9005000Y-19211667D01*
X9024048Y-19202143D01*
X9052619Y-19202143D01*
X9071667Y-19211667D01*
X9081190Y-19230714D01*
X9081190Y-19335476D01*
X9176429Y-19335476D02*
X9176429Y-19202143D01*
X9176429Y-19221190D02*
X9185952Y-19211667D01*
X9205000Y-19202143D01*
X9233571Y-19202143D01*
X9252619Y-19211667D01*
X9262143Y-19230714D01*
X9262143Y-19335476D01*
X9262143Y-19230714D02*
X9271667Y-19211667D01*
X9290714Y-19202143D01*
X9319286Y-19202143D01*
X9338333Y-19211667D01*
X9347857Y-19230714D01*
X9347857Y-19335476D01*
X9738333Y-19125952D02*
X9566905Y-19383095D01*
X9995476Y-19135476D02*
X10014524Y-19135476D01*
X10033571Y-19145000D01*
X10043095Y-19154524D01*
X10052619Y-19173571D01*
X10062143Y-19211667D01*
X10062143Y-19259286D01*
X10052619Y-19297381D01*
X10043095Y-19316429D01*
X10033571Y-19325952D01*
X10014524Y-19335476D01*
X9995476Y-19335476D01*
X9976429Y-19325952D01*
X9966905Y-19316429D01*
X9957381Y-19297381D01*
X9947857Y-19259286D01*
X9947857Y-19211667D01*
X9957381Y-19173571D01*
X9966905Y-19154524D01*
X9976429Y-19145000D01*
X9995476Y-19135476D01*
X10147857Y-19316429D02*
X10157381Y-19325952D01*
X10147857Y-19335476D01*
X10138333Y-19325952D01*
X10147857Y-19316429D01*
X10147857Y-19335476D01*
X10281190Y-19135476D02*
X10300238Y-19135476D01*
X10319286Y-19145000D01*
X10328810Y-19154524D01*
X10338333Y-19173571D01*
X10347857Y-19211667D01*
X10347857Y-19259286D01*
X10338333Y-19297381D01*
X10328810Y-19316429D01*
X10319286Y-19325952D01*
X10300238Y-19335476D01*
X10281190Y-19335476D01*
X10262143Y-19325952D01*
X10252619Y-19316429D01*
X10243095Y-19297381D01*
X10233571Y-19259286D01*
X10233571Y-19211667D01*
X10243095Y-19173571D01*
X10252619Y-19154524D01*
X10262143Y-19145000D01*
X10281190Y-19135476D01*
X10414524Y-19135476D02*
X10538333Y-19135476D01*
X10471667Y-19211667D01*
X10500238Y-19211667D01*
X10519286Y-19221190D01*
X10528810Y-19230714D01*
X10538333Y-19249762D01*
X10538333Y-19297381D01*
X10528810Y-19316429D01*
X10519286Y-19325952D01*
X10500238Y-19335476D01*
X10443095Y-19335476D01*
X10424048Y-19325952D01*
X10414524Y-19316429D01*
X10728810Y-19335476D02*
X10614524Y-19335476D01*
X10671667Y-19335476D02*
X10671667Y-19135476D01*
X10652619Y-19164048D01*
X10633571Y-19183095D01*
X10614524Y-19192619D01*
X10909762Y-19135476D02*
X10814524Y-19135476D01*
X10805000Y-19230714D01*
X10814524Y-19221190D01*
X10833571Y-19211667D01*
X10881190Y-19211667D01*
X10900238Y-19221190D01*
X10909762Y-19230714D01*
X10919286Y-19249762D01*
X10919286Y-19297381D01*
X10909762Y-19316429D01*
X10900238Y-19325952D01*
X10881190Y-19335476D01*
X10833571Y-19335476D01*
X10814524Y-19325952D01*
X10805000Y-19316429D01*
X10995476Y-19135476D02*
X10995476Y-19173571D01*
X11071667Y-19135476D02*
X11071667Y-19173571D01*
X11366905Y-19411667D02*
X11357381Y-19402143D01*
X11338333Y-19373571D01*
X11328809Y-19354524D01*
X11319286Y-19325952D01*
X11309762Y-19278333D01*
X11309762Y-19240238D01*
X11319286Y-19192619D01*
X11328809Y-19164048D01*
X11338333Y-19145000D01*
X11357381Y-19116429D01*
X11366905Y-19106905D01*
X11547857Y-19335476D02*
X11433571Y-19335476D01*
X11490714Y-19335476D02*
X11490714Y-19135476D01*
X11471667Y-19164048D01*
X11452619Y-19183095D01*
X11433571Y-19192619D01*
X11719286Y-19135476D02*
X11681190Y-19135476D01*
X11662143Y-19145000D01*
X11652619Y-19154524D01*
X11633571Y-19183095D01*
X11624048Y-19221190D01*
X11624048Y-19297381D01*
X11633571Y-19316429D01*
X11643095Y-19325952D01*
X11662143Y-19335476D01*
X11700238Y-19335476D01*
X11719286Y-19325952D01*
X11728809Y-19316429D01*
X11738333Y-19297381D01*
X11738333Y-19249762D01*
X11728809Y-19230714D01*
X11719286Y-19221190D01*
X11700238Y-19211667D01*
X11662143Y-19211667D01*
X11643095Y-19221190D01*
X11633571Y-19230714D01*
X11624048Y-19249762D01*
X11976428Y-19335476D02*
X11976428Y-19135476D01*
X12062143Y-19335476D02*
X12062143Y-19230714D01*
X12052619Y-19211667D01*
X12033571Y-19202143D01*
X12005000Y-19202143D01*
X11985952Y-19211667D01*
X11976428Y-19221190D01*
X12185952Y-19335476D02*
X12166905Y-19325952D01*
X12157381Y-19316429D01*
X12147857Y-19297381D01*
X12147857Y-19240238D01*
X12157381Y-19221190D01*
X12166905Y-19211667D01*
X12185952Y-19202143D01*
X12214524Y-19202143D01*
X12233571Y-19211667D01*
X12243095Y-19221190D01*
X12252619Y-19240238D01*
X12252619Y-19297381D01*
X12243095Y-19316429D01*
X12233571Y-19325952D01*
X12214524Y-19335476D01*
X12185952Y-19335476D01*
X12366905Y-19335476D02*
X12347857Y-19325952D01*
X12338333Y-19306905D01*
X12338333Y-19135476D01*
X12519286Y-19325952D02*
X12500238Y-19335476D01*
X12462143Y-19335476D01*
X12443095Y-19325952D01*
X12433571Y-19306905D01*
X12433571Y-19230714D01*
X12443095Y-19211667D01*
X12462143Y-19202143D01*
X12500238Y-19202143D01*
X12519286Y-19211667D01*
X12528809Y-19230714D01*
X12528809Y-19249762D01*
X12433571Y-19268810D01*
X12605000Y-19325952D02*
X12624048Y-19335476D01*
X12662143Y-19335476D01*
X12681190Y-19325952D01*
X12690714Y-19306905D01*
X12690714Y-19297381D01*
X12681190Y-19278333D01*
X12662143Y-19268810D01*
X12633571Y-19268810D01*
X12614524Y-19259286D01*
X12605000Y-19240238D01*
X12605000Y-19230714D01*
X12614524Y-19211667D01*
X12633571Y-19202143D01*
X12662143Y-19202143D01*
X12681190Y-19211667D01*
X12757381Y-19411667D02*
X12766905Y-19402143D01*
X12785952Y-19373571D01*
X12795476Y-19354524D01*
X12805000Y-19325952D01*
X12814524Y-19278333D01*
X12814524Y-19240238D01*
X12805000Y-19192619D01*
X12795476Y-19164048D01*
X12785952Y-19145000D01*
X12766905Y-19116429D01*
X12757381Y-19106905D01*
D13*
X7795000Y-19509000D02*
G75*
G03*
X7795000Y-19509000I-45000J0D01*
G01*
D11*
X8090714Y-19399476D02*
X8109762Y-19399476D01*
X8128809Y-19409000D01*
X8138333Y-19418524D01*
X8147857Y-19437571D01*
X8157381Y-19475667D01*
X8157381Y-19523286D01*
X8147857Y-19561381D01*
X8138333Y-19580429D01*
X8128809Y-19589952D01*
X8109762Y-19599476D01*
X8090714Y-19599476D01*
X8071667Y-19589952D01*
X8062143Y-19580429D01*
X8052619Y-19561381D01*
X8043095Y-19523286D01*
X8043095Y-19475667D01*
X8052619Y-19437571D01*
X8062143Y-19418524D01*
X8071667Y-19409000D01*
X8090714Y-19399476D01*
X8243095Y-19580429D02*
X8252619Y-19589952D01*
X8243095Y-19599476D01*
X8233571Y-19589952D01*
X8243095Y-19580429D01*
X8243095Y-19599476D01*
X8347857Y-19599476D02*
X8385952Y-19599476D01*
X8405000Y-19589952D01*
X8414524Y-19580429D01*
X8433571Y-19551857D01*
X8443095Y-19513762D01*
X8443095Y-19437571D01*
X8433571Y-19418524D01*
X8424048Y-19409000D01*
X8405000Y-19399476D01*
X8366905Y-19399476D01*
X8347857Y-19409000D01*
X8338333Y-19418524D01*
X8328809Y-19437571D01*
X8328809Y-19485190D01*
X8338333Y-19504238D01*
X8347857Y-19513762D01*
X8366905Y-19523286D01*
X8405000Y-19523286D01*
X8424048Y-19513762D01*
X8433571Y-19504238D01*
X8443095Y-19485190D01*
X8566905Y-19399476D02*
X8585952Y-19399476D01*
X8605000Y-19409000D01*
X8614524Y-19418524D01*
X8624048Y-19437571D01*
X8633571Y-19475667D01*
X8633571Y-19523286D01*
X8624048Y-19561381D01*
X8614524Y-19580429D01*
X8605000Y-19589952D01*
X8585952Y-19599476D01*
X8566905Y-19599476D01*
X8547857Y-19589952D01*
X8538333Y-19580429D01*
X8528810Y-19561381D01*
X8519286Y-19523286D01*
X8519286Y-19475667D01*
X8528810Y-19437571D01*
X8538333Y-19418524D01*
X8547857Y-19409000D01*
X8566905Y-19399476D01*
X8757381Y-19399476D02*
X8776429Y-19399476D01*
X8795476Y-19409000D01*
X8805000Y-19418524D01*
X8814524Y-19437571D01*
X8824048Y-19475667D01*
X8824048Y-19523286D01*
X8814524Y-19561381D01*
X8805000Y-19580429D01*
X8795476Y-19589952D01*
X8776429Y-19599476D01*
X8757381Y-19599476D01*
X8738333Y-19589952D01*
X8728810Y-19580429D01*
X8719286Y-19561381D01*
X8709762Y-19523286D01*
X8709762Y-19475667D01*
X8719286Y-19437571D01*
X8728810Y-19418524D01*
X8738333Y-19409000D01*
X8757381Y-19399476D01*
X8909762Y-19599476D02*
X8909762Y-19466143D01*
X8909762Y-19485190D02*
X8919286Y-19475667D01*
X8938333Y-19466143D01*
X8966905Y-19466143D01*
X8985952Y-19475667D01*
X8995476Y-19494714D01*
X8995476Y-19599476D01*
X8995476Y-19494714D02*
X9005000Y-19475667D01*
X9024048Y-19466143D01*
X9052619Y-19466143D01*
X9071667Y-19475667D01*
X9081190Y-19494714D01*
X9081190Y-19599476D01*
X9176429Y-19599476D02*
X9176429Y-19466143D01*
X9176429Y-19485190D02*
X9185952Y-19475667D01*
X9205000Y-19466143D01*
X9233571Y-19466143D01*
X9252619Y-19475667D01*
X9262143Y-19494714D01*
X9262143Y-19599476D01*
X9262143Y-19494714D02*
X9271667Y-19475667D01*
X9290714Y-19466143D01*
X9319286Y-19466143D01*
X9338333Y-19475667D01*
X9347857Y-19494714D01*
X9347857Y-19599476D01*
X9738333Y-19389952D02*
X9566905Y-19647095D01*
X9995476Y-19399476D02*
X10014524Y-19399476D01*
X10033571Y-19409000D01*
X10043095Y-19418524D01*
X10052619Y-19437571D01*
X10062143Y-19475667D01*
X10062143Y-19523286D01*
X10052619Y-19561381D01*
X10043095Y-19580429D01*
X10033571Y-19589952D01*
X10014524Y-19599476D01*
X9995476Y-19599476D01*
X9976429Y-19589952D01*
X9966905Y-19580429D01*
X9957381Y-19561381D01*
X9947857Y-19523286D01*
X9947857Y-19475667D01*
X9957381Y-19437571D01*
X9966905Y-19418524D01*
X9976429Y-19409000D01*
X9995476Y-19399476D01*
X10147857Y-19580429D02*
X10157381Y-19589952D01*
X10147857Y-19599476D01*
X10138333Y-19589952D01*
X10147857Y-19580429D01*
X10147857Y-19599476D01*
X10281190Y-19399476D02*
X10300238Y-19399476D01*
X10319286Y-19409000D01*
X10328810Y-19418524D01*
X10338333Y-19437571D01*
X10347857Y-19475667D01*
X10347857Y-19523286D01*
X10338333Y-19561381D01*
X10328810Y-19580429D01*
X10319286Y-19589952D01*
X10300238Y-19599476D01*
X10281190Y-19599476D01*
X10262143Y-19589952D01*
X10252619Y-19580429D01*
X10243095Y-19561381D01*
X10233571Y-19523286D01*
X10233571Y-19475667D01*
X10243095Y-19437571D01*
X10252619Y-19418524D01*
X10262143Y-19409000D01*
X10281190Y-19399476D01*
X10414524Y-19399476D02*
X10538333Y-19399476D01*
X10471667Y-19475667D01*
X10500238Y-19475667D01*
X10519286Y-19485190D01*
X10528810Y-19494714D01*
X10538333Y-19513762D01*
X10538333Y-19561381D01*
X10528810Y-19580429D01*
X10519286Y-19589952D01*
X10500238Y-19599476D01*
X10443095Y-19599476D01*
X10424048Y-19589952D01*
X10414524Y-19580429D01*
X10719286Y-19399476D02*
X10624048Y-19399476D01*
X10614524Y-19494714D01*
X10624048Y-19485190D01*
X10643095Y-19475667D01*
X10690714Y-19475667D01*
X10709762Y-19485190D01*
X10719286Y-19494714D01*
X10728810Y-19513762D01*
X10728810Y-19561381D01*
X10719286Y-19580429D01*
X10709762Y-19589952D01*
X10690714Y-19599476D01*
X10643095Y-19599476D01*
X10624048Y-19589952D01*
X10614524Y-19580429D01*
X10900238Y-19466143D02*
X10900238Y-19599476D01*
X10852619Y-19389952D02*
X10805000Y-19532810D01*
X10928810Y-19532810D01*
X10995476Y-19399476D02*
X10995476Y-19437571D01*
X11071667Y-19399476D02*
X11071667Y-19437571D01*
X11366905Y-19675667D02*
X11357381Y-19666143D01*
X11338333Y-19637571D01*
X11328809Y-19618524D01*
X11319286Y-19589952D01*
X11309762Y-19542333D01*
X11309762Y-19504238D01*
X11319286Y-19456619D01*
X11328809Y-19428048D01*
X11338333Y-19409000D01*
X11357381Y-19380429D01*
X11366905Y-19370905D01*
X11528809Y-19399476D02*
X11490714Y-19399476D01*
X11471667Y-19409000D01*
X11462143Y-19418524D01*
X11443095Y-19447095D01*
X11433571Y-19485190D01*
X11433571Y-19561381D01*
X11443095Y-19580429D01*
X11452619Y-19589952D01*
X11471667Y-19599476D01*
X11509762Y-19599476D01*
X11528809Y-19589952D01*
X11538333Y-19580429D01*
X11547857Y-19561381D01*
X11547857Y-19513762D01*
X11538333Y-19494714D01*
X11528809Y-19485190D01*
X11509762Y-19475667D01*
X11471667Y-19475667D01*
X11452619Y-19485190D01*
X11443095Y-19494714D01*
X11433571Y-19513762D01*
X11785952Y-19599476D02*
X11785952Y-19399476D01*
X11871667Y-19599476D02*
X11871667Y-19494714D01*
X11862143Y-19475667D01*
X11843095Y-19466143D01*
X11814524Y-19466143D01*
X11795476Y-19475667D01*
X11785952Y-19485190D01*
X11995476Y-19599476D02*
X11976428Y-19589952D01*
X11966905Y-19580429D01*
X11957381Y-19561381D01*
X11957381Y-19504238D01*
X11966905Y-19485190D01*
X11976428Y-19475667D01*
X11995476Y-19466143D01*
X12024048Y-19466143D01*
X12043095Y-19475667D01*
X12052619Y-19485190D01*
X12062143Y-19504238D01*
X12062143Y-19561381D01*
X12052619Y-19580429D01*
X12043095Y-19589952D01*
X12024048Y-19599476D01*
X11995476Y-19599476D01*
X12176428Y-19599476D02*
X12157381Y-19589952D01*
X12147857Y-19570905D01*
X12147857Y-19399476D01*
X12328809Y-19589952D02*
X12309762Y-19599476D01*
X12271667Y-19599476D01*
X12252619Y-19589952D01*
X12243095Y-19570905D01*
X12243095Y-19494714D01*
X12252619Y-19475667D01*
X12271667Y-19466143D01*
X12309762Y-19466143D01*
X12328809Y-19475667D01*
X12338333Y-19494714D01*
X12338333Y-19513762D01*
X12243095Y-19532810D01*
X12414524Y-19589952D02*
X12433571Y-19599476D01*
X12471667Y-19599476D01*
X12490714Y-19589952D01*
X12500238Y-19570905D01*
X12500238Y-19561381D01*
X12490714Y-19542333D01*
X12471667Y-19532810D01*
X12443095Y-19532810D01*
X12424048Y-19523286D01*
X12414524Y-19504238D01*
X12414524Y-19494714D01*
X12424048Y-19475667D01*
X12443095Y-19466143D01*
X12471667Y-19466143D01*
X12490714Y-19475667D01*
X12566905Y-19675667D02*
X12576428Y-19666143D01*
X12595476Y-19637571D01*
X12605000Y-19618524D01*
X12614524Y-19589952D01*
X12624048Y-19542333D01*
X12624048Y-19504238D01*
X12614524Y-19456619D01*
X12605000Y-19428048D01*
X12595476Y-19409000D01*
X12576428Y-19380429D01*
X12566905Y-19370905D01*
D14*
X7745000Y-19723000D02*
X7745000Y-19823000D01*
X7695000Y-19773000D02*
X7795000Y-19773000D01*
D11*
X8157381Y-19863476D02*
X8043095Y-19863476D01*
X8100238Y-19863476D02*
X8100238Y-19663476D01*
X8081190Y-19692048D01*
X8062143Y-19711095D01*
X8043095Y-19720619D01*
X8243095Y-19844429D02*
X8252619Y-19853952D01*
X8243095Y-19863476D01*
X8233571Y-19853952D01*
X8243095Y-19844429D01*
X8243095Y-19863476D01*
X8376428Y-19663476D02*
X8395476Y-19663476D01*
X8414524Y-19673000D01*
X8424048Y-19682524D01*
X8433571Y-19701571D01*
X8443095Y-19739667D01*
X8443095Y-19787286D01*
X8433571Y-19825381D01*
X8424048Y-19844429D01*
X8414524Y-19853952D01*
X8395476Y-19863476D01*
X8376428Y-19863476D01*
X8357381Y-19853952D01*
X8347857Y-19844429D01*
X8338333Y-19825381D01*
X8328809Y-19787286D01*
X8328809Y-19739667D01*
X8338333Y-19701571D01*
X8347857Y-19682524D01*
X8357381Y-19673000D01*
X8376428Y-19663476D01*
X8566905Y-19663476D02*
X8585952Y-19663476D01*
X8605000Y-19673000D01*
X8614524Y-19682524D01*
X8624048Y-19701571D01*
X8633571Y-19739667D01*
X8633571Y-19787286D01*
X8624048Y-19825381D01*
X8614524Y-19844429D01*
X8605000Y-19853952D01*
X8585952Y-19863476D01*
X8566905Y-19863476D01*
X8547857Y-19853952D01*
X8538333Y-19844429D01*
X8528810Y-19825381D01*
X8519286Y-19787286D01*
X8519286Y-19739667D01*
X8528810Y-19701571D01*
X8538333Y-19682524D01*
X8547857Y-19673000D01*
X8566905Y-19663476D01*
X8757381Y-19663476D02*
X8776429Y-19663476D01*
X8795476Y-19673000D01*
X8805000Y-19682524D01*
X8814524Y-19701571D01*
X8824048Y-19739667D01*
X8824048Y-19787286D01*
X8814524Y-19825381D01*
X8805000Y-19844429D01*
X8795476Y-19853952D01*
X8776429Y-19863476D01*
X8757381Y-19863476D01*
X8738333Y-19853952D01*
X8728810Y-19844429D01*
X8719286Y-19825381D01*
X8709762Y-19787286D01*
X8709762Y-19739667D01*
X8719286Y-19701571D01*
X8728810Y-19682524D01*
X8738333Y-19673000D01*
X8757381Y-19663476D01*
X8909762Y-19863476D02*
X8909762Y-19730143D01*
X8909762Y-19749190D02*
X8919286Y-19739667D01*
X8938333Y-19730143D01*
X8966905Y-19730143D01*
X8985952Y-19739667D01*
X8995476Y-19758714D01*
X8995476Y-19863476D01*
X8995476Y-19758714D02*
X9005000Y-19739667D01*
X9024048Y-19730143D01*
X9052619Y-19730143D01*
X9071667Y-19739667D01*
X9081190Y-19758714D01*
X9081190Y-19863476D01*
X9176429Y-19863476D02*
X9176429Y-19730143D01*
X9176429Y-19749190D02*
X9185952Y-19739667D01*
X9205000Y-19730143D01*
X9233571Y-19730143D01*
X9252619Y-19739667D01*
X9262143Y-19758714D01*
X9262143Y-19863476D01*
X9262143Y-19758714D02*
X9271667Y-19739667D01*
X9290714Y-19730143D01*
X9319286Y-19730143D01*
X9338333Y-19739667D01*
X9347857Y-19758714D01*
X9347857Y-19863476D01*
X9738333Y-19653952D02*
X9566905Y-19911095D01*
X9995476Y-19663476D02*
X10014524Y-19663476D01*
X10033571Y-19673000D01*
X10043095Y-19682524D01*
X10052619Y-19701571D01*
X10062143Y-19739667D01*
X10062143Y-19787286D01*
X10052619Y-19825381D01*
X10043095Y-19844429D01*
X10033571Y-19853952D01*
X10014524Y-19863476D01*
X9995476Y-19863476D01*
X9976429Y-19853952D01*
X9966905Y-19844429D01*
X9957381Y-19825381D01*
X9947857Y-19787286D01*
X9947857Y-19739667D01*
X9957381Y-19701571D01*
X9966905Y-19682524D01*
X9976429Y-19673000D01*
X9995476Y-19663476D01*
X10147857Y-19844429D02*
X10157381Y-19853952D01*
X10147857Y-19863476D01*
X10138333Y-19853952D01*
X10147857Y-19844429D01*
X10147857Y-19863476D01*
X10281190Y-19663476D02*
X10300238Y-19663476D01*
X10319286Y-19673000D01*
X10328810Y-19682524D01*
X10338333Y-19701571D01*
X10347857Y-19739667D01*
X10347857Y-19787286D01*
X10338333Y-19825381D01*
X10328810Y-19844429D01*
X10319286Y-19853952D01*
X10300238Y-19863476D01*
X10281190Y-19863476D01*
X10262143Y-19853952D01*
X10252619Y-19844429D01*
X10243095Y-19825381D01*
X10233571Y-19787286D01*
X10233571Y-19739667D01*
X10243095Y-19701571D01*
X10252619Y-19682524D01*
X10262143Y-19673000D01*
X10281190Y-19663476D01*
X10414524Y-19663476D02*
X10538333Y-19663476D01*
X10471667Y-19739667D01*
X10500238Y-19739667D01*
X10519286Y-19749190D01*
X10528810Y-19758714D01*
X10538333Y-19777762D01*
X10538333Y-19825381D01*
X10528810Y-19844429D01*
X10519286Y-19853952D01*
X10500238Y-19863476D01*
X10443095Y-19863476D01*
X10424048Y-19853952D01*
X10414524Y-19844429D01*
X10633571Y-19863476D02*
X10671667Y-19863476D01*
X10690714Y-19853952D01*
X10700238Y-19844429D01*
X10719286Y-19815857D01*
X10728810Y-19777762D01*
X10728810Y-19701571D01*
X10719286Y-19682524D01*
X10709762Y-19673000D01*
X10690714Y-19663476D01*
X10652619Y-19663476D01*
X10633571Y-19673000D01*
X10624048Y-19682524D01*
X10614524Y-19701571D01*
X10614524Y-19749190D01*
X10624048Y-19768238D01*
X10633571Y-19777762D01*
X10652619Y-19787286D01*
X10690714Y-19787286D01*
X10709762Y-19777762D01*
X10719286Y-19768238D01*
X10728810Y-19749190D01*
X10900238Y-19730143D02*
X10900238Y-19863476D01*
X10852619Y-19653952D02*
X10805000Y-19796810D01*
X10928810Y-19796810D01*
X10995476Y-19663476D02*
X10995476Y-19701571D01*
X11071667Y-19663476D02*
X11071667Y-19701571D01*
X11366905Y-19939667D02*
X11357381Y-19930143D01*
X11338333Y-19901571D01*
X11328809Y-19882524D01*
X11319286Y-19853952D01*
X11309762Y-19806333D01*
X11309762Y-19768238D01*
X11319286Y-19720619D01*
X11328809Y-19692048D01*
X11338333Y-19673000D01*
X11357381Y-19644429D01*
X11366905Y-19634905D01*
X11424048Y-19663476D02*
X11547857Y-19663476D01*
X11481190Y-19739667D01*
X11509762Y-19739667D01*
X11528809Y-19749190D01*
X11538333Y-19758714D01*
X11547857Y-19777762D01*
X11547857Y-19825381D01*
X11538333Y-19844429D01*
X11528809Y-19853952D01*
X11509762Y-19863476D01*
X11452619Y-19863476D01*
X11433571Y-19853952D01*
X11424048Y-19844429D01*
X11728809Y-19663476D02*
X11633571Y-19663476D01*
X11624048Y-19758714D01*
X11633571Y-19749190D01*
X11652619Y-19739667D01*
X11700238Y-19739667D01*
X11719286Y-19749190D01*
X11728809Y-19758714D01*
X11738333Y-19777762D01*
X11738333Y-19825381D01*
X11728809Y-19844429D01*
X11719286Y-19853952D01*
X11700238Y-19863476D01*
X11652619Y-19863476D01*
X11633571Y-19853952D01*
X11624048Y-19844429D01*
X11976428Y-19863476D02*
X11976428Y-19663476D01*
X12062143Y-19863476D02*
X12062143Y-19758714D01*
X12052619Y-19739667D01*
X12033571Y-19730143D01*
X12005000Y-19730143D01*
X11985952Y-19739667D01*
X11976428Y-19749190D01*
X12185952Y-19863476D02*
X12166905Y-19853952D01*
X12157381Y-19844429D01*
X12147857Y-19825381D01*
X12147857Y-19768238D01*
X12157381Y-19749190D01*
X12166905Y-19739667D01*
X12185952Y-19730143D01*
X12214524Y-19730143D01*
X12233571Y-19739667D01*
X12243095Y-19749190D01*
X12252619Y-19768238D01*
X12252619Y-19825381D01*
X12243095Y-19844429D01*
X12233571Y-19853952D01*
X12214524Y-19863476D01*
X12185952Y-19863476D01*
X12366905Y-19863476D02*
X12347857Y-19853952D01*
X12338333Y-19834905D01*
X12338333Y-19663476D01*
X12519286Y-19853952D02*
X12500238Y-19863476D01*
X12462143Y-19863476D01*
X12443095Y-19853952D01*
X12433571Y-19834905D01*
X12433571Y-19758714D01*
X12443095Y-19739667D01*
X12462143Y-19730143D01*
X12500238Y-19730143D01*
X12519286Y-19739667D01*
X12528809Y-19758714D01*
X12528809Y-19777762D01*
X12433571Y-19796810D01*
X12605000Y-19853952D02*
X12624048Y-19863476D01*
X12662143Y-19863476D01*
X12681190Y-19853952D01*
X12690714Y-19834905D01*
X12690714Y-19825381D01*
X12681190Y-19806333D01*
X12662143Y-19796810D01*
X12633571Y-19796810D01*
X12614524Y-19787286D01*
X12605000Y-19768238D01*
X12605000Y-19758714D01*
X12614524Y-19739667D01*
X12633571Y-19730143D01*
X12662143Y-19730143D01*
X12681190Y-19739667D01*
X12757381Y-19939667D02*
X12766905Y-19930143D01*
X12785952Y-19901571D01*
X12795476Y-19882524D01*
X12805000Y-19853952D01*
X12814524Y-19806333D01*
X12814524Y-19768238D01*
X12805000Y-19720619D01*
X12795476Y-19692048D01*
X12785952Y-19673000D01*
X12766905Y-19644429D01*
X12757381Y-19634905D01*
D15*
X7775962Y-20082962D02*
X7775962Y-19991038D01*
X7684038Y-19991038D01*
X7684038Y-20082962D01*
X7775962Y-20082962D01*
D11*
X8157381Y-20127476D02*
X8043095Y-20127476D01*
X8100238Y-20127476D02*
X8100238Y-19927476D01*
X8081190Y-19956048D01*
X8062143Y-19975095D01*
X8043095Y-19984619D01*
X8243095Y-20108429D02*
X8252619Y-20117952D01*
X8243095Y-20127476D01*
X8233571Y-20117952D01*
X8243095Y-20108429D01*
X8243095Y-20127476D01*
X8319286Y-19927476D02*
X8443095Y-19927476D01*
X8376428Y-20003667D01*
X8405000Y-20003667D01*
X8424048Y-20013190D01*
X8433571Y-20022714D01*
X8443095Y-20041762D01*
X8443095Y-20089381D01*
X8433571Y-20108429D01*
X8424048Y-20117952D01*
X8405000Y-20127476D01*
X8347857Y-20127476D01*
X8328809Y-20117952D01*
X8319286Y-20108429D01*
X8566905Y-19927476D02*
X8585952Y-19927476D01*
X8605000Y-19937000D01*
X8614524Y-19946524D01*
X8624048Y-19965571D01*
X8633571Y-20003667D01*
X8633571Y-20051286D01*
X8624048Y-20089381D01*
X8614524Y-20108429D01*
X8605000Y-20117952D01*
X8585952Y-20127476D01*
X8566905Y-20127476D01*
X8547857Y-20117952D01*
X8538333Y-20108429D01*
X8528810Y-20089381D01*
X8519286Y-20051286D01*
X8519286Y-20003667D01*
X8528810Y-19965571D01*
X8538333Y-19946524D01*
X8547857Y-19937000D01*
X8566905Y-19927476D01*
X8757381Y-19927476D02*
X8776429Y-19927476D01*
X8795476Y-19937000D01*
X8805000Y-19946524D01*
X8814524Y-19965571D01*
X8824048Y-20003667D01*
X8824048Y-20051286D01*
X8814524Y-20089381D01*
X8805000Y-20108429D01*
X8795476Y-20117952D01*
X8776429Y-20127476D01*
X8757381Y-20127476D01*
X8738333Y-20117952D01*
X8728810Y-20108429D01*
X8719286Y-20089381D01*
X8709762Y-20051286D01*
X8709762Y-20003667D01*
X8719286Y-19965571D01*
X8728810Y-19946524D01*
X8738333Y-19937000D01*
X8757381Y-19927476D01*
X8909762Y-20127476D02*
X8909762Y-19994143D01*
X8909762Y-20013190D02*
X8919286Y-20003667D01*
X8938333Y-19994143D01*
X8966905Y-19994143D01*
X8985952Y-20003667D01*
X8995476Y-20022714D01*
X8995476Y-20127476D01*
X8995476Y-20022714D02*
X9005000Y-20003667D01*
X9024048Y-19994143D01*
X9052619Y-19994143D01*
X9071667Y-20003667D01*
X9081190Y-20022714D01*
X9081190Y-20127476D01*
X9176429Y-20127476D02*
X9176429Y-19994143D01*
X9176429Y-20013190D02*
X9185952Y-20003667D01*
X9205000Y-19994143D01*
X9233571Y-19994143D01*
X9252619Y-20003667D01*
X9262143Y-20022714D01*
X9262143Y-20127476D01*
X9262143Y-20022714D02*
X9271667Y-20003667D01*
X9290714Y-19994143D01*
X9319286Y-19994143D01*
X9338333Y-20003667D01*
X9347857Y-20022714D01*
X9347857Y-20127476D01*
X9738333Y-19917952D02*
X9566905Y-20175095D01*
X9995476Y-19927476D02*
X10014524Y-19927476D01*
X10033571Y-19937000D01*
X10043095Y-19946524D01*
X10052619Y-19965571D01*
X10062143Y-20003667D01*
X10062143Y-20051286D01*
X10052619Y-20089381D01*
X10043095Y-20108429D01*
X10033571Y-20117952D01*
X10014524Y-20127476D01*
X9995476Y-20127476D01*
X9976429Y-20117952D01*
X9966905Y-20108429D01*
X9957381Y-20089381D01*
X9947857Y-20051286D01*
X9947857Y-20003667D01*
X9957381Y-19965571D01*
X9966905Y-19946524D01*
X9976429Y-19937000D01*
X9995476Y-19927476D01*
X10147857Y-20108429D02*
X10157381Y-20117952D01*
X10147857Y-20127476D01*
X10138333Y-20117952D01*
X10147857Y-20108429D01*
X10147857Y-20127476D01*
X10281190Y-19927476D02*
X10300238Y-19927476D01*
X10319286Y-19937000D01*
X10328810Y-19946524D01*
X10338333Y-19965571D01*
X10347857Y-20003667D01*
X10347857Y-20051286D01*
X10338333Y-20089381D01*
X10328810Y-20108429D01*
X10319286Y-20117952D01*
X10300238Y-20127476D01*
X10281190Y-20127476D01*
X10262143Y-20117952D01*
X10252619Y-20108429D01*
X10243095Y-20089381D01*
X10233571Y-20051286D01*
X10233571Y-20003667D01*
X10243095Y-19965571D01*
X10252619Y-19946524D01*
X10262143Y-19937000D01*
X10281190Y-19927476D01*
X10528810Y-19927476D02*
X10433571Y-19927476D01*
X10424048Y-20022714D01*
X10433571Y-20013190D01*
X10452619Y-20003667D01*
X10500238Y-20003667D01*
X10519286Y-20013190D01*
X10528810Y-20022714D01*
X10538333Y-20041762D01*
X10538333Y-20089381D01*
X10528810Y-20108429D01*
X10519286Y-20117952D01*
X10500238Y-20127476D01*
X10452619Y-20127476D01*
X10433571Y-20117952D01*
X10424048Y-20108429D01*
X10728810Y-20127476D02*
X10614524Y-20127476D01*
X10671667Y-20127476D02*
X10671667Y-19927476D01*
X10652619Y-19956048D01*
X10633571Y-19975095D01*
X10614524Y-19984619D01*
X10805000Y-19946524D02*
X10814524Y-19937000D01*
X10833571Y-19927476D01*
X10881190Y-19927476D01*
X10900238Y-19937000D01*
X10909762Y-19946524D01*
X10919286Y-19965571D01*
X10919286Y-19984619D01*
X10909762Y-20013190D01*
X10795476Y-20127476D01*
X10919286Y-20127476D01*
X10995476Y-19927476D02*
X10995476Y-19965571D01*
X11071667Y-19927476D02*
X11071667Y-19965571D01*
X11366905Y-20203667D02*
X11357381Y-20194143D01*
X11338333Y-20165571D01*
X11328809Y-20146524D01*
X11319286Y-20117952D01*
X11309762Y-20070333D01*
X11309762Y-20032238D01*
X11319286Y-19984619D01*
X11328809Y-19956048D01*
X11338333Y-19937000D01*
X11357381Y-19908429D01*
X11366905Y-19898905D01*
X11481190Y-19927476D02*
X11500238Y-19927476D01*
X11519286Y-19937000D01*
X11528809Y-19946524D01*
X11538333Y-19965571D01*
X11547857Y-20003667D01*
X11547857Y-20051286D01*
X11538333Y-20089381D01*
X11528809Y-20108429D01*
X11519286Y-20117952D01*
X11500238Y-20127476D01*
X11481190Y-20127476D01*
X11462143Y-20117952D01*
X11452619Y-20108429D01*
X11443095Y-20089381D01*
X11433571Y-20051286D01*
X11433571Y-20003667D01*
X11443095Y-19965571D01*
X11452619Y-19946524D01*
X11462143Y-19937000D01*
X11481190Y-19927476D01*
X11785952Y-20127476D02*
X11785952Y-19927476D01*
X11871667Y-20127476D02*
X11871667Y-20022714D01*
X11862143Y-20003667D01*
X11843095Y-19994143D01*
X11814524Y-19994143D01*
X11795476Y-20003667D01*
X11785952Y-20013190D01*
X11995476Y-20127476D02*
X11976428Y-20117952D01*
X11966905Y-20108429D01*
X11957381Y-20089381D01*
X11957381Y-20032238D01*
X11966905Y-20013190D01*
X11976428Y-20003667D01*
X11995476Y-19994143D01*
X12024048Y-19994143D01*
X12043095Y-20003667D01*
X12052619Y-20013190D01*
X12062143Y-20032238D01*
X12062143Y-20089381D01*
X12052619Y-20108429D01*
X12043095Y-20117952D01*
X12024048Y-20127476D01*
X11995476Y-20127476D01*
X12176428Y-20127476D02*
X12157381Y-20117952D01*
X12147857Y-20098905D01*
X12147857Y-19927476D01*
X12328809Y-20117952D02*
X12309762Y-20127476D01*
X12271667Y-20127476D01*
X12252619Y-20117952D01*
X12243095Y-20098905D01*
X12243095Y-20022714D01*
X12252619Y-20003667D01*
X12271667Y-19994143D01*
X12309762Y-19994143D01*
X12328809Y-20003667D01*
X12338333Y-20022714D01*
X12338333Y-20041762D01*
X12243095Y-20060810D01*
X12414524Y-20117952D02*
X12433571Y-20127476D01*
X12471667Y-20127476D01*
X12490714Y-20117952D01*
X12500238Y-20098905D01*
X12500238Y-20089381D01*
X12490714Y-20070333D01*
X12471667Y-20060810D01*
X12443095Y-20060810D01*
X12424048Y-20051286D01*
X12414524Y-20032238D01*
X12414524Y-20022714D01*
X12424048Y-20003667D01*
X12443095Y-19994143D01*
X12471667Y-19994143D01*
X12490714Y-20003667D01*
X12738333Y-20051286D02*
X12890714Y-20051286D01*
X12814524Y-20127476D02*
X12814524Y-19975095D01*
X13224048Y-19927476D02*
X13185952Y-19927476D01*
X13166905Y-19937000D01*
X13157381Y-19946524D01*
X13138333Y-19975095D01*
X13128809Y-20013190D01*
X13128809Y-20089381D01*
X13138333Y-20108429D01*
X13147857Y-20117952D01*
X13166905Y-20127476D01*
X13205000Y-20127476D01*
X13224048Y-20117952D01*
X13233571Y-20108429D01*
X13243095Y-20089381D01*
X13243095Y-20041762D01*
X13233571Y-20022714D01*
X13224048Y-20013190D01*
X13205000Y-20003667D01*
X13166905Y-20003667D01*
X13147857Y-20013190D01*
X13138333Y-20022714D01*
X13128809Y-20041762D01*
X13471667Y-20117952D02*
X13490714Y-20127476D01*
X13528809Y-20127476D01*
X13547857Y-20117952D01*
X13557381Y-20098905D01*
X13557381Y-20089381D01*
X13547857Y-20070333D01*
X13528809Y-20060810D01*
X13500238Y-20060810D01*
X13481190Y-20051286D01*
X13471667Y-20032238D01*
X13471667Y-20022714D01*
X13481190Y-20003667D01*
X13500238Y-19994143D01*
X13528809Y-19994143D01*
X13547857Y-20003667D01*
X13671667Y-20127476D02*
X13652619Y-20117952D01*
X13643095Y-20098905D01*
X13643095Y-19927476D01*
X13776428Y-20127476D02*
X13757381Y-20117952D01*
X13747857Y-20108429D01*
X13738333Y-20089381D01*
X13738333Y-20032238D01*
X13747857Y-20013190D01*
X13757381Y-20003667D01*
X13776428Y-19994143D01*
X13805000Y-19994143D01*
X13824048Y-20003667D01*
X13833571Y-20013190D01*
X13843095Y-20032238D01*
X13843095Y-20089381D01*
X13833571Y-20108429D01*
X13824048Y-20117952D01*
X13805000Y-20127476D01*
X13776428Y-20127476D01*
X13900238Y-19994143D02*
X13976428Y-19994143D01*
X13928809Y-19927476D02*
X13928809Y-20098905D01*
X13938333Y-20117952D01*
X13957381Y-20127476D01*
X13976428Y-20127476D01*
X14033571Y-20117952D02*
X14052619Y-20127476D01*
X14090714Y-20127476D01*
X14109762Y-20117952D01*
X14119286Y-20098905D01*
X14119286Y-20089381D01*
X14109762Y-20070333D01*
X14090714Y-20060810D01*
X14062143Y-20060810D01*
X14043095Y-20051286D01*
X14033571Y-20032238D01*
X14033571Y-20022714D01*
X14043095Y-20003667D01*
X14062143Y-19994143D01*
X14090714Y-19994143D01*
X14109762Y-20003667D01*
X14185952Y-20203667D02*
X14195476Y-20194143D01*
X14214524Y-20165571D01*
X14224048Y-20146524D01*
X14233571Y-20117952D01*
X14243095Y-20070333D01*
X14243095Y-20032238D01*
X14233571Y-19984619D01*
X14224048Y-19956048D01*
X14214524Y-19937000D01*
X14195476Y-19908429D01*
X14185952Y-19898905D01*
D16*
X7720000Y-20376000D02*
X7795000Y-20301000D01*
X7720000Y-20226000D01*
X7645000Y-20301000D01*
X7720000Y-20376000D01*
D11*
X8157381Y-20391476D02*
X8043095Y-20391476D01*
X8100238Y-20391476D02*
X8100238Y-20191476D01*
X8081190Y-20220048D01*
X8062143Y-20239095D01*
X8043095Y-20248619D01*
X8243095Y-20372429D02*
X8252619Y-20381952D01*
X8243095Y-20391476D01*
X8233571Y-20381952D01*
X8243095Y-20372429D01*
X8243095Y-20391476D01*
X8433571Y-20191476D02*
X8338333Y-20191476D01*
X8328809Y-20286714D01*
X8338333Y-20277190D01*
X8357381Y-20267667D01*
X8405000Y-20267667D01*
X8424048Y-20277190D01*
X8433571Y-20286714D01*
X8443095Y-20305762D01*
X8443095Y-20353381D01*
X8433571Y-20372429D01*
X8424048Y-20381952D01*
X8405000Y-20391476D01*
X8357381Y-20391476D01*
X8338333Y-20381952D01*
X8328809Y-20372429D01*
X8566905Y-20191476D02*
X8585952Y-20191476D01*
X8605000Y-20201000D01*
X8614524Y-20210524D01*
X8624048Y-20229571D01*
X8633571Y-20267667D01*
X8633571Y-20315286D01*
X8624048Y-20353381D01*
X8614524Y-20372429D01*
X8605000Y-20381952D01*
X8585952Y-20391476D01*
X8566905Y-20391476D01*
X8547857Y-20381952D01*
X8538333Y-20372429D01*
X8528810Y-20353381D01*
X8519286Y-20315286D01*
X8519286Y-20267667D01*
X8528810Y-20229571D01*
X8538333Y-20210524D01*
X8547857Y-20201000D01*
X8566905Y-20191476D01*
X8757381Y-20191476D02*
X8776429Y-20191476D01*
X8795476Y-20201000D01*
X8805000Y-20210524D01*
X8814524Y-20229571D01*
X8824048Y-20267667D01*
X8824048Y-20315286D01*
X8814524Y-20353381D01*
X8805000Y-20372429D01*
X8795476Y-20381952D01*
X8776429Y-20391476D01*
X8757381Y-20391476D01*
X8738333Y-20381952D01*
X8728810Y-20372429D01*
X8719286Y-20353381D01*
X8709762Y-20315286D01*
X8709762Y-20267667D01*
X8719286Y-20229571D01*
X8728810Y-20210524D01*
X8738333Y-20201000D01*
X8757381Y-20191476D01*
X8909762Y-20391476D02*
X8909762Y-20258143D01*
X8909762Y-20277190D02*
X8919286Y-20267667D01*
X8938333Y-20258143D01*
X8966905Y-20258143D01*
X8985952Y-20267667D01*
X8995476Y-20286714D01*
X8995476Y-20391476D01*
X8995476Y-20286714D02*
X9005000Y-20267667D01*
X9024048Y-20258143D01*
X9052619Y-20258143D01*
X9071667Y-20267667D01*
X9081190Y-20286714D01*
X9081190Y-20391476D01*
X9176429Y-20391476D02*
X9176429Y-20258143D01*
X9176429Y-20277190D02*
X9185952Y-20267667D01*
X9205000Y-20258143D01*
X9233571Y-20258143D01*
X9252619Y-20267667D01*
X9262143Y-20286714D01*
X9262143Y-20391476D01*
X9262143Y-20286714D02*
X9271667Y-20267667D01*
X9290714Y-20258143D01*
X9319286Y-20258143D01*
X9338333Y-20267667D01*
X9347857Y-20286714D01*
X9347857Y-20391476D01*
X9738333Y-20181952D02*
X9566905Y-20439095D01*
X9995476Y-20191476D02*
X10014524Y-20191476D01*
X10033571Y-20201000D01*
X10043095Y-20210524D01*
X10052619Y-20229571D01*
X10062143Y-20267667D01*
X10062143Y-20315286D01*
X10052619Y-20353381D01*
X10043095Y-20372429D01*
X10033571Y-20381952D01*
X10014524Y-20391476D01*
X9995476Y-20391476D01*
X9976429Y-20381952D01*
X9966905Y-20372429D01*
X9957381Y-20353381D01*
X9947857Y-20315286D01*
X9947857Y-20267667D01*
X9957381Y-20229571D01*
X9966905Y-20210524D01*
X9976429Y-20201000D01*
X9995476Y-20191476D01*
X10147857Y-20372429D02*
X10157381Y-20381952D01*
X10147857Y-20391476D01*
X10138333Y-20381952D01*
X10147857Y-20372429D01*
X10147857Y-20391476D01*
X10281190Y-20191476D02*
X10300238Y-20191476D01*
X10319286Y-20201000D01*
X10328810Y-20210524D01*
X10338333Y-20229571D01*
X10347857Y-20267667D01*
X10347857Y-20315286D01*
X10338333Y-20353381D01*
X10328810Y-20372429D01*
X10319286Y-20381952D01*
X10300238Y-20391476D01*
X10281190Y-20391476D01*
X10262143Y-20381952D01*
X10252619Y-20372429D01*
X10243095Y-20353381D01*
X10233571Y-20315286D01*
X10233571Y-20267667D01*
X10243095Y-20229571D01*
X10252619Y-20210524D01*
X10262143Y-20201000D01*
X10281190Y-20191476D01*
X10528810Y-20191476D02*
X10433571Y-20191476D01*
X10424048Y-20286714D01*
X10433571Y-20277190D01*
X10452619Y-20267667D01*
X10500238Y-20267667D01*
X10519286Y-20277190D01*
X10528810Y-20286714D01*
X10538333Y-20305762D01*
X10538333Y-20353381D01*
X10528810Y-20372429D01*
X10519286Y-20381952D01*
X10500238Y-20391476D01*
X10452619Y-20391476D01*
X10433571Y-20381952D01*
X10424048Y-20372429D01*
X10633571Y-20391476D02*
X10671667Y-20391476D01*
X10690714Y-20381952D01*
X10700238Y-20372429D01*
X10719286Y-20343857D01*
X10728810Y-20305762D01*
X10728810Y-20229571D01*
X10719286Y-20210524D01*
X10709762Y-20201000D01*
X10690714Y-20191476D01*
X10652619Y-20191476D01*
X10633571Y-20201000D01*
X10624048Y-20210524D01*
X10614524Y-20229571D01*
X10614524Y-20277190D01*
X10624048Y-20296238D01*
X10633571Y-20305762D01*
X10652619Y-20315286D01*
X10690714Y-20315286D01*
X10709762Y-20305762D01*
X10719286Y-20296238D01*
X10728810Y-20277190D01*
X10919286Y-20391476D02*
X10805000Y-20391476D01*
X10862143Y-20391476D02*
X10862143Y-20191476D01*
X10843095Y-20220048D01*
X10824048Y-20239095D01*
X10805000Y-20248619D01*
X10995476Y-20191476D02*
X10995476Y-20229571D01*
X11071667Y-20191476D02*
X11071667Y-20229571D01*
X11366905Y-20467667D02*
X11357381Y-20458143D01*
X11338333Y-20429571D01*
X11328809Y-20410524D01*
X11319286Y-20381952D01*
X11309762Y-20334333D01*
X11309762Y-20296238D01*
X11319286Y-20248619D01*
X11328809Y-20220048D01*
X11338333Y-20201000D01*
X11357381Y-20172429D01*
X11366905Y-20162905D01*
X11481190Y-20191476D02*
X11500238Y-20191476D01*
X11519286Y-20201000D01*
X11528809Y-20210524D01*
X11538333Y-20229571D01*
X11547857Y-20267667D01*
X11547857Y-20315286D01*
X11538333Y-20353381D01*
X11528809Y-20372429D01*
X11519286Y-20381952D01*
X11500238Y-20391476D01*
X11481190Y-20391476D01*
X11462143Y-20381952D01*
X11452619Y-20372429D01*
X11443095Y-20353381D01*
X11433571Y-20315286D01*
X11433571Y-20267667D01*
X11443095Y-20229571D01*
X11452619Y-20210524D01*
X11462143Y-20201000D01*
X11481190Y-20191476D01*
X11785952Y-20391476D02*
X11785952Y-20191476D01*
X11871667Y-20391476D02*
X11871667Y-20286714D01*
X11862143Y-20267667D01*
X11843095Y-20258143D01*
X11814524Y-20258143D01*
X11795476Y-20267667D01*
X11785952Y-20277190D01*
X11995476Y-20391476D02*
X11976428Y-20381952D01*
X11966905Y-20372429D01*
X11957381Y-20353381D01*
X11957381Y-20296238D01*
X11966905Y-20277190D01*
X11976428Y-20267667D01*
X11995476Y-20258143D01*
X12024048Y-20258143D01*
X12043095Y-20267667D01*
X12052619Y-20277190D01*
X12062143Y-20296238D01*
X12062143Y-20353381D01*
X12052619Y-20372429D01*
X12043095Y-20381952D01*
X12024048Y-20391476D01*
X11995476Y-20391476D01*
X12176428Y-20391476D02*
X12157381Y-20381952D01*
X12147857Y-20362905D01*
X12147857Y-20191476D01*
X12328809Y-20381952D02*
X12309762Y-20391476D01*
X12271667Y-20391476D01*
X12252619Y-20381952D01*
X12243095Y-20362905D01*
X12243095Y-20286714D01*
X12252619Y-20267667D01*
X12271667Y-20258143D01*
X12309762Y-20258143D01*
X12328809Y-20267667D01*
X12338333Y-20286714D01*
X12338333Y-20305762D01*
X12243095Y-20324810D01*
X12414524Y-20381952D02*
X12433571Y-20391476D01*
X12471667Y-20391476D01*
X12490714Y-20381952D01*
X12500238Y-20362905D01*
X12500238Y-20353381D01*
X12490714Y-20334333D01*
X12471667Y-20324810D01*
X12443095Y-20324810D01*
X12424048Y-20315286D01*
X12414524Y-20296238D01*
X12414524Y-20286714D01*
X12424048Y-20267667D01*
X12443095Y-20258143D01*
X12471667Y-20258143D01*
X12490714Y-20267667D01*
X12738333Y-20315286D02*
X12890714Y-20315286D01*
X12814524Y-20391476D02*
X12814524Y-20239095D01*
X13119286Y-20191476D02*
X13243095Y-20191476D01*
X13176428Y-20267667D01*
X13205000Y-20267667D01*
X13224048Y-20277190D01*
X13233571Y-20286714D01*
X13243095Y-20305762D01*
X13243095Y-20353381D01*
X13233571Y-20372429D01*
X13224048Y-20381952D01*
X13205000Y-20391476D01*
X13147857Y-20391476D01*
X13128809Y-20381952D01*
X13119286Y-20372429D01*
X13471667Y-20381952D02*
X13490714Y-20391476D01*
X13528809Y-20391476D01*
X13547857Y-20381952D01*
X13557381Y-20362905D01*
X13557381Y-20353381D01*
X13547857Y-20334333D01*
X13528809Y-20324810D01*
X13500238Y-20324810D01*
X13481190Y-20315286D01*
X13471667Y-20296238D01*
X13471667Y-20286714D01*
X13481190Y-20267667D01*
X13500238Y-20258143D01*
X13528809Y-20258143D01*
X13547857Y-20267667D01*
X13671667Y-20391476D02*
X13652619Y-20381952D01*
X13643095Y-20362905D01*
X13643095Y-20191476D01*
X13776428Y-20391476D02*
X13757381Y-20381952D01*
X13747857Y-20372429D01*
X13738333Y-20353381D01*
X13738333Y-20296238D01*
X13747857Y-20277190D01*
X13757381Y-20267667D01*
X13776428Y-20258143D01*
X13805000Y-20258143D01*
X13824048Y-20267667D01*
X13833571Y-20277190D01*
X13843095Y-20296238D01*
X13843095Y-20353381D01*
X13833571Y-20372429D01*
X13824048Y-20381952D01*
X13805000Y-20391476D01*
X13776428Y-20391476D01*
X13900238Y-20258143D02*
X13976428Y-20258143D01*
X13928809Y-20191476D02*
X13928809Y-20362905D01*
X13938333Y-20381952D01*
X13957381Y-20391476D01*
X13976428Y-20391476D01*
X14033571Y-20381952D02*
X14052619Y-20391476D01*
X14090714Y-20391476D01*
X14109762Y-20381952D01*
X14119286Y-20362905D01*
X14119286Y-20353381D01*
X14109762Y-20334333D01*
X14090714Y-20324810D01*
X14062143Y-20324810D01*
X14043095Y-20315286D01*
X14033571Y-20296238D01*
X14033571Y-20286714D01*
X14043095Y-20267667D01*
X14062143Y-20258143D01*
X14090714Y-20258143D01*
X14109762Y-20267667D01*
X14185952Y-20467667D02*
X14195476Y-20458143D01*
X14214524Y-20429571D01*
X14224048Y-20410524D01*
X14233571Y-20381952D01*
X14243095Y-20334333D01*
X14243095Y-20296238D01*
X14233571Y-20248619D01*
X14224048Y-20220048D01*
X14214524Y-20201000D01*
X14195476Y-20172429D01*
X14185952Y-20162905D01*
M02*
