M48
; DRILL file {KiCad (6.0.5)} date Thu Sep  8 21:10:05 2022
; FORMAT={-:-/ absolute / metric / decimal}
; #@! TF.CreationDate,2022-09-08T21:10:05+02:00
; #@! TF.GenerationSoftware,Kicad,Pcbnew,(6.0.5)
; #@! TF.FileFunction,Plated,1,2,PTH
FMAT,2
METRIC
; #@! TA.AperFunction,Plated,PTH,ComponentDrill
T1C0.800
; #@! TA.AperFunction,Plated,PTH,ComponentDrill
T2C0.900
; #@! TA.AperFunction,Plated,PTH,ComponentDrill
T3C1.000
; #@! TA.AperFunction,Plated,PTH,ComponentDrill
T4C1.300
; #@! TA.AperFunction,Plated,PTH,ComponentDrill
T5C1.500
%
G90
G05
T1
X86.0Y-163.92
X86.0Y-174.08
X91.0Y-150.72
X91.0Y-160.88
X91.0Y-163.92
X91.0Y-174.08
X96.0Y-163.92
X96.0Y-174.08
X97.5Y-140.0
X101.0Y-163.92
X101.0Y-174.08
X102.5Y-140.0
X106.0Y-163.92
X106.0Y-174.08
X109.0Y-150.8
X109.0Y-160.96
T2
X86.23Y-180.0
X88.77Y-180.0
X106.23Y-180.0
X108.77Y-180.0
X116.23Y-180.0
X118.77Y-180.0
T3
X81.413Y-97.592
X81.413Y-100.132
X81.413Y-102.672
X81.413Y-105.212
X81.413Y-107.752
X81.413Y-110.292
X81.413Y-112.832
X81.413Y-115.372
X82.0Y-179.0
X82.0Y-181.5
X94.0Y-179.0
X94.0Y-181.5
X95.0Y-125.0
X97.5Y-72.5
X97.5Y-100.0
X97.5Y-150.0
X100.0Y-72.5
X100.0Y-100.0
X100.0Y-150.0
X102.0Y-179.0
X102.0Y-181.5
X102.5Y-72.5
X102.5Y-100.0
X102.5Y-150.0
X105.0Y-125.0
X111.5Y-174.0
X114.0Y-174.0
X116.973Y-97.593
X116.973Y-100.133
X116.973Y-102.673
X116.973Y-105.213
X116.973Y-107.753
X116.973Y-110.293
X116.973Y-112.833
X116.973Y-115.373
T4
X95.2Y-64.75G85X95.2Y-65.25
G05
X95.2Y-107.75G85X95.2Y-107.25
G05
X95.2Y-157.75G85X95.2Y-157.25
G05
X104.8Y-64.75G85X104.8Y-65.25
G05
X104.8Y-107.75G85X104.8Y-107.25
G05
X104.8Y-157.75G85X104.8Y-157.25
G05
T5
X95.15Y-133.25G85X95.15Y-131.75
G05
X100.0Y-133.25G85X100.0Y-131.75
G05
X104.85Y-133.25G85X104.85Y-131.75
G05
T0
M30
