%TF.GenerationSoftware,KiCad,Pcbnew,(6.0.5)*%
%TF.CreationDate,2022-09-08T21:10:04+02:00*%
%TF.ProjectId,Bissell-Bouten_Envelope-o-Matic,42697373-656c-46c2-9d42-6f7574656e5f,1.0*%
%TF.SameCoordinates,Original*%
%TF.FileFunction,Legend,Top*%
%TF.FilePolarity,Positive*%
%FSLAX46Y46*%
G04 Gerber Fmt 4.6, Leading zero omitted, Abs format (unit mm)*
G04 Created by KiCad (PCBNEW (6.0.5)) date 2022-09-08 21:10:04*
%MOMM*%
%LPD*%
G01*
G04 APERTURE LIST*
G04 Aperture macros list*
%AMRoundRect*
0 Rectangle with rounded corners*
0 $1 Rounding radius*
0 $2 $3 $4 $5 $6 $7 $8 $9 X,Y pos of 4 corners*
0 Add a 4 corners polygon primitive as box body*
4,1,4,$2,$3,$4,$5,$6,$7,$8,$9,$2,$3,0*
0 Add four circle primitives for the rounded corners*
1,1,$1+$1,$2,$3*
1,1,$1+$1,$4,$5*
1,1,$1+$1,$6,$7*
1,1,$1+$1,$8,$9*
0 Add four rect primitives between the rounded corners*
20,1,$1+$1,$2,$3,$4,$5,0*
20,1,$1+$1,$4,$5,$6,$7,0*
20,1,$1+$1,$6,$7,$8,$9,0*
20,1,$1+$1,$8,$9,$2,$3,0*%
G04 Aperture macros list end*
%ADD10C,0.150000*%
%ADD11C,0.250000*%
%ADD12C,0.120000*%
%ADD13C,1.600000*%
%ADD14O,1.600000X1.600000*%
%ADD15RoundRect,0.249900X-0.750100X0.600100X-0.750100X-0.600100X0.750100X-0.600100X0.750100X0.600100X0*%
%ADD16O,2.000000X1.700000*%
%ADD17C,2.000000*%
%ADD18R,1.700000X1.700000*%
%ADD19O,1.700000X1.700000*%
%ADD20RoundRect,0.249900X0.600100X0.750100X-0.600100X0.750100X-0.600100X-0.750100X0.600100X-0.750100X0*%
%ADD21O,1.700000X2.000000*%
%ADD22R,1.800000X1.800000*%
%ADD23C,1.800000*%
%ADD24O,2.500000X4.000000*%
%ADD25O,2.720000X3.240000*%
G04 APERTURE END LIST*
D10*
X79000000Y-60000000D02*
X119894000Y-60000000D01*
X119894000Y-60000000D02*
X119894000Y-165018000D01*
X119894000Y-165018000D02*
X79000000Y-165018000D01*
X79000000Y-165018000D02*
X79000000Y-60000000D01*
X107780952Y-183452380D02*
X107780952Y-184166666D01*
X107733333Y-184309523D01*
X107638095Y-184404761D01*
X107495238Y-184452380D01*
X107400000Y-184452380D01*
X108733333Y-184452380D02*
X108257142Y-184452380D01*
X108257142Y-183452380D01*
X109638095Y-184357142D02*
X109590476Y-184404761D01*
X109447619Y-184452380D01*
X109352380Y-184452380D01*
X109209523Y-184404761D01*
X109114285Y-184309523D01*
X109066666Y-184214285D01*
X109019047Y-184023809D01*
X109019047Y-183880952D01*
X109066666Y-183690476D01*
X109114285Y-183595238D01*
X109209523Y-183500000D01*
X109352380Y-183452380D01*
X109447619Y-183452380D01*
X109590476Y-183500000D01*
X109638095Y-183547619D01*
X110352380Y-183452380D02*
X110352380Y-184166666D01*
X110304761Y-184309523D01*
X110209523Y-184404761D01*
X110066666Y-184452380D01*
X109971428Y-184452380D01*
X111304761Y-184452380D02*
X110828571Y-184452380D01*
X110828571Y-183452380D01*
X112209523Y-184357142D02*
X112161904Y-184404761D01*
X112019047Y-184452380D01*
X111923809Y-184452380D01*
X111780952Y-184404761D01*
X111685714Y-184309523D01*
X111638095Y-184214285D01*
X111590476Y-184023809D01*
X111590476Y-183880952D01*
X111638095Y-183690476D01*
X111685714Y-183595238D01*
X111780952Y-183500000D01*
X111923809Y-183452380D01*
X112019047Y-183452380D01*
X112161904Y-183500000D01*
X112209523Y-183547619D01*
X112923809Y-183452380D02*
X112923809Y-184166666D01*
X112876190Y-184309523D01*
X112780952Y-184404761D01*
X112638095Y-184452380D01*
X112542857Y-184452380D01*
X113876190Y-184452380D02*
X113400000Y-184452380D01*
X113400000Y-183452380D01*
X114780952Y-184357142D02*
X114733333Y-184404761D01*
X114590476Y-184452380D01*
X114495238Y-184452380D01*
X114352380Y-184404761D01*
X114257142Y-184309523D01*
X114209523Y-184214285D01*
X114161904Y-184023809D01*
X114161904Y-183880952D01*
X114209523Y-183690476D01*
X114257142Y-183595238D01*
X114352380Y-183500000D01*
X114495238Y-183452380D01*
X114590476Y-183452380D01*
X114733333Y-183500000D01*
X114780952Y-183547619D01*
X115495238Y-183452380D02*
X115495238Y-184166666D01*
X115447619Y-184309523D01*
X115352380Y-184404761D01*
X115209523Y-184452380D01*
X115114285Y-184452380D01*
X116447619Y-184452380D02*
X115971428Y-184452380D01*
X115971428Y-183452380D01*
X117352380Y-184357142D02*
X117304761Y-184404761D01*
X117161904Y-184452380D01*
X117066666Y-184452380D01*
X116923809Y-184404761D01*
X116828571Y-184309523D01*
X116780952Y-184214285D01*
X116733333Y-184023809D01*
X116733333Y-183880952D01*
X116780952Y-183690476D01*
X116828571Y-183595238D01*
X116923809Y-183500000D01*
X117066666Y-183452380D01*
X117161904Y-183452380D01*
X117304761Y-183500000D01*
X117352380Y-183547619D01*
X85397500Y-84313214D02*
X85326071Y-84384642D01*
X85111785Y-84456071D01*
X84968928Y-84456071D01*
X84754642Y-84384642D01*
X84611785Y-84241785D01*
X84540357Y-84098928D01*
X84468928Y-83813214D01*
X84468928Y-83598928D01*
X84540357Y-83313214D01*
X84611785Y-83170357D01*
X84754642Y-83027500D01*
X84968928Y-82956071D01*
X85111785Y-82956071D01*
X85326071Y-83027500D01*
X85397500Y-83098928D01*
X86040357Y-84456071D02*
X86040357Y-83456071D01*
X86040357Y-82956071D02*
X85968928Y-83027500D01*
X86040357Y-83098928D01*
X86111785Y-83027500D01*
X86040357Y-82956071D01*
X86040357Y-83098928D01*
X86754642Y-84456071D02*
X86754642Y-83456071D01*
X86754642Y-83741785D02*
X86826071Y-83598928D01*
X86897500Y-83527500D01*
X87040357Y-83456071D01*
X87183214Y-83456071D01*
X88326071Y-84384642D02*
X88183214Y-84456071D01*
X87897500Y-84456071D01*
X87754642Y-84384642D01*
X87683214Y-84313214D01*
X87611785Y-84170357D01*
X87611785Y-83741785D01*
X87683214Y-83598928D01*
X87754642Y-83527500D01*
X87897500Y-83456071D01*
X88183214Y-83456071D01*
X88326071Y-83527500D01*
X89611785Y-83456071D02*
X89611785Y-84456071D01*
X88968928Y-83456071D02*
X88968928Y-84241785D01*
X89040357Y-84384642D01*
X89183214Y-84456071D01*
X89397500Y-84456071D01*
X89540357Y-84384642D01*
X89611785Y-84313214D01*
X90326071Y-84456071D02*
X90326071Y-83456071D01*
X90326071Y-82956071D02*
X90254642Y-83027500D01*
X90326071Y-83098928D01*
X90397500Y-83027500D01*
X90326071Y-82956071D01*
X90326071Y-83098928D01*
X90826071Y-83456071D02*
X91397500Y-83456071D01*
X91040357Y-82956071D02*
X91040357Y-84241785D01*
X91111785Y-84384642D01*
X91254642Y-84456071D01*
X91397500Y-84456071D01*
X93683214Y-84456071D02*
X93683214Y-82956071D01*
X93683214Y-84384642D02*
X93540357Y-84456071D01*
X93254642Y-84456071D01*
X93111785Y-84384642D01*
X93040357Y-84313214D01*
X92968928Y-84170357D01*
X92968928Y-83741785D01*
X93040357Y-83598928D01*
X93111785Y-83527500D01*
X93254642Y-83456071D01*
X93540357Y-83456071D01*
X93683214Y-83527500D01*
X94968928Y-84384642D02*
X94826071Y-84456071D01*
X94540357Y-84456071D01*
X94397500Y-84384642D01*
X94326071Y-84241785D01*
X94326071Y-83670357D01*
X94397500Y-83527500D01*
X94540357Y-83456071D01*
X94826071Y-83456071D01*
X94968928Y-83527500D01*
X95040357Y-83670357D01*
X95040357Y-83813214D01*
X94326071Y-83956071D01*
X95611785Y-84384642D02*
X95754642Y-84456071D01*
X96040357Y-84456071D01*
X96183214Y-84384642D01*
X96254642Y-84241785D01*
X96254642Y-84170357D01*
X96183214Y-84027500D01*
X96040357Y-83956071D01*
X95826071Y-83956071D01*
X95683214Y-83884642D01*
X95611785Y-83741785D01*
X95611785Y-83670357D01*
X95683214Y-83527500D01*
X95826071Y-83456071D01*
X96040357Y-83456071D01*
X96183214Y-83527500D01*
X96897500Y-84456071D02*
X96897500Y-83456071D01*
X96897500Y-82956071D02*
X96826071Y-83027500D01*
X96897500Y-83098928D01*
X96968928Y-83027500D01*
X96897500Y-82956071D01*
X96897500Y-83098928D01*
X98254642Y-83456071D02*
X98254642Y-84670357D01*
X98183214Y-84813214D01*
X98111785Y-84884642D01*
X97968928Y-84956071D01*
X97754642Y-84956071D01*
X97611785Y-84884642D01*
X98254642Y-84384642D02*
X98111785Y-84456071D01*
X97826071Y-84456071D01*
X97683214Y-84384642D01*
X97611785Y-84313214D01*
X97540357Y-84170357D01*
X97540357Y-83741785D01*
X97611785Y-83598928D01*
X97683214Y-83527500D01*
X97826071Y-83456071D01*
X98111785Y-83456071D01*
X98254642Y-83527500D01*
X98968928Y-83456071D02*
X98968928Y-84456071D01*
X98968928Y-83598928D02*
X99040357Y-83527500D01*
X99183214Y-83456071D01*
X99397500Y-83456071D01*
X99540357Y-83527500D01*
X99611785Y-83670357D01*
X99611785Y-84456071D01*
X100326071Y-84313214D02*
X100397500Y-84384642D01*
X100326071Y-84456071D01*
X100254642Y-84384642D01*
X100326071Y-84313214D01*
X100326071Y-84456071D01*
X100326071Y-83527500D02*
X100397500Y-83598928D01*
X100326071Y-83670357D01*
X100254642Y-83598928D01*
X100326071Y-83527500D01*
X100326071Y-83670357D01*
X102183214Y-84456071D02*
X102183214Y-82956071D01*
X102183214Y-83670357D02*
X103040357Y-83670357D01*
X103040357Y-84456071D02*
X103040357Y-82956071D01*
X104397500Y-84456071D02*
X104397500Y-83670357D01*
X104326071Y-83527500D01*
X104183214Y-83456071D01*
X103897500Y-83456071D01*
X103754642Y-83527500D01*
X104397500Y-84384642D02*
X104254642Y-84456071D01*
X103897500Y-84456071D01*
X103754642Y-84384642D01*
X103683214Y-84241785D01*
X103683214Y-84098928D01*
X103754642Y-83956071D01*
X103897500Y-83884642D01*
X104254642Y-83884642D01*
X104397500Y-83813214D01*
X105111785Y-84456071D02*
X105111785Y-83456071D01*
X105111785Y-83741785D02*
X105183214Y-83598928D01*
X105254642Y-83527500D01*
X105397500Y-83456071D01*
X105540357Y-83456071D01*
X106040357Y-84456071D02*
X106040357Y-83456071D01*
X106040357Y-83741785D02*
X106111785Y-83598928D01*
X106183214Y-83527500D01*
X106326071Y-83456071D01*
X106468928Y-83456071D01*
X106826071Y-83456071D02*
X107183214Y-84456071D01*
X107540357Y-83456071D02*
X107183214Y-84456071D01*
X107040357Y-84813214D01*
X106968928Y-84884642D01*
X106826071Y-84956071D01*
X109754642Y-83670357D02*
X109968928Y-83741785D01*
X110040357Y-83813214D01*
X110111785Y-83956071D01*
X110111785Y-84170357D01*
X110040357Y-84313214D01*
X109968928Y-84384642D01*
X109826071Y-84456071D01*
X109254642Y-84456071D01*
X109254642Y-82956071D01*
X109754642Y-82956071D01*
X109897500Y-83027500D01*
X109968928Y-83098928D01*
X110040357Y-83241785D01*
X110040357Y-83384642D01*
X109968928Y-83527500D01*
X109897500Y-83598928D01*
X109754642Y-83670357D01*
X109254642Y-83670357D01*
X110754642Y-84456071D02*
X110754642Y-83456071D01*
X110754642Y-82956071D02*
X110683214Y-83027500D01*
X110754642Y-83098928D01*
X110826071Y-83027500D01*
X110754642Y-82956071D01*
X110754642Y-83098928D01*
X111397500Y-84384642D02*
X111540357Y-84456071D01*
X111826071Y-84456071D01*
X111968928Y-84384642D01*
X112040357Y-84241785D01*
X112040357Y-84170357D01*
X111968928Y-84027500D01*
X111826071Y-83956071D01*
X111611785Y-83956071D01*
X111468928Y-83884642D01*
X111397500Y-83741785D01*
X111397500Y-83670357D01*
X111468928Y-83527500D01*
X111611785Y-83456071D01*
X111826071Y-83456071D01*
X111968928Y-83527500D01*
X112611785Y-84384642D02*
X112754642Y-84456071D01*
X113040357Y-84456071D01*
X113183214Y-84384642D01*
X113254642Y-84241785D01*
X113254642Y-84170357D01*
X113183214Y-84027500D01*
X113040357Y-83956071D01*
X112826071Y-83956071D01*
X112683214Y-83884642D01*
X112611785Y-83741785D01*
X112611785Y-83670357D01*
X112683214Y-83527500D01*
X112826071Y-83456071D01*
X113040357Y-83456071D01*
X113183214Y-83527500D01*
X114468928Y-84384642D02*
X114326071Y-84456071D01*
X114040357Y-84456071D01*
X113897499Y-84384642D01*
X113826071Y-84241785D01*
X113826071Y-83670357D01*
X113897499Y-83527500D01*
X114040357Y-83456071D01*
X114326071Y-83456071D01*
X114468928Y-83527500D01*
X114540357Y-83670357D01*
X114540357Y-83813214D01*
X113826071Y-83956071D01*
X115397499Y-84456071D02*
X115254642Y-84384642D01*
X115183214Y-84241785D01*
X115183214Y-82956071D01*
X116183214Y-84456071D02*
X116040357Y-84384642D01*
X115968928Y-84241785D01*
X115968928Y-82956071D01*
X102111785Y-85371071D02*
X102111785Y-86442500D01*
X102040357Y-86656785D01*
X101897499Y-86799642D01*
X101683214Y-86871071D01*
X101540357Y-86871071D01*
X103040357Y-86871071D02*
X102897499Y-86799642D01*
X102826071Y-86728214D01*
X102754642Y-86585357D01*
X102754642Y-86156785D01*
X102826071Y-86013928D01*
X102897499Y-85942500D01*
X103040357Y-85871071D01*
X103254642Y-85871071D01*
X103397499Y-85942500D01*
X103468928Y-86013928D01*
X103540357Y-86156785D01*
X103540357Y-86585357D01*
X103468928Y-86728214D01*
X103397499Y-86799642D01*
X103254642Y-86871071D01*
X103040357Y-86871071D01*
X104111785Y-86799642D02*
X104254642Y-86871071D01*
X104540357Y-86871071D01*
X104683214Y-86799642D01*
X104754642Y-86656785D01*
X104754642Y-86585357D01*
X104683214Y-86442500D01*
X104540357Y-86371071D01*
X104326071Y-86371071D01*
X104183214Y-86299642D01*
X104111785Y-86156785D01*
X104111785Y-86085357D01*
X104183214Y-85942500D01*
X104326071Y-85871071D01*
X104540357Y-85871071D01*
X104683214Y-85942500D01*
X107040357Y-86085357D02*
X107254642Y-86156785D01*
X107326071Y-86228214D01*
X107397499Y-86371071D01*
X107397499Y-86585357D01*
X107326071Y-86728214D01*
X107254642Y-86799642D01*
X107111785Y-86871071D01*
X106540357Y-86871071D01*
X106540357Y-85371071D01*
X107040357Y-85371071D01*
X107183214Y-85442500D01*
X107254642Y-85513928D01*
X107326071Y-85656785D01*
X107326071Y-85799642D01*
X107254642Y-85942500D01*
X107183214Y-86013928D01*
X107040357Y-86085357D01*
X106540357Y-86085357D01*
X108254642Y-86871071D02*
X108111785Y-86799642D01*
X108040357Y-86728214D01*
X107968928Y-86585357D01*
X107968928Y-86156785D01*
X108040357Y-86013928D01*
X108111785Y-85942500D01*
X108254642Y-85871071D01*
X108468928Y-85871071D01*
X108611785Y-85942500D01*
X108683214Y-86013928D01*
X108754642Y-86156785D01*
X108754642Y-86585357D01*
X108683214Y-86728214D01*
X108611785Y-86799642D01*
X108468928Y-86871071D01*
X108254642Y-86871071D01*
X110040357Y-85871071D02*
X110040357Y-86871071D01*
X109397499Y-85871071D02*
X109397499Y-86656785D01*
X109468928Y-86799642D01*
X109611785Y-86871071D01*
X109826071Y-86871071D01*
X109968928Y-86799642D01*
X110040357Y-86728214D01*
X110540357Y-85871071D02*
X111111785Y-85871071D01*
X110754642Y-85371071D02*
X110754642Y-86656785D01*
X110826071Y-86799642D01*
X110968928Y-86871071D01*
X111111785Y-86871071D01*
X112183214Y-86799642D02*
X112040357Y-86871071D01*
X111754642Y-86871071D01*
X111611785Y-86799642D01*
X111540357Y-86656785D01*
X111540357Y-86085357D01*
X111611785Y-85942500D01*
X111754642Y-85871071D01*
X112040357Y-85871071D01*
X112183214Y-85942500D01*
X112254642Y-86085357D01*
X112254642Y-86228214D01*
X111540357Y-86371071D01*
X112897500Y-85871071D02*
X112897500Y-86871071D01*
X112897500Y-86013928D02*
X112968928Y-85942500D01*
X113111785Y-85871071D01*
X113326071Y-85871071D01*
X113468928Y-85942500D01*
X113540357Y-86085357D01*
X113540357Y-86871071D01*
X86826071Y-89286071D02*
X86826071Y-87786071D01*
X87397500Y-87786071D01*
X87540357Y-87857500D01*
X87611785Y-87928928D01*
X87683214Y-88071785D01*
X87683214Y-88286071D01*
X87611785Y-88428928D01*
X87540357Y-88500357D01*
X87397500Y-88571785D01*
X86826071Y-88571785D01*
X89183214Y-89143214D02*
X89111785Y-89214642D01*
X88897500Y-89286071D01*
X88754642Y-89286071D01*
X88540357Y-89214642D01*
X88397500Y-89071785D01*
X88326071Y-88928928D01*
X88254642Y-88643214D01*
X88254642Y-88428928D01*
X88326071Y-88143214D01*
X88397500Y-88000357D01*
X88540357Y-87857500D01*
X88754642Y-87786071D01*
X88897500Y-87786071D01*
X89111785Y-87857500D01*
X89183214Y-87928928D01*
X90326071Y-88500357D02*
X90540357Y-88571785D01*
X90611785Y-88643214D01*
X90683214Y-88786071D01*
X90683214Y-89000357D01*
X90611785Y-89143214D01*
X90540357Y-89214642D01*
X90397500Y-89286071D01*
X89826071Y-89286071D01*
X89826071Y-87786071D01*
X90326071Y-87786071D01*
X90468928Y-87857500D01*
X90540357Y-87928928D01*
X90611785Y-88071785D01*
X90611785Y-88214642D01*
X90540357Y-88357500D01*
X90468928Y-88428928D01*
X90326071Y-88500357D01*
X89826071Y-88500357D01*
X93111785Y-89286071D02*
X93111785Y-87786071D01*
X93111785Y-89214642D02*
X92968928Y-89286071D01*
X92683214Y-89286071D01*
X92540357Y-89214642D01*
X92468928Y-89143214D01*
X92397500Y-89000357D01*
X92397500Y-88571785D01*
X92468928Y-88428928D01*
X92540357Y-88357500D01*
X92683214Y-88286071D01*
X92968928Y-88286071D01*
X93111785Y-88357500D01*
X94397500Y-89214642D02*
X94254642Y-89286071D01*
X93968928Y-89286071D01*
X93826071Y-89214642D01*
X93754642Y-89071785D01*
X93754642Y-88500357D01*
X93826071Y-88357500D01*
X93968928Y-88286071D01*
X94254642Y-88286071D01*
X94397500Y-88357500D01*
X94468928Y-88500357D01*
X94468928Y-88643214D01*
X93754642Y-88786071D01*
X95040357Y-89214642D02*
X95183214Y-89286071D01*
X95468928Y-89286071D01*
X95611785Y-89214642D01*
X95683214Y-89071785D01*
X95683214Y-89000357D01*
X95611785Y-88857500D01*
X95468928Y-88786071D01*
X95254642Y-88786071D01*
X95111785Y-88714642D01*
X95040357Y-88571785D01*
X95040357Y-88500357D01*
X95111785Y-88357500D01*
X95254642Y-88286071D01*
X95468928Y-88286071D01*
X95611785Y-88357500D01*
X96326071Y-89286071D02*
X96326071Y-88286071D01*
X96326071Y-87786071D02*
X96254642Y-87857500D01*
X96326071Y-87928928D01*
X96397500Y-87857500D01*
X96326071Y-87786071D01*
X96326071Y-87928928D01*
X97683214Y-88286071D02*
X97683214Y-89500357D01*
X97611785Y-89643214D01*
X97540357Y-89714642D01*
X97397500Y-89786071D01*
X97183214Y-89786071D01*
X97040357Y-89714642D01*
X97683214Y-89214642D02*
X97540357Y-89286071D01*
X97254642Y-89286071D01*
X97111785Y-89214642D01*
X97040357Y-89143214D01*
X96968928Y-89000357D01*
X96968928Y-88571785D01*
X97040357Y-88428928D01*
X97111785Y-88357500D01*
X97254642Y-88286071D01*
X97540357Y-88286071D01*
X97683214Y-88357500D01*
X98397500Y-88286071D02*
X98397500Y-89286071D01*
X98397500Y-88428928D02*
X98468928Y-88357500D01*
X98611785Y-88286071D01*
X98826071Y-88286071D01*
X98968928Y-88357500D01*
X99040357Y-88500357D01*
X99040357Y-89286071D01*
X99754642Y-89143214D02*
X99826071Y-89214642D01*
X99754642Y-89286071D01*
X99683214Y-89214642D01*
X99754642Y-89143214D01*
X99754642Y-89286071D01*
X99754642Y-88357500D02*
X99826071Y-88428928D01*
X99754642Y-88500357D01*
X99683214Y-88428928D01*
X99754642Y-88357500D01*
X99754642Y-88500357D01*
X102040357Y-87786071D02*
X102040357Y-88857500D01*
X101968928Y-89071785D01*
X101826071Y-89214642D01*
X101611785Y-89286071D01*
X101468928Y-89286071D01*
X102968928Y-89286071D02*
X102826071Y-89214642D01*
X102754642Y-89143214D01*
X102683214Y-89000357D01*
X102683214Y-88571785D01*
X102754642Y-88428928D01*
X102826071Y-88357500D01*
X102968928Y-88286071D01*
X103183214Y-88286071D01*
X103326071Y-88357500D01*
X103397500Y-88428928D01*
X103468928Y-88571785D01*
X103468928Y-89000357D01*
X103397500Y-89143214D01*
X103326071Y-89214642D01*
X103183214Y-89286071D01*
X102968928Y-89286071D01*
X104040357Y-89214642D02*
X104183214Y-89286071D01*
X104468928Y-89286071D01*
X104611785Y-89214642D01*
X104683214Y-89071785D01*
X104683214Y-89000357D01*
X104611785Y-88857500D01*
X104468928Y-88786071D01*
X104254642Y-88786071D01*
X104111785Y-88714642D01*
X104040357Y-88571785D01*
X104040357Y-88500357D01*
X104111785Y-88357500D01*
X104254642Y-88286071D01*
X104468928Y-88286071D01*
X104611785Y-88357500D01*
X106968928Y-88500357D02*
X107183214Y-88571785D01*
X107254642Y-88643214D01*
X107326071Y-88786071D01*
X107326071Y-89000357D01*
X107254642Y-89143214D01*
X107183214Y-89214642D01*
X107040357Y-89286071D01*
X106468928Y-89286071D01*
X106468928Y-87786071D01*
X106968928Y-87786071D01*
X107111785Y-87857500D01*
X107183214Y-87928928D01*
X107254642Y-88071785D01*
X107254642Y-88214642D01*
X107183214Y-88357500D01*
X107111785Y-88428928D01*
X106968928Y-88500357D01*
X106468928Y-88500357D01*
X108183214Y-89286071D02*
X108040357Y-89214642D01*
X107968928Y-89143214D01*
X107897500Y-89000357D01*
X107897500Y-88571785D01*
X107968928Y-88428928D01*
X108040357Y-88357500D01*
X108183214Y-88286071D01*
X108397500Y-88286071D01*
X108540357Y-88357500D01*
X108611785Y-88428928D01*
X108683214Y-88571785D01*
X108683214Y-89000357D01*
X108611785Y-89143214D01*
X108540357Y-89214642D01*
X108397500Y-89286071D01*
X108183214Y-89286071D01*
X109968928Y-88286071D02*
X109968928Y-89286071D01*
X109326071Y-88286071D02*
X109326071Y-89071785D01*
X109397500Y-89214642D01*
X109540357Y-89286071D01*
X109754642Y-89286071D01*
X109897500Y-89214642D01*
X109968928Y-89143214D01*
X110468928Y-88286071D02*
X111040357Y-88286071D01*
X110683214Y-87786071D02*
X110683214Y-89071785D01*
X110754642Y-89214642D01*
X110897500Y-89286071D01*
X111040357Y-89286071D01*
X112111785Y-89214642D02*
X111968928Y-89286071D01*
X111683214Y-89286071D01*
X111540357Y-89214642D01*
X111468928Y-89071785D01*
X111468928Y-88500357D01*
X111540357Y-88357500D01*
X111683214Y-88286071D01*
X111968928Y-88286071D01*
X112111785Y-88357500D01*
X112183214Y-88500357D01*
X112183214Y-88643214D01*
X111468928Y-88786071D01*
X112826071Y-88286071D02*
X112826071Y-89286071D01*
X112826071Y-88428928D02*
X112897500Y-88357500D01*
X113040357Y-88286071D01*
X113254642Y-88286071D01*
X113397500Y-88357500D01*
X113468928Y-88500357D01*
X113468928Y-89286071D01*
X83397500Y-91701071D02*
X83397500Y-90201071D01*
X84254642Y-91701071D02*
X83611785Y-90843928D01*
X84254642Y-90201071D02*
X83397500Y-91058214D01*
X85111785Y-91701071D02*
X84968928Y-91629642D01*
X84897500Y-91558214D01*
X84826071Y-91415357D01*
X84826071Y-90986785D01*
X84897500Y-90843928D01*
X84968928Y-90772500D01*
X85111785Y-90701071D01*
X85326071Y-90701071D01*
X85468928Y-90772500D01*
X85540357Y-90843928D01*
X85611785Y-90986785D01*
X85611785Y-91415357D01*
X85540357Y-91558214D01*
X85468928Y-91629642D01*
X85326071Y-91701071D01*
X85111785Y-91701071D01*
X86183214Y-91629642D02*
X86326071Y-91701071D01*
X86611785Y-91701071D01*
X86754642Y-91629642D01*
X86826071Y-91486785D01*
X86826071Y-91415357D01*
X86754642Y-91272500D01*
X86611785Y-91201071D01*
X86397500Y-91201071D01*
X86254642Y-91129642D01*
X86183214Y-90986785D01*
X86183214Y-90915357D01*
X86254642Y-90772500D01*
X86397500Y-90701071D01*
X86611785Y-90701071D01*
X86754642Y-90772500D01*
X87468928Y-91701071D02*
X87468928Y-90701071D01*
X87468928Y-90843928D02*
X87540357Y-90772500D01*
X87683214Y-90701071D01*
X87897500Y-90701071D01*
X88040357Y-90772500D01*
X88111785Y-90915357D01*
X88111785Y-91701071D01*
X88111785Y-90915357D02*
X88183214Y-90772500D01*
X88326071Y-90701071D01*
X88540357Y-90701071D01*
X88683214Y-90772500D01*
X88754642Y-90915357D01*
X88754642Y-91701071D01*
X89683214Y-91701071D02*
X89540357Y-91629642D01*
X89468928Y-91558214D01*
X89397500Y-91415357D01*
X89397500Y-90986785D01*
X89468928Y-90843928D01*
X89540357Y-90772500D01*
X89683214Y-90701071D01*
X89897500Y-90701071D01*
X90040357Y-90772500D01*
X90111785Y-90843928D01*
X90183214Y-90986785D01*
X90183214Y-91415357D01*
X90111785Y-91558214D01*
X90040357Y-91629642D01*
X89897500Y-91701071D01*
X89683214Y-91701071D01*
X91826071Y-90701071D02*
X92183214Y-91701071D01*
X92540357Y-90701071D01*
X93683214Y-91629642D02*
X93540357Y-91701071D01*
X93254642Y-91701071D01*
X93111785Y-91629642D01*
X93040357Y-91486785D01*
X93040357Y-90915357D01*
X93111785Y-90772500D01*
X93254642Y-90701071D01*
X93540357Y-90701071D01*
X93683214Y-90772500D01*
X93754642Y-90915357D01*
X93754642Y-91058214D01*
X93040357Y-91201071D01*
X94397500Y-91701071D02*
X94397500Y-90701071D01*
X94397500Y-90986785D02*
X94468928Y-90843928D01*
X94540357Y-90772500D01*
X94683214Y-90701071D01*
X94826071Y-90701071D01*
X95254642Y-91629642D02*
X95397500Y-91701071D01*
X95683214Y-91701071D01*
X95826071Y-91629642D01*
X95897500Y-91486785D01*
X95897500Y-91415357D01*
X95826071Y-91272500D01*
X95683214Y-91201071D01*
X95468928Y-91201071D01*
X95326071Y-91129642D01*
X95254642Y-90986785D01*
X95254642Y-90915357D01*
X95326071Y-90772500D01*
X95468928Y-90701071D01*
X95683214Y-90701071D01*
X95826071Y-90772500D01*
X96540357Y-91701071D02*
X96540357Y-90701071D01*
X96540357Y-90201071D02*
X96468928Y-90272500D01*
X96540357Y-90343928D01*
X96611785Y-90272500D01*
X96540357Y-90201071D01*
X96540357Y-90343928D01*
X97468928Y-91701071D02*
X97326071Y-91629642D01*
X97254642Y-91558214D01*
X97183214Y-91415357D01*
X97183214Y-90986785D01*
X97254642Y-90843928D01*
X97326071Y-90772500D01*
X97468928Y-90701071D01*
X97683214Y-90701071D01*
X97826071Y-90772500D01*
X97897500Y-90843928D01*
X97968928Y-90986785D01*
X97968928Y-91415357D01*
X97897500Y-91558214D01*
X97826071Y-91629642D01*
X97683214Y-91701071D01*
X97468928Y-91701071D01*
X98611785Y-90701071D02*
X98611785Y-91701071D01*
X98611785Y-90843928D02*
X98683214Y-90772500D01*
X98826071Y-90701071D01*
X99040357Y-90701071D01*
X99183214Y-90772500D01*
X99254642Y-90915357D01*
X99254642Y-91701071D01*
X99968928Y-91558214D02*
X100040357Y-91629642D01*
X99968928Y-91701071D01*
X99897500Y-91629642D01*
X99968928Y-91558214D01*
X99968928Y-91701071D01*
X99968928Y-90772500D02*
X100040357Y-90843928D01*
X99968928Y-90915357D01*
X99897500Y-90843928D01*
X99968928Y-90772500D01*
X99968928Y-90915357D01*
X101611785Y-90201071D02*
X102468928Y-90201071D01*
X102040357Y-91701071D02*
X102040357Y-90201071D01*
X102968928Y-91701071D02*
X102968928Y-90701071D01*
X102968928Y-90201071D02*
X102897500Y-90272500D01*
X102968928Y-90343928D01*
X103040357Y-90272500D01*
X102968928Y-90201071D01*
X102968928Y-90343928D01*
X103683214Y-91701071D02*
X103683214Y-90701071D01*
X103683214Y-90843928D02*
X103754642Y-90772500D01*
X103897500Y-90701071D01*
X104111785Y-90701071D01*
X104254642Y-90772500D01*
X104326071Y-90915357D01*
X104326071Y-91701071D01*
X104326071Y-90915357D02*
X104397500Y-90772500D01*
X104540357Y-90701071D01*
X104754642Y-90701071D01*
X104897500Y-90772500D01*
X104968928Y-90915357D01*
X104968928Y-91701071D01*
X105683214Y-91701071D02*
X105683214Y-90201071D01*
X106183214Y-91272500D01*
X106683214Y-90201071D01*
X106683214Y-91701071D01*
X107826071Y-90201071D02*
X107826071Y-91272500D01*
X107754642Y-91486785D01*
X107611785Y-91629642D01*
X107397500Y-91701071D01*
X107254642Y-91701071D01*
X108540357Y-91701071D02*
X108540357Y-90201071D01*
X109397499Y-91701071D01*
X109397499Y-90201071D01*
X107542857Y-181547619D02*
X107590476Y-181500000D01*
X107685714Y-181452380D01*
X107923809Y-181452380D01*
X108019047Y-181500000D01*
X108066666Y-181547619D01*
X108114285Y-181642857D01*
X108114285Y-181738095D01*
X108066666Y-181880952D01*
X107495238Y-182452380D01*
X108114285Y-182452380D01*
X108685714Y-181880952D02*
X108590476Y-181833333D01*
X108542857Y-181785714D01*
X108495238Y-181690476D01*
X108495238Y-181642857D01*
X108542857Y-181547619D01*
X108590476Y-181500000D01*
X108685714Y-181452380D01*
X108876190Y-181452380D01*
X108971428Y-181500000D01*
X109019047Y-181547619D01*
X109066666Y-181642857D01*
X109066666Y-181690476D01*
X109019047Y-181785714D01*
X108971428Y-181833333D01*
X108876190Y-181880952D01*
X108685714Y-181880952D01*
X108590476Y-181928571D01*
X108542857Y-181976190D01*
X108495238Y-182071428D01*
X108495238Y-182261904D01*
X108542857Y-182357142D01*
X108590476Y-182404761D01*
X108685714Y-182452380D01*
X108876190Y-182452380D01*
X108971428Y-182404761D01*
X109019047Y-182357142D01*
X109066666Y-182261904D01*
X109066666Y-182071428D01*
X109019047Y-181976190D01*
X108971428Y-181928571D01*
X108876190Y-181880952D01*
X109495238Y-182071428D02*
X110257142Y-182071428D01*
X110923809Y-181452380D02*
X111019047Y-181452380D01*
X111114285Y-181500000D01*
X111161904Y-181547619D01*
X111209523Y-181642857D01*
X111257142Y-181833333D01*
X111257142Y-182071428D01*
X111209523Y-182261904D01*
X111161904Y-182357142D01*
X111114285Y-182404761D01*
X111019047Y-182452380D01*
X110923809Y-182452380D01*
X110828571Y-182404761D01*
X110780952Y-182357142D01*
X110733333Y-182261904D01*
X110685714Y-182071428D01*
X110685714Y-181833333D01*
X110733333Y-181642857D01*
X110780952Y-181547619D01*
X110828571Y-181500000D01*
X110923809Y-181452380D01*
X111828571Y-181880952D02*
X111733333Y-181833333D01*
X111685714Y-181785714D01*
X111638095Y-181690476D01*
X111638095Y-181642857D01*
X111685714Y-181547619D01*
X111733333Y-181500000D01*
X111828571Y-181452380D01*
X112019047Y-181452380D01*
X112114285Y-181500000D01*
X112161904Y-181547619D01*
X112209523Y-181642857D01*
X112209523Y-181690476D01*
X112161904Y-181785714D01*
X112114285Y-181833333D01*
X112019047Y-181880952D01*
X111828571Y-181880952D01*
X111733333Y-181928571D01*
X111685714Y-181976190D01*
X111638095Y-182071428D01*
X111638095Y-182261904D01*
X111685714Y-182357142D01*
X111733333Y-182404761D01*
X111828571Y-182452380D01*
X112019047Y-182452380D01*
X112114285Y-182404761D01*
X112161904Y-182357142D01*
X112209523Y-182261904D01*
X112209523Y-182071428D01*
X112161904Y-181976190D01*
X112114285Y-181928571D01*
X112019047Y-181880952D01*
X112638095Y-182071428D02*
X113400000Y-182071428D01*
X113828571Y-181547619D02*
X113876190Y-181500000D01*
X113971428Y-181452380D01*
X114209523Y-181452380D01*
X114304761Y-181500000D01*
X114352380Y-181547619D01*
X114400000Y-181642857D01*
X114400000Y-181738095D01*
X114352380Y-181880952D01*
X113780952Y-182452380D01*
X114400000Y-182452380D01*
X115019047Y-181452380D02*
X115114285Y-181452380D01*
X115209523Y-181500000D01*
X115257142Y-181547619D01*
X115304761Y-181642857D01*
X115352380Y-181833333D01*
X115352380Y-182071428D01*
X115304761Y-182261904D01*
X115257142Y-182357142D01*
X115209523Y-182404761D01*
X115114285Y-182452380D01*
X115019047Y-182452380D01*
X114923809Y-182404761D01*
X114876190Y-182357142D01*
X114828571Y-182261904D01*
X114780952Y-182071428D01*
X114780952Y-181833333D01*
X114828571Y-181642857D01*
X114876190Y-181547619D01*
X114923809Y-181500000D01*
X115019047Y-181452380D01*
X115733333Y-181547619D02*
X115780952Y-181500000D01*
X115876190Y-181452380D01*
X116114285Y-181452380D01*
X116209523Y-181500000D01*
X116257142Y-181547619D01*
X116304761Y-181642857D01*
X116304761Y-181738095D01*
X116257142Y-181880952D01*
X115685714Y-182452380D01*
X116304761Y-182452380D01*
X116685714Y-181547619D02*
X116733333Y-181500000D01*
X116828571Y-181452380D01*
X117066666Y-181452380D01*
X117161904Y-181500000D01*
X117209523Y-181547619D01*
X117257142Y-181642857D01*
X117257142Y-181738095D01*
X117209523Y-181880952D01*
X116638095Y-182452380D01*
X117257142Y-182452380D01*
D11*
X82976190Y-78421428D02*
X83809523Y-78421428D01*
X84166666Y-79730952D02*
X82976190Y-79730952D01*
X82976190Y-77230952D01*
X84166666Y-77230952D01*
X85238095Y-78064285D02*
X85238095Y-79730952D01*
X85238095Y-78302380D02*
X85357142Y-78183333D01*
X85595238Y-78064285D01*
X85952380Y-78064285D01*
X86190476Y-78183333D01*
X86309523Y-78421428D01*
X86309523Y-79730952D01*
X87261904Y-78064285D02*
X87857142Y-79730952D01*
X88452380Y-78064285D01*
X90357142Y-79611904D02*
X90119047Y-79730952D01*
X89642857Y-79730952D01*
X89404761Y-79611904D01*
X89285714Y-79373809D01*
X89285714Y-78421428D01*
X89404761Y-78183333D01*
X89642857Y-78064285D01*
X90119047Y-78064285D01*
X90357142Y-78183333D01*
X90476190Y-78421428D01*
X90476190Y-78659523D01*
X89285714Y-78897619D01*
X91904761Y-79730952D02*
X91666666Y-79611904D01*
X91547619Y-79373809D01*
X91547619Y-77230952D01*
X93214285Y-79730952D02*
X92976190Y-79611904D01*
X92857142Y-79492857D01*
X92738095Y-79254761D01*
X92738095Y-78540476D01*
X92857142Y-78302380D01*
X92976190Y-78183333D01*
X93214285Y-78064285D01*
X93571428Y-78064285D01*
X93809523Y-78183333D01*
X93928571Y-78302380D01*
X94047619Y-78540476D01*
X94047619Y-79254761D01*
X93928571Y-79492857D01*
X93809523Y-79611904D01*
X93571428Y-79730952D01*
X93214285Y-79730952D01*
X95119047Y-78064285D02*
X95119047Y-80564285D01*
X95119047Y-78183333D02*
X95357142Y-78064285D01*
X95833333Y-78064285D01*
X96071428Y-78183333D01*
X96190476Y-78302380D01*
X96309523Y-78540476D01*
X96309523Y-79254761D01*
X96190476Y-79492857D01*
X96071428Y-79611904D01*
X95833333Y-79730952D01*
X95357142Y-79730952D01*
X95119047Y-79611904D01*
X98333333Y-79611904D02*
X98095238Y-79730952D01*
X97619047Y-79730952D01*
X97380952Y-79611904D01*
X97261904Y-79373809D01*
X97261904Y-78421428D01*
X97380952Y-78183333D01*
X97619047Y-78064285D01*
X98095238Y-78064285D01*
X98333333Y-78183333D01*
X98452380Y-78421428D01*
X98452380Y-78659523D01*
X97261904Y-78897619D01*
X99523809Y-78778571D02*
X101428571Y-78778571D01*
X103095238Y-77230952D02*
X103571428Y-77230952D01*
X103809523Y-77350000D01*
X104047619Y-77588095D01*
X104166666Y-78064285D01*
X104166666Y-78897619D01*
X104047619Y-79373809D01*
X103809523Y-79611904D01*
X103571428Y-79730952D01*
X103095238Y-79730952D01*
X102857142Y-79611904D01*
X102619047Y-79373809D01*
X102500000Y-78897619D01*
X102500000Y-78064285D01*
X102619047Y-77588095D01*
X102857142Y-77350000D01*
X103095238Y-77230952D01*
X105238095Y-78778571D02*
X107142857Y-78778571D01*
X108333333Y-79730952D02*
X108333333Y-77230952D01*
X109166666Y-79016666D01*
X110000000Y-77230952D01*
X110000000Y-79730952D01*
X112261904Y-79730952D02*
X112261904Y-78421428D01*
X112142857Y-78183333D01*
X111904761Y-78064285D01*
X111428571Y-78064285D01*
X111190476Y-78183333D01*
X112261904Y-79611904D02*
X112023809Y-79730952D01*
X111428571Y-79730952D01*
X111190476Y-79611904D01*
X111071428Y-79373809D01*
X111071428Y-79135714D01*
X111190476Y-78897619D01*
X111428571Y-78778571D01*
X112023809Y-78778571D01*
X112261904Y-78659523D01*
X113095238Y-78064285D02*
X114047619Y-78064285D01*
X113452380Y-77230952D02*
X113452380Y-79373809D01*
X113571428Y-79611904D01*
X113809523Y-79730952D01*
X114047619Y-79730952D01*
X114880952Y-79730952D02*
X114880952Y-78064285D01*
X114880952Y-77230952D02*
X114761904Y-77350000D01*
X114880952Y-77469047D01*
X115000000Y-77350000D01*
X114880952Y-77230952D01*
X114880952Y-77469047D01*
X117142857Y-79611904D02*
X116904761Y-79730952D01*
X116428571Y-79730952D01*
X116190476Y-79611904D01*
X116071428Y-79492857D01*
X115952380Y-79254761D01*
X115952380Y-78540476D01*
X116071428Y-78302380D01*
X116190476Y-78183333D01*
X116428571Y-78064285D01*
X116904761Y-78064285D01*
X117142857Y-78183333D01*
D10*
%TO.C,R29*%
X88452380Y-156442857D02*
X87976190Y-156776190D01*
X88452380Y-157014285D02*
X87452380Y-157014285D01*
X87452380Y-156633333D01*
X87500000Y-156538095D01*
X87547619Y-156490476D01*
X87642857Y-156442857D01*
X87785714Y-156442857D01*
X87880952Y-156490476D01*
X87928571Y-156538095D01*
X87976190Y-156633333D01*
X87976190Y-157014285D01*
X87547619Y-156061904D02*
X87500000Y-156014285D01*
X87452380Y-155919047D01*
X87452380Y-155680952D01*
X87500000Y-155585714D01*
X87547619Y-155538095D01*
X87642857Y-155490476D01*
X87738095Y-155490476D01*
X87880952Y-155538095D01*
X88452380Y-156109523D01*
X88452380Y-155490476D01*
X88452380Y-155014285D02*
X88452380Y-154823809D01*
X88404761Y-154728571D01*
X88357142Y-154680952D01*
X88214285Y-154585714D01*
X88023809Y-154538095D01*
X87642857Y-154538095D01*
X87547619Y-154585714D01*
X87500000Y-154633333D01*
X87452380Y-154728571D01*
X87452380Y-154919047D01*
X87500000Y-155014285D01*
X87547619Y-155061904D01*
X87642857Y-155109523D01*
X87880952Y-155109523D01*
X87976190Y-155061904D01*
X88023809Y-155014285D01*
X88071428Y-154919047D01*
X88071428Y-154728571D01*
X88023809Y-154633333D01*
X87976190Y-154585714D01*
X87880952Y-154538095D01*
X91452380Y-156871428D02*
X91452380Y-157442857D01*
X91452380Y-157157142D02*
X90452380Y-157157142D01*
X90595238Y-157252380D01*
X90690476Y-157347619D01*
X90738095Y-157442857D01*
X90452380Y-156252380D02*
X90452380Y-156157142D01*
X90500000Y-156061904D01*
X90547619Y-156014285D01*
X90642857Y-155966666D01*
X90833333Y-155919047D01*
X91071428Y-155919047D01*
X91261904Y-155966666D01*
X91357142Y-156014285D01*
X91404761Y-156061904D01*
X91452380Y-156157142D01*
X91452380Y-156252380D01*
X91404761Y-156347619D01*
X91357142Y-156395238D01*
X91261904Y-156442857D01*
X91071428Y-156490476D01*
X90833333Y-156490476D01*
X90642857Y-156442857D01*
X90547619Y-156395238D01*
X90500000Y-156347619D01*
X90452380Y-156252380D01*
X90452380Y-155300000D02*
X90452380Y-155204761D01*
X90500000Y-155109523D01*
X90547619Y-155061904D01*
X90642857Y-155014285D01*
X90833333Y-154966666D01*
X91071428Y-154966666D01*
X91261904Y-155014285D01*
X91357142Y-155061904D01*
X91404761Y-155109523D01*
X91452380Y-155204761D01*
X91452380Y-155300000D01*
X91404761Y-155395238D01*
X91357142Y-155442857D01*
X91261904Y-155490476D01*
X91071428Y-155538095D01*
X90833333Y-155538095D01*
X90642857Y-155490476D01*
X90547619Y-155442857D01*
X90500000Y-155395238D01*
X90452380Y-155300000D01*
X91452380Y-154538095D02*
X90452380Y-154538095D01*
X91071428Y-154442857D02*
X91452380Y-154157142D01*
X90785714Y-154157142D02*
X91166666Y-154538095D01*
%TO.C,ENV_OUT1*%
X90547619Y-184928571D02*
X90880952Y-184928571D01*
X91023809Y-185452380D02*
X90547619Y-185452380D01*
X90547619Y-184452380D01*
X91023809Y-184452380D01*
X91452380Y-185452380D02*
X91452380Y-184452380D01*
X92023809Y-185452380D01*
X92023809Y-184452380D01*
X92357142Y-184452380D02*
X92690476Y-185452380D01*
X93023809Y-184452380D01*
X93119047Y-185547619D02*
X93880952Y-185547619D01*
X94309523Y-184452380D02*
X94500000Y-184452380D01*
X94595238Y-184500000D01*
X94690476Y-184595238D01*
X94738095Y-184785714D01*
X94738095Y-185119047D01*
X94690476Y-185309523D01*
X94595238Y-185404761D01*
X94500000Y-185452380D01*
X94309523Y-185452380D01*
X94214285Y-185404761D01*
X94119047Y-185309523D01*
X94071428Y-185119047D01*
X94071428Y-184785714D01*
X94119047Y-184595238D01*
X94214285Y-184500000D01*
X94309523Y-184452380D01*
X95166666Y-184452380D02*
X95166666Y-185261904D01*
X95214285Y-185357142D01*
X95261904Y-185404761D01*
X95357142Y-185452380D01*
X95547619Y-185452380D01*
X95642857Y-185404761D01*
X95690476Y-185357142D01*
X95738095Y-185261904D01*
X95738095Y-184452380D01*
X96071428Y-184452380D02*
X96642857Y-184452380D01*
X96357142Y-185452380D02*
X96357142Y-184452380D01*
X97500000Y-185452380D02*
X96928571Y-185452380D01*
X97214285Y-185452380D02*
X97214285Y-184452380D01*
X97119047Y-184595238D01*
X97023809Y-184690476D01*
X96928571Y-184738095D01*
X96904761Y-179285714D02*
X96952380Y-179142857D01*
X96952380Y-178904761D01*
X96904761Y-178809523D01*
X96857142Y-178761904D01*
X96761904Y-178714285D01*
X96666666Y-178714285D01*
X96571428Y-178761904D01*
X96523809Y-178809523D01*
X96476190Y-178904761D01*
X96428571Y-179095238D01*
X96380952Y-179190476D01*
X96333333Y-179238095D01*
X96238095Y-179285714D01*
X96142857Y-179285714D01*
X96047619Y-179238095D01*
X96000000Y-179190476D01*
X95952380Y-179095238D01*
X95952380Y-178857142D01*
X96000000Y-178714285D01*
X95952380Y-181785714D02*
X95952380Y-181214285D01*
X96952380Y-181500000D02*
X95952380Y-181500000D01*
%TO.C,R2*%
X103952380Y-169166666D02*
X103476190Y-169500000D01*
X103952380Y-169738095D02*
X102952380Y-169738095D01*
X102952380Y-169357142D01*
X103000000Y-169261904D01*
X103047619Y-169214285D01*
X103142857Y-169166666D01*
X103285714Y-169166666D01*
X103380952Y-169214285D01*
X103428571Y-169261904D01*
X103476190Y-169357142D01*
X103476190Y-169738095D01*
X103047619Y-168785714D02*
X103000000Y-168738095D01*
X102952380Y-168642857D01*
X102952380Y-168404761D01*
X103000000Y-168309523D01*
X103047619Y-168261904D01*
X103142857Y-168214285D01*
X103238095Y-168214285D01*
X103380952Y-168261904D01*
X103952380Y-168833333D01*
X103952380Y-168214285D01*
X101452380Y-169595238D02*
X101452380Y-170166666D01*
X101452380Y-169880952D02*
X100452380Y-169880952D01*
X100595238Y-169976190D01*
X100690476Y-170071428D01*
X100738095Y-170166666D01*
X100452380Y-168976190D02*
X100452380Y-168880952D01*
X100500000Y-168785714D01*
X100547619Y-168738095D01*
X100642857Y-168690476D01*
X100833333Y-168642857D01*
X101071428Y-168642857D01*
X101261904Y-168690476D01*
X101357142Y-168738095D01*
X101404761Y-168785714D01*
X101452380Y-168880952D01*
X101452380Y-168976190D01*
X101404761Y-169071428D01*
X101357142Y-169119047D01*
X101261904Y-169166666D01*
X101071428Y-169214285D01*
X100833333Y-169214285D01*
X100642857Y-169166666D01*
X100547619Y-169119047D01*
X100500000Y-169071428D01*
X100452380Y-168976190D01*
X101452380Y-168214285D02*
X100452380Y-168214285D01*
X101071428Y-168119047D02*
X101452380Y-167833333D01*
X100785714Y-167833333D02*
X101166666Y-168214285D01*
%TO.C,C8*%
X99833333Y-142857142D02*
X99785714Y-142904761D01*
X99642857Y-142952380D01*
X99547619Y-142952380D01*
X99404761Y-142904761D01*
X99309523Y-142809523D01*
X99261904Y-142714285D01*
X99214285Y-142523809D01*
X99214285Y-142380952D01*
X99261904Y-142190476D01*
X99309523Y-142095238D01*
X99404761Y-142000000D01*
X99547619Y-141952380D01*
X99642857Y-141952380D01*
X99785714Y-142000000D01*
X99833333Y-142047619D01*
X100404761Y-142380952D02*
X100309523Y-142333333D01*
X100261904Y-142285714D01*
X100214285Y-142190476D01*
X100214285Y-142142857D01*
X100261904Y-142047619D01*
X100309523Y-142000000D01*
X100404761Y-141952380D01*
X100595238Y-141952380D01*
X100690476Y-142000000D01*
X100738095Y-142047619D01*
X100785714Y-142142857D01*
X100785714Y-142190476D01*
X100738095Y-142285714D01*
X100690476Y-142333333D01*
X100595238Y-142380952D01*
X100404761Y-142380952D01*
X100309523Y-142428571D01*
X100261904Y-142476190D01*
X100214285Y-142571428D01*
X100214285Y-142761904D01*
X100261904Y-142857142D01*
X100309523Y-142904761D01*
X100404761Y-142952380D01*
X100595238Y-142952380D01*
X100690476Y-142904761D01*
X100738095Y-142857142D01*
X100785714Y-142761904D01*
X100785714Y-142571428D01*
X100738095Y-142476190D01*
X100690476Y-142428571D01*
X100595238Y-142380952D01*
X98452380Y-137952380D02*
X97880952Y-137952380D01*
X98166666Y-137952380D02*
X98166666Y-136952380D01*
X98071428Y-137095238D01*
X97976190Y-137190476D01*
X97880952Y-137238095D01*
X99071428Y-136952380D02*
X99166666Y-136952380D01*
X99261904Y-137000000D01*
X99309523Y-137047619D01*
X99357142Y-137142857D01*
X99404761Y-137333333D01*
X99404761Y-137571428D01*
X99357142Y-137761904D01*
X99309523Y-137857142D01*
X99261904Y-137904761D01*
X99166666Y-137952380D01*
X99071428Y-137952380D01*
X98976190Y-137904761D01*
X98928571Y-137857142D01*
X98880952Y-137761904D01*
X98833333Y-137571428D01*
X98833333Y-137333333D01*
X98880952Y-137142857D01*
X98928571Y-137047619D01*
X98976190Y-137000000D01*
X99071428Y-136952380D01*
X100023809Y-136952380D02*
X100119047Y-136952380D01*
X100214285Y-137000000D01*
X100261904Y-137047619D01*
X100309523Y-137142857D01*
X100357142Y-137333333D01*
X100357142Y-137571428D01*
X100309523Y-137761904D01*
X100261904Y-137857142D01*
X100214285Y-137904761D01*
X100119047Y-137952380D01*
X100023809Y-137952380D01*
X99928571Y-137904761D01*
X99880952Y-137857142D01*
X99833333Y-137761904D01*
X99785714Y-137571428D01*
X99785714Y-137333333D01*
X99833333Y-137142857D01*
X99880952Y-137047619D01*
X99928571Y-137000000D01*
X100023809Y-136952380D01*
X100785714Y-137285714D02*
X100785714Y-137952380D01*
X100785714Y-137380952D02*
X100833333Y-137333333D01*
X100928571Y-137285714D01*
X101071428Y-137285714D01*
X101166666Y-137333333D01*
X101214285Y-137428571D01*
X101214285Y-137952380D01*
X102023809Y-137428571D02*
X101690476Y-137428571D01*
X101690476Y-137952380D02*
X101690476Y-136952380D01*
X102166666Y-136952380D01*
%TO.C,R28*%
X111822380Y-156522857D02*
X111346190Y-156856190D01*
X111822380Y-157094285D02*
X110822380Y-157094285D01*
X110822380Y-156713333D01*
X110870000Y-156618095D01*
X110917619Y-156570476D01*
X111012857Y-156522857D01*
X111155714Y-156522857D01*
X111250952Y-156570476D01*
X111298571Y-156618095D01*
X111346190Y-156713333D01*
X111346190Y-157094285D01*
X110917619Y-156141904D02*
X110870000Y-156094285D01*
X110822380Y-155999047D01*
X110822380Y-155760952D01*
X110870000Y-155665714D01*
X110917619Y-155618095D01*
X111012857Y-155570476D01*
X111108095Y-155570476D01*
X111250952Y-155618095D01*
X111822380Y-156189523D01*
X111822380Y-155570476D01*
X111250952Y-154999047D02*
X111203333Y-155094285D01*
X111155714Y-155141904D01*
X111060476Y-155189523D01*
X111012857Y-155189523D01*
X110917619Y-155141904D01*
X110870000Y-155094285D01*
X110822380Y-154999047D01*
X110822380Y-154808571D01*
X110870000Y-154713333D01*
X110917619Y-154665714D01*
X111012857Y-154618095D01*
X111060476Y-154618095D01*
X111155714Y-154665714D01*
X111203333Y-154713333D01*
X111250952Y-154808571D01*
X111250952Y-154999047D01*
X111298571Y-155094285D01*
X111346190Y-155141904D01*
X111441428Y-155189523D01*
X111631904Y-155189523D01*
X111727142Y-155141904D01*
X111774761Y-155094285D01*
X111822380Y-154999047D01*
X111822380Y-154808571D01*
X111774761Y-154713333D01*
X111727142Y-154665714D01*
X111631904Y-154618095D01*
X111441428Y-154618095D01*
X111346190Y-154665714D01*
X111298571Y-154713333D01*
X111250952Y-154808571D01*
X109452380Y-156951428D02*
X109452380Y-157522857D01*
X109452380Y-157237142D02*
X108452380Y-157237142D01*
X108595238Y-157332380D01*
X108690476Y-157427619D01*
X108738095Y-157522857D01*
X108452380Y-156332380D02*
X108452380Y-156237142D01*
X108500000Y-156141904D01*
X108547619Y-156094285D01*
X108642857Y-156046666D01*
X108833333Y-155999047D01*
X109071428Y-155999047D01*
X109261904Y-156046666D01*
X109357142Y-156094285D01*
X109404761Y-156141904D01*
X109452380Y-156237142D01*
X109452380Y-156332380D01*
X109404761Y-156427619D01*
X109357142Y-156475238D01*
X109261904Y-156522857D01*
X109071428Y-156570476D01*
X108833333Y-156570476D01*
X108642857Y-156522857D01*
X108547619Y-156475238D01*
X108500000Y-156427619D01*
X108452380Y-156332380D01*
X108452380Y-155380000D02*
X108452380Y-155284761D01*
X108500000Y-155189523D01*
X108547619Y-155141904D01*
X108642857Y-155094285D01*
X108833333Y-155046666D01*
X109071428Y-155046666D01*
X109261904Y-155094285D01*
X109357142Y-155141904D01*
X109404761Y-155189523D01*
X109452380Y-155284761D01*
X109452380Y-155380000D01*
X109404761Y-155475238D01*
X109357142Y-155522857D01*
X109261904Y-155570476D01*
X109071428Y-155618095D01*
X108833333Y-155618095D01*
X108642857Y-155570476D01*
X108547619Y-155522857D01*
X108500000Y-155475238D01*
X108452380Y-155380000D01*
X109452380Y-154618095D02*
X108452380Y-154618095D01*
X109071428Y-154522857D02*
X109452380Y-154237142D01*
X108785714Y-154237142D02*
X109166666Y-154618095D01*
%TO.C,C9*%
X99833333Y-121607142D02*
X99785714Y-121654761D01*
X99642857Y-121702380D01*
X99547619Y-121702380D01*
X99404761Y-121654761D01*
X99309523Y-121559523D01*
X99261904Y-121464285D01*
X99214285Y-121273809D01*
X99214285Y-121130952D01*
X99261904Y-120940476D01*
X99309523Y-120845238D01*
X99404761Y-120750000D01*
X99547619Y-120702380D01*
X99642857Y-120702380D01*
X99785714Y-120750000D01*
X99833333Y-120797619D01*
X100309523Y-121702380D02*
X100500000Y-121702380D01*
X100595238Y-121654761D01*
X100642857Y-121607142D01*
X100738095Y-121464285D01*
X100785714Y-121273809D01*
X100785714Y-120892857D01*
X100738095Y-120797619D01*
X100690476Y-120750000D01*
X100595238Y-120702380D01*
X100404761Y-120702380D01*
X100309523Y-120750000D01*
X100261904Y-120797619D01*
X100214285Y-120892857D01*
X100214285Y-121130952D01*
X100261904Y-121226190D01*
X100309523Y-121273809D01*
X100404761Y-121321428D01*
X100595238Y-121321428D01*
X100690476Y-121273809D01*
X100738095Y-121226190D01*
X100785714Y-121130952D01*
X98357142Y-128535714D02*
X98357142Y-129202380D01*
X98119047Y-128154761D02*
X97880952Y-128869047D01*
X98500000Y-128869047D01*
X98785714Y-128202380D02*
X99452380Y-128202380D01*
X99023809Y-129202380D01*
X100023809Y-128202380D02*
X100119047Y-128202380D01*
X100214285Y-128250000D01*
X100261904Y-128297619D01*
X100309523Y-128392857D01*
X100357142Y-128583333D01*
X100357142Y-128821428D01*
X100309523Y-129011904D01*
X100261904Y-129107142D01*
X100214285Y-129154761D01*
X100119047Y-129202380D01*
X100023809Y-129202380D01*
X99928571Y-129154761D01*
X99880952Y-129107142D01*
X99833333Y-129011904D01*
X99785714Y-128821428D01*
X99785714Y-128583333D01*
X99833333Y-128392857D01*
X99880952Y-128297619D01*
X99928571Y-128250000D01*
X100023809Y-128202380D01*
X100785714Y-128535714D02*
X100785714Y-129202380D01*
X100785714Y-128630952D02*
X100833333Y-128583333D01*
X100928571Y-128535714D01*
X101071428Y-128535714D01*
X101166666Y-128583333D01*
X101214285Y-128678571D01*
X101214285Y-129202380D01*
X102023809Y-128678571D02*
X101690476Y-128678571D01*
X101690476Y-129202380D02*
X101690476Y-128202380D01*
X102166666Y-128202380D01*
%TO.C,ENV_INV1*%
X98485714Y-184928571D02*
X98819047Y-184928571D01*
X98961904Y-185452380D02*
X98485714Y-185452380D01*
X98485714Y-184452380D01*
X98961904Y-184452380D01*
X99390476Y-185452380D02*
X99390476Y-184452380D01*
X99961904Y-185452380D01*
X99961904Y-184452380D01*
X100295238Y-184452380D02*
X100628571Y-185452380D01*
X100961904Y-184452380D01*
X101057142Y-185547619D02*
X101819047Y-185547619D01*
X102057142Y-185452380D02*
X102057142Y-184452380D01*
X102533333Y-185452380D02*
X102533333Y-184452380D01*
X103104761Y-185452380D01*
X103104761Y-184452380D01*
X103438095Y-184452380D02*
X103771428Y-185452380D01*
X104104761Y-184452380D01*
X104961904Y-185452380D02*
X104390476Y-185452380D01*
X104676190Y-185452380D02*
X104676190Y-184452380D01*
X104580952Y-184595238D01*
X104485714Y-184690476D01*
X104390476Y-184738095D01*
X104904761Y-179285714D02*
X104952380Y-179142857D01*
X104952380Y-178904761D01*
X104904761Y-178809523D01*
X104857142Y-178761904D01*
X104761904Y-178714285D01*
X104666666Y-178714285D01*
X104571428Y-178761904D01*
X104523809Y-178809523D01*
X104476190Y-178904761D01*
X104428571Y-179095238D01*
X104380952Y-179190476D01*
X104333333Y-179238095D01*
X104238095Y-179285714D01*
X104142857Y-179285714D01*
X104047619Y-179238095D01*
X104000000Y-179190476D01*
X103952380Y-179095238D01*
X103952380Y-178857142D01*
X104000000Y-178714285D01*
X103952380Y-181785714D02*
X103952380Y-181214285D01*
X104952380Y-181500000D02*
X103952380Y-181500000D01*
%TO.C,CN2*%
X116282523Y-118500142D02*
X116234904Y-118547761D01*
X116092047Y-118595380D01*
X115996809Y-118595380D01*
X115853952Y-118547761D01*
X115758714Y-118452523D01*
X115711095Y-118357285D01*
X115663476Y-118166809D01*
X115663476Y-118023952D01*
X115711095Y-117833476D01*
X115758714Y-117738238D01*
X115853952Y-117643000D01*
X115996809Y-117595380D01*
X116092047Y-117595380D01*
X116234904Y-117643000D01*
X116282523Y-117690619D01*
X116711095Y-118595380D02*
X116711095Y-117595380D01*
X117282523Y-118595380D01*
X117282523Y-117595380D01*
X117711095Y-117690619D02*
X117758714Y-117643000D01*
X117853952Y-117595380D01*
X118092047Y-117595380D01*
X118187285Y-117643000D01*
X118234904Y-117690619D01*
X118282523Y-117785857D01*
X118282523Y-117881095D01*
X118234904Y-118023952D01*
X117663476Y-118595380D01*
X118282523Y-118595380D01*
%TO.C,GATE_OUT1*%
X79714285Y-184500000D02*
X79619047Y-184452380D01*
X79476190Y-184452380D01*
X79333333Y-184500000D01*
X79238095Y-184595238D01*
X79190476Y-184690476D01*
X79142857Y-184880952D01*
X79142857Y-185023809D01*
X79190476Y-185214285D01*
X79238095Y-185309523D01*
X79333333Y-185404761D01*
X79476190Y-185452380D01*
X79571428Y-185452380D01*
X79714285Y-185404761D01*
X79761904Y-185357142D01*
X79761904Y-185023809D01*
X79571428Y-185023809D01*
X80142857Y-185166666D02*
X80619047Y-185166666D01*
X80047619Y-185452380D02*
X80380952Y-184452380D01*
X80714285Y-185452380D01*
X80904761Y-184452380D02*
X81476190Y-184452380D01*
X81190476Y-185452380D02*
X81190476Y-184452380D01*
X81809523Y-184928571D02*
X82142857Y-184928571D01*
X82285714Y-185452380D02*
X81809523Y-185452380D01*
X81809523Y-184452380D01*
X82285714Y-184452380D01*
X82476190Y-185547619D02*
X83238095Y-185547619D01*
X83666666Y-184452380D02*
X83857142Y-184452380D01*
X83952380Y-184500000D01*
X84047619Y-184595238D01*
X84095238Y-184785714D01*
X84095238Y-185119047D01*
X84047619Y-185309523D01*
X83952380Y-185404761D01*
X83857142Y-185452380D01*
X83666666Y-185452380D01*
X83571428Y-185404761D01*
X83476190Y-185309523D01*
X83428571Y-185119047D01*
X83428571Y-184785714D01*
X83476190Y-184595238D01*
X83571428Y-184500000D01*
X83666666Y-184452380D01*
X84523809Y-184452380D02*
X84523809Y-185261904D01*
X84571428Y-185357142D01*
X84619047Y-185404761D01*
X84714285Y-185452380D01*
X84904761Y-185452380D01*
X85000000Y-185404761D01*
X85047619Y-185357142D01*
X85095238Y-185261904D01*
X85095238Y-184452380D01*
X85428571Y-184452380D02*
X86000000Y-184452380D01*
X85714285Y-185452380D02*
X85714285Y-184452380D01*
X86857142Y-185452380D02*
X86285714Y-185452380D01*
X86571428Y-185452380D02*
X86571428Y-184452380D01*
X86476190Y-184595238D01*
X86380952Y-184690476D01*
X86285714Y-184738095D01*
X83952380Y-181785714D02*
X83952380Y-181214285D01*
X84952380Y-181500000D02*
X83952380Y-181500000D01*
X84904761Y-179285714D02*
X84952380Y-179142857D01*
X84952380Y-178904761D01*
X84904761Y-178809523D01*
X84857142Y-178761904D01*
X84761904Y-178714285D01*
X84666666Y-178714285D01*
X84571428Y-178761904D01*
X84523809Y-178809523D01*
X84476190Y-178904761D01*
X84428571Y-179095238D01*
X84380952Y-179190476D01*
X84333333Y-179238095D01*
X84238095Y-179285714D01*
X84142857Y-179285714D01*
X84047619Y-179238095D01*
X84000000Y-179190476D01*
X83952380Y-179095238D01*
X83952380Y-178857142D01*
X84000000Y-178714285D01*
%TO.C,R3*%
X93822380Y-169166666D02*
X93346190Y-169500000D01*
X93822380Y-169738095D02*
X92822380Y-169738095D01*
X92822380Y-169357142D01*
X92870000Y-169261904D01*
X92917619Y-169214285D01*
X93012857Y-169166666D01*
X93155714Y-169166666D01*
X93250952Y-169214285D01*
X93298571Y-169261904D01*
X93346190Y-169357142D01*
X93346190Y-169738095D01*
X92822380Y-168833333D02*
X92822380Y-168214285D01*
X93203333Y-168547619D01*
X93203333Y-168404761D01*
X93250952Y-168309523D01*
X93298571Y-168261904D01*
X93393809Y-168214285D01*
X93631904Y-168214285D01*
X93727142Y-168261904D01*
X93774761Y-168309523D01*
X93822380Y-168404761D01*
X93822380Y-168690476D01*
X93774761Y-168785714D01*
X93727142Y-168833333D01*
X91452380Y-169119047D02*
X91452380Y-169690476D01*
X91452380Y-169404761D02*
X90452380Y-169404761D01*
X90595238Y-169500000D01*
X90690476Y-169595238D01*
X90738095Y-169690476D01*
X91452380Y-168690476D02*
X90452380Y-168690476D01*
X91071428Y-168595238D02*
X91452380Y-168309523D01*
X90785714Y-168309523D02*
X91166666Y-168690476D01*
%TO.C,R1*%
X108822380Y-169166666D02*
X108346190Y-169500000D01*
X108822380Y-169738095D02*
X107822380Y-169738095D01*
X107822380Y-169357142D01*
X107870000Y-169261904D01*
X107917619Y-169214285D01*
X108012857Y-169166666D01*
X108155714Y-169166666D01*
X108250952Y-169214285D01*
X108298571Y-169261904D01*
X108346190Y-169357142D01*
X108346190Y-169738095D01*
X108822380Y-168214285D02*
X108822380Y-168785714D01*
X108822380Y-168500000D02*
X107822380Y-168500000D01*
X107965238Y-168595238D01*
X108060476Y-168690476D01*
X108108095Y-168785714D01*
X106452380Y-169285714D02*
X106452380Y-169857142D01*
X106452380Y-169571428D02*
X105452380Y-169571428D01*
X105595238Y-169666666D01*
X105690476Y-169761904D01*
X105738095Y-169857142D01*
X106452380Y-168857142D02*
X105452380Y-168857142D01*
X106166666Y-168523809D01*
X105452380Y-168190476D01*
X106452380Y-168190476D01*
%TO.C,CN1*%
X80722523Y-118499142D02*
X80674904Y-118546761D01*
X80532047Y-118594380D01*
X80436809Y-118594380D01*
X80293952Y-118546761D01*
X80198714Y-118451523D01*
X80151095Y-118356285D01*
X80103476Y-118165809D01*
X80103476Y-118022952D01*
X80151095Y-117832476D01*
X80198714Y-117737238D01*
X80293952Y-117642000D01*
X80436809Y-117594380D01*
X80532047Y-117594380D01*
X80674904Y-117642000D01*
X80722523Y-117689619D01*
X81151095Y-118594380D02*
X81151095Y-117594380D01*
X81722523Y-118594380D01*
X81722523Y-117594380D01*
X82722523Y-118594380D02*
X82151095Y-118594380D01*
X82436809Y-118594380D02*
X82436809Y-117594380D01*
X82341571Y-117737238D01*
X82246333Y-117832476D01*
X82151095Y-117880095D01*
%TO.C,SIGNAL_IN1*%
X108750000Y-177404761D02*
X108892857Y-177452380D01*
X109130952Y-177452380D01*
X109226190Y-177404761D01*
X109273809Y-177357142D01*
X109321428Y-177261904D01*
X109321428Y-177166666D01*
X109273809Y-177071428D01*
X109226190Y-177023809D01*
X109130952Y-176976190D01*
X108940476Y-176928571D01*
X108845238Y-176880952D01*
X108797619Y-176833333D01*
X108750000Y-176738095D01*
X108750000Y-176642857D01*
X108797619Y-176547619D01*
X108845238Y-176500000D01*
X108940476Y-176452380D01*
X109178571Y-176452380D01*
X109321428Y-176500000D01*
X109750000Y-177452380D02*
X109750000Y-176452380D01*
X110750000Y-176500000D02*
X110654761Y-176452380D01*
X110511904Y-176452380D01*
X110369047Y-176500000D01*
X110273809Y-176595238D01*
X110226190Y-176690476D01*
X110178571Y-176880952D01*
X110178571Y-177023809D01*
X110226190Y-177214285D01*
X110273809Y-177309523D01*
X110369047Y-177404761D01*
X110511904Y-177452380D01*
X110607142Y-177452380D01*
X110750000Y-177404761D01*
X110797619Y-177357142D01*
X110797619Y-177023809D01*
X110607142Y-177023809D01*
X111226190Y-177452380D02*
X111226190Y-176452380D01*
X111797619Y-177452380D01*
X111797619Y-176452380D01*
X112226190Y-177166666D02*
X112702380Y-177166666D01*
X112130952Y-177452380D02*
X112464285Y-176452380D01*
X112797619Y-177452380D01*
X113607142Y-177452380D02*
X113130952Y-177452380D01*
X113130952Y-176452380D01*
X113702380Y-177547619D02*
X114464285Y-177547619D01*
X114702380Y-177452380D02*
X114702380Y-176452380D01*
X115178571Y-177452380D02*
X115178571Y-176452380D01*
X115750000Y-177452380D01*
X115750000Y-176452380D01*
X116750000Y-177452380D02*
X116178571Y-177452380D01*
X116464285Y-177452380D02*
X116464285Y-176452380D01*
X116369047Y-176595238D01*
X116273809Y-176690476D01*
X116178571Y-176738095D01*
X113714285Y-171404761D02*
X113857142Y-171452380D01*
X114095238Y-171452380D01*
X114190476Y-171404761D01*
X114238095Y-171357142D01*
X114285714Y-171261904D01*
X114285714Y-171166666D01*
X114238095Y-171071428D01*
X114190476Y-171023809D01*
X114095238Y-170976190D01*
X113904761Y-170928571D01*
X113809523Y-170880952D01*
X113761904Y-170833333D01*
X113714285Y-170738095D01*
X113714285Y-170642857D01*
X113761904Y-170547619D01*
X113809523Y-170500000D01*
X113904761Y-170452380D01*
X114142857Y-170452380D01*
X114285714Y-170500000D01*
X111214285Y-170452380D02*
X111785714Y-170452380D01*
X111500000Y-171452380D02*
X111500000Y-170452380D01*
%TO.C,R25*%
X88952380Y-169642857D02*
X88476190Y-169976190D01*
X88952380Y-170214285D02*
X87952380Y-170214285D01*
X87952380Y-169833333D01*
X88000000Y-169738095D01*
X88047619Y-169690476D01*
X88142857Y-169642857D01*
X88285714Y-169642857D01*
X88380952Y-169690476D01*
X88428571Y-169738095D01*
X88476190Y-169833333D01*
X88476190Y-170214285D01*
X88047619Y-169261904D02*
X88000000Y-169214285D01*
X87952380Y-169119047D01*
X87952380Y-168880952D01*
X88000000Y-168785714D01*
X88047619Y-168738095D01*
X88142857Y-168690476D01*
X88238095Y-168690476D01*
X88380952Y-168738095D01*
X88952380Y-169309523D01*
X88952380Y-168690476D01*
X87952380Y-167785714D02*
X87952380Y-168261904D01*
X88428571Y-168309523D01*
X88380952Y-168261904D01*
X88333333Y-168166666D01*
X88333333Y-167928571D01*
X88380952Y-167833333D01*
X88428571Y-167785714D01*
X88523809Y-167738095D01*
X88761904Y-167738095D01*
X88857142Y-167785714D01*
X88904761Y-167833333D01*
X88952380Y-167928571D01*
X88952380Y-168166666D01*
X88904761Y-168261904D01*
X88857142Y-168309523D01*
X85785714Y-169690476D02*
X86452380Y-169690476D01*
X85404761Y-169928571D02*
X86119047Y-170166666D01*
X86119047Y-169547619D01*
X85452380Y-169261904D02*
X85452380Y-168595238D01*
X86452380Y-169023809D01*
X86452380Y-168214285D02*
X85452380Y-168214285D01*
X86071428Y-168119047D02*
X86452380Y-167833333D01*
X85785714Y-167833333D02*
X86166666Y-168214285D01*
%TO.C,R33*%
X98822380Y-169642857D02*
X98346190Y-169976190D01*
X98822380Y-170214285D02*
X97822380Y-170214285D01*
X97822380Y-169833333D01*
X97870000Y-169738095D01*
X97917619Y-169690476D01*
X98012857Y-169642857D01*
X98155714Y-169642857D01*
X98250952Y-169690476D01*
X98298571Y-169738095D01*
X98346190Y-169833333D01*
X98346190Y-170214285D01*
X97822380Y-169309523D02*
X97822380Y-168690476D01*
X98203333Y-169023809D01*
X98203333Y-168880952D01*
X98250952Y-168785714D01*
X98298571Y-168738095D01*
X98393809Y-168690476D01*
X98631904Y-168690476D01*
X98727142Y-168738095D01*
X98774761Y-168785714D01*
X98822380Y-168880952D01*
X98822380Y-169166666D01*
X98774761Y-169261904D01*
X98727142Y-169309523D01*
X97822380Y-168357142D02*
X97822380Y-167738095D01*
X98203333Y-168071428D01*
X98203333Y-167928571D01*
X98250952Y-167833333D01*
X98298571Y-167785714D01*
X98393809Y-167738095D01*
X98631904Y-167738095D01*
X98727142Y-167785714D01*
X98774761Y-167833333D01*
X98822380Y-167928571D01*
X98822380Y-168214285D01*
X98774761Y-168309523D01*
X98727142Y-168357142D01*
X96452380Y-169119047D02*
X96452380Y-169690476D01*
X96452380Y-169404761D02*
X95452380Y-169404761D01*
X95595238Y-169500000D01*
X95690476Y-169595238D01*
X95738095Y-169690476D01*
X96452380Y-168690476D02*
X95452380Y-168690476D01*
X96071428Y-168595238D02*
X96452380Y-168309523D01*
X95785714Y-168309523D02*
X96166666Y-168690476D01*
D12*
%TO.C,R29*%
X89630000Y-152530000D02*
X89630000Y-159070000D01*
X92370000Y-152530000D02*
X89630000Y-152530000D01*
X89630000Y-159070000D02*
X92370000Y-159070000D01*
X91000000Y-159840000D02*
X91000000Y-159070000D01*
X92370000Y-159070000D02*
X92370000Y-152530000D01*
X91000000Y-151760000D02*
X91000000Y-152530000D01*
%TO.C,ENV_OUT1*%
X93190000Y-183110000D02*
X91690000Y-183110000D01*
X93890000Y-176090000D02*
X91390000Y-176090000D01*
X91690000Y-176390000D02*
X91690000Y-184110000D01*
X93190000Y-177390000D02*
X91690000Y-177390000D01*
X93190000Y-184110000D02*
X93190000Y-183110000D01*
X94000000Y-176390000D02*
X94000000Y-176890000D01*
X91690000Y-184110000D02*
X95710000Y-184110000D01*
X94000000Y-183610000D02*
X94000000Y-184110000D01*
X94000000Y-176890000D02*
X95210000Y-176890000D01*
X95210000Y-183610000D02*
X94000000Y-183610000D01*
X95710000Y-184110000D02*
X95710000Y-176390000D01*
X93190000Y-176390000D02*
X93190000Y-177390000D01*
X95710000Y-176390000D02*
X91690000Y-176390000D01*
X95210000Y-176890000D02*
X95210000Y-183610000D01*
X91390000Y-176090000D02*
X91390000Y-178590000D01*
%TO.C,R2*%
X101000000Y-164960000D02*
X101000000Y-165730000D01*
X101000000Y-173040000D02*
X101000000Y-172270000D01*
X102370000Y-172270000D02*
X102370000Y-165730000D01*
X99630000Y-165730000D02*
X99630000Y-172270000D01*
X102370000Y-165730000D02*
X99630000Y-165730000D01*
X99630000Y-172270000D02*
X102370000Y-172270000D01*
%TO.C,C8*%
X96880000Y-141370000D02*
X96880000Y-140925000D01*
X103120000Y-139075000D02*
X103120000Y-138630000D01*
X96880000Y-139075000D02*
X96880000Y-138630000D01*
X103120000Y-138630000D02*
X96880000Y-138630000D01*
X103120000Y-141370000D02*
X96880000Y-141370000D01*
X103120000Y-141370000D02*
X103120000Y-140925000D01*
%TO.C,R28*%
X110370000Y-159150000D02*
X110370000Y-152610000D01*
X110370000Y-152610000D02*
X107630000Y-152610000D01*
X109000000Y-151840000D02*
X109000000Y-152610000D01*
X107630000Y-152610000D02*
X107630000Y-159150000D01*
X109000000Y-159920000D02*
X109000000Y-159150000D01*
X107630000Y-159150000D02*
X110370000Y-159150000D01*
%TO.C,C9*%
X108120000Y-122380000D02*
X108120000Y-127620000D01*
X91880000Y-127620000D02*
X108120000Y-127620000D01*
X91880000Y-122380000D02*
X108120000Y-122380000D01*
X91880000Y-122380000D02*
X91880000Y-127620000D01*
%TO.C,ENV_INV1*%
X103210000Y-183610000D02*
X102000000Y-183610000D01*
X101190000Y-177390000D02*
X99690000Y-177390000D01*
X101190000Y-183110000D02*
X99690000Y-183110000D01*
X101190000Y-184110000D02*
X101190000Y-183110000D01*
X99390000Y-176090000D02*
X99390000Y-178590000D01*
X103710000Y-184110000D02*
X103710000Y-176390000D01*
X102000000Y-176890000D02*
X103210000Y-176890000D01*
X99690000Y-184110000D02*
X103710000Y-184110000D01*
X102000000Y-183610000D02*
X102000000Y-184110000D01*
X99690000Y-176390000D02*
X99690000Y-184110000D01*
X101190000Y-176390000D02*
X101190000Y-177390000D01*
X103210000Y-176890000D02*
X103210000Y-183610000D01*
X101890000Y-176090000D02*
X99390000Y-176090000D01*
X103710000Y-176390000D02*
X99690000Y-176390000D01*
X102000000Y-176390000D02*
X102000000Y-176890000D01*
%TO.C,CN2*%
X115643000Y-116703000D02*
X115643000Y-115373000D01*
X115643000Y-114103000D02*
X115643000Y-96263000D01*
X118303000Y-96263000D02*
X115643000Y-96263000D01*
X116973000Y-116703000D02*
X115643000Y-116703000D01*
X118303000Y-114103000D02*
X118303000Y-96263000D01*
X118303000Y-114103000D02*
X115643000Y-114103000D01*
%TO.C,GATE_OUT1*%
X83210000Y-176890000D02*
X83210000Y-183610000D01*
X83710000Y-176390000D02*
X79690000Y-176390000D01*
X81190000Y-177390000D02*
X79690000Y-177390000D01*
X81190000Y-176390000D02*
X81190000Y-177390000D01*
X79690000Y-184110000D02*
X83710000Y-184110000D01*
X82000000Y-183610000D02*
X82000000Y-184110000D01*
X83710000Y-184110000D02*
X83710000Y-176390000D01*
X79690000Y-176390000D02*
X79690000Y-184110000D01*
X83210000Y-183610000D02*
X82000000Y-183610000D01*
X81190000Y-184110000D02*
X81190000Y-183110000D01*
X79390000Y-176090000D02*
X79390000Y-178590000D01*
X81190000Y-183110000D02*
X79690000Y-183110000D01*
X82000000Y-176890000D02*
X83210000Y-176890000D01*
X82000000Y-176390000D02*
X82000000Y-176890000D01*
X81890000Y-176090000D02*
X79390000Y-176090000D01*
%TO.C,R3*%
X89630000Y-172270000D02*
X92370000Y-172270000D01*
X89630000Y-165730000D02*
X89630000Y-172270000D01*
X91000000Y-173040000D02*
X91000000Y-172270000D01*
X92370000Y-165730000D02*
X89630000Y-165730000D01*
X91000000Y-164960000D02*
X91000000Y-165730000D01*
X92370000Y-172270000D02*
X92370000Y-165730000D01*
%TO.C,R1*%
X107370000Y-172270000D02*
X107370000Y-165730000D01*
X104630000Y-165730000D02*
X104630000Y-172270000D01*
X104630000Y-172270000D02*
X107370000Y-172270000D01*
X107370000Y-165730000D02*
X104630000Y-165730000D01*
X106000000Y-173040000D02*
X106000000Y-172270000D01*
X106000000Y-164960000D02*
X106000000Y-165730000D01*
%TO.C,CN1*%
X82743000Y-96262000D02*
X80083000Y-96262000D01*
X82743000Y-114102000D02*
X80083000Y-114102000D01*
X80083000Y-116702000D02*
X80083000Y-115372000D01*
X81413000Y-116702000D02*
X80083000Y-116702000D01*
X80083000Y-114102000D02*
X80083000Y-96262000D01*
X82743000Y-114102000D02*
X82743000Y-96262000D01*
%TO.C,SIGNAL_IN1*%
X108890000Y-173190000D02*
X109890000Y-173190000D01*
X116610000Y-174000000D02*
X116110000Y-174000000D01*
X109390000Y-175210000D02*
X109390000Y-174000000D01*
X108890000Y-171690000D02*
X108890000Y-175710000D01*
X109890000Y-173190000D02*
X109890000Y-171690000D01*
X116910000Y-173890000D02*
X116910000Y-171390000D01*
X116610000Y-173190000D02*
X115610000Y-173190000D01*
X108890000Y-175710000D02*
X116610000Y-175710000D01*
X116110000Y-174000000D02*
X116110000Y-175210000D01*
X116610000Y-171690000D02*
X108890000Y-171690000D01*
X115610000Y-173190000D02*
X115610000Y-171690000D01*
X116110000Y-175210000D02*
X109390000Y-175210000D01*
X116910000Y-171390000D02*
X114410000Y-171390000D01*
X116610000Y-175710000D02*
X116610000Y-171690000D01*
X109390000Y-174000000D02*
X108890000Y-174000000D01*
%TO.C,R25*%
X86000000Y-164960000D02*
X86000000Y-165730000D01*
X84630000Y-165730000D02*
X84630000Y-172270000D01*
X87370000Y-165730000D02*
X84630000Y-165730000D01*
X86000000Y-173040000D02*
X86000000Y-172270000D01*
X84630000Y-172270000D02*
X87370000Y-172270000D01*
X87370000Y-172270000D02*
X87370000Y-165730000D01*
%TO.C,R33*%
X94630000Y-172270000D02*
X97370000Y-172270000D01*
X96000000Y-164960000D02*
X96000000Y-165730000D01*
X97370000Y-172270000D02*
X97370000Y-165730000D01*
X96000000Y-173040000D02*
X96000000Y-172270000D01*
X97370000Y-165730000D02*
X94630000Y-165730000D01*
X94630000Y-165730000D02*
X94630000Y-172270000D01*
%TD*%
%LPC*%
D13*
%TO.C,R29*%
X91000000Y-160880000D03*
D14*
X91000000Y-150720000D03*
%TD*%
D15*
%TO.C,ENV_OUT1*%
X94000000Y-179000000D03*
D16*
X94000000Y-181500000D03*
%TD*%
D13*
%TO.C,R2*%
X101000000Y-174080000D03*
D14*
X101000000Y-163920000D03*
%TD*%
D13*
%TO.C,C8*%
X102500000Y-140000000D03*
X97500000Y-140000000D03*
%TD*%
%TO.C,R28*%
X109000000Y-150800000D03*
D14*
X109000000Y-160960000D03*
%TD*%
D17*
%TO.C,C9*%
X95000000Y-125000000D03*
X105000000Y-125000000D03*
%TD*%
D15*
%TO.C,ENV_INV1*%
X102000000Y-179000000D03*
D16*
X102000000Y-181500000D03*
%TD*%
D18*
%TO.C,CN2*%
X116973000Y-115373000D03*
D19*
X116973000Y-112833000D03*
X116973000Y-110293000D03*
X116973000Y-107753000D03*
X116973000Y-105213000D03*
X116973000Y-102673000D03*
X116973000Y-100133000D03*
X116973000Y-97593000D03*
%TD*%
D15*
%TO.C,GATE_OUT1*%
X82000000Y-179000000D03*
D16*
X82000000Y-181500000D03*
%TD*%
D13*
%TO.C,R3*%
X91000000Y-163920000D03*
D14*
X91000000Y-174080000D03*
%TD*%
D13*
%TO.C,R1*%
X106000000Y-163920000D03*
D14*
X106000000Y-174080000D03*
%TD*%
D18*
%TO.C,CN1*%
X81413000Y-115372000D03*
D19*
X81413000Y-112832000D03*
X81413000Y-110292000D03*
X81413000Y-107752000D03*
X81413000Y-105212000D03*
X81413000Y-102672000D03*
X81413000Y-100132000D03*
X81413000Y-97592000D03*
%TD*%
D20*
%TO.C,SIGNAL_IN1*%
X114000000Y-174000000D03*
D21*
X111500000Y-174000000D03*
%TD*%
D13*
%TO.C,R25*%
X86000000Y-174080000D03*
D14*
X86000000Y-163920000D03*
%TD*%
D13*
%TO.C,R33*%
X96000000Y-163920000D03*
D14*
X96000000Y-174080000D03*
%TD*%
D22*
%TO.C,LED3*%
X86230000Y-180000000D03*
D23*
X88770000Y-180000000D03*
%TD*%
D22*
%TO.C,LED2*%
X106230000Y-180000000D03*
D23*
X108770000Y-180000000D03*
%TD*%
D24*
%TO.C,FAST_SLOW_ENV1*%
X95150000Y-132500000D03*
X100000000Y-132500000D03*
X104850000Y-132500000D03*
%TD*%
D25*
%TO.C,GATE_OFFSET1*%
X95200000Y-157500000D03*
X104800000Y-157500000D03*
D22*
X97500000Y-150000000D03*
D23*
X100000000Y-150000000D03*
X102500000Y-150000000D03*
%TD*%
D22*
%TO.C,LED1*%
X116230000Y-180000000D03*
D23*
X118770000Y-180000000D03*
%TD*%
D25*
%TO.C,CLOCK_SPEED1*%
X95200000Y-107500000D03*
X104800000Y-107500000D03*
D22*
X97500000Y-100000000D03*
D23*
X100000000Y-100000000D03*
X102500000Y-100000000D03*
%TD*%
D25*
%TO.C,GAIN1*%
X95200000Y-65000000D03*
X104800000Y-65000000D03*
D22*
X102500000Y-72500000D03*
D23*
X100000000Y-72500000D03*
X97500000Y-72500000D03*
%TD*%
M02*
