M48
; DRILL file {KiCad (6.0.5)} date Thu Sep  8 21:16:31 2022
; FORMAT={-:-/ absolute / metric / decimal}
; #@! TF.CreationDate,2022-09-08T21:16:31+02:00
; #@! TF.GenerationSoftware,Kicad,Pcbnew,(6.0.5)
; #@! TF.FileFunction,Plated,1,2,PTH
FMAT,2
METRIC
; #@! TA.AperFunction,Plated,PTH,ComponentDrill
T1C0.200
; #@! TA.AperFunction,Plated,PTH,ComponentDrill
T2C0.300
; #@! TA.AperFunction,Plated,PTH,ComponentDrill
T3C3.200
; #@! TA.AperFunction,Plated,PTH,ComponentDrill
T4C6.500
; #@! TA.AperFunction,Plated,PTH,ComponentDrill
T5C7.000
; #@! TA.AperFunction,Plated,PTH,ComponentDrill
T6C8.000
; #@! TA.AperFunction,Plated,PTH,ComponentDrill
T7C10.000
%
G90
G05
T1
X76.2Y-43.0
X76.2Y-237.0
X76.727Y-41.727
X76.727Y-44.273
X76.727Y-235.727
X76.727Y-238.273
X78.0Y-41.2
X78.0Y-44.8
X78.0Y-235.2
X78.0Y-238.8
X79.273Y-41.727
X79.273Y-44.273
X79.273Y-235.727
X79.273Y-238.273
X79.8Y-43.0
X79.8Y-237.0
X120.2Y-43.0
X120.2Y-237.0
X120.727Y-41.727
X120.727Y-44.273
X120.727Y-235.727
X120.727Y-238.273
X122.0Y-41.2
X122.0Y-44.8
X122.0Y-235.2
X122.0Y-238.8
X123.273Y-41.727
X123.273Y-44.273
X123.273Y-235.727
X123.273Y-238.273
X123.8Y-43.0
X123.8Y-237.0
T2
X82.0Y-195.0
X82.0Y-220.0
X83.0Y-180.0
X83.611Y-191.111
X83.611Y-198.889
X83.611Y-216.111
X83.611Y-223.889
X84.318Y-176.818
X84.318Y-183.182
X87.5Y-175.5
X87.5Y-184.5
X87.5Y-189.5
X87.5Y-200.5
X87.5Y-214.5
X87.5Y-225.5
X90.682Y-176.818
X90.682Y-183.182
X91.389Y-191.111
X91.389Y-198.889
X91.389Y-216.111
X91.389Y-223.889
X92.0Y-180.0
X93.0Y-195.0
X93.0Y-220.0
X96.0Y-65.0
X96.0Y-107.5
X96.0Y-157.5
X96.25Y-132.5
X97.172Y-62.172
X97.172Y-67.828
X97.172Y-104.672
X97.172Y-110.328
X97.172Y-154.672
X97.172Y-160.328
X97.348Y-129.848
X97.348Y-135.152
X100.0Y-61.0
X100.0Y-69.0
X100.0Y-103.5
X100.0Y-111.5
X100.0Y-128.75
X100.0Y-136.25
X100.0Y-153.5
X100.0Y-161.5
X102.652Y-129.848
X102.652Y-135.152
X102.828Y-62.172
X102.828Y-67.828
X102.828Y-104.672
X102.828Y-110.328
X102.828Y-154.672
X102.828Y-160.328
X103.0Y-180.0
X103.75Y-132.5
X104.0Y-65.0
X104.0Y-107.5
X104.0Y-157.5
X104.318Y-176.818
X104.318Y-183.182
X107.0Y-195.0
X107.0Y-220.0
X107.5Y-175.5
X107.5Y-184.5
X108.611Y-191.111
X108.611Y-198.889
X108.611Y-216.111
X108.611Y-223.889
X110.682Y-176.818
X110.682Y-183.182
X112.0Y-180.0
X112.5Y-189.5
X112.5Y-200.5
X112.5Y-214.5
X112.5Y-225.5
X113.0Y-180.0
X114.318Y-176.818
X114.318Y-183.182
X116.389Y-191.111
X116.389Y-198.889
X116.389Y-216.111
X116.389Y-223.889
X117.5Y-175.5
X117.5Y-184.5
X118.0Y-195.0
X118.0Y-220.0
X120.682Y-176.818
X120.682Y-183.182
X122.0Y-180.0
T3
X78.0Y-43.0
X78.0Y-237.0
X122.0Y-43.0
X122.0Y-237.0
T4
X100.0Y-132.5
T5
X100.0Y-65.0
X100.0Y-107.5
X100.0Y-157.5
T6
X87.5Y-180.0
X107.5Y-180.0
X117.5Y-180.0
T7
X87.5Y-195.0
X87.5Y-220.0
X112.5Y-195.0
X112.5Y-220.0
T0
M30
