%TF.GenerationSoftware,KiCad,Pcbnew,(6.0.5)*%
%TF.CreationDate,2022-09-08T21:16:29+02:00*%
%TF.ProjectId,Bissell-Bouten_Envelope-o-Matic_panel,42697373-656c-46c2-9d42-6f7574656e5f,1.0*%
%TF.SameCoordinates,Original*%
%TF.FileFunction,Legend,Top*%
%TF.FilePolarity,Positive*%
%FSLAX46Y46*%
G04 Gerber Fmt 4.6, Leading zero omitted, Abs format (unit mm)*
G04 Created by KiCad (PCBNEW (6.0.5)) date 2022-09-08 21:16:29*
%MOMM*%
%LPD*%
G01*
G04 APERTURE LIST*
%ADD10C,0.150000*%
%ADD11C,0.400000*%
%ADD12C,4.000000*%
%ADD13C,0.600000*%
%ADD14C,9.000000*%
%ADD15C,10.000000*%
%ADD16C,14.000000*%
%ADD17C,8.500000*%
G04 APERTURE END LIST*
D10*
X81178571Y-42892857D02*
X81392857Y-42964285D01*
X81464285Y-43035714D01*
X81535714Y-43178571D01*
X81535714Y-43392857D01*
X81464285Y-43535714D01*
X81392857Y-43607142D01*
X81250000Y-43678571D01*
X80678571Y-43678571D01*
X80678571Y-42178571D01*
X81178571Y-42178571D01*
X81321428Y-42250000D01*
X81392857Y-42321428D01*
X81464285Y-42464285D01*
X81464285Y-42607142D01*
X81392857Y-42750000D01*
X81321428Y-42821428D01*
X81178571Y-42892857D01*
X80678571Y-42892857D01*
X82178571Y-43678571D02*
X82178571Y-42678571D01*
X82178571Y-42178571D02*
X82107142Y-42250000D01*
X82178571Y-42321428D01*
X82250000Y-42250000D01*
X82178571Y-42178571D01*
X82178571Y-42321428D01*
X82821428Y-43607142D02*
X82964285Y-43678571D01*
X83250000Y-43678571D01*
X83392857Y-43607142D01*
X83464285Y-43464285D01*
X83464285Y-43392857D01*
X83392857Y-43250000D01*
X83250000Y-43178571D01*
X83035714Y-43178571D01*
X82892857Y-43107142D01*
X82821428Y-42964285D01*
X82821428Y-42892857D01*
X82892857Y-42750000D01*
X83035714Y-42678571D01*
X83250000Y-42678571D01*
X83392857Y-42750000D01*
X84035714Y-43607142D02*
X84178571Y-43678571D01*
X84464285Y-43678571D01*
X84607142Y-43607142D01*
X84678571Y-43464285D01*
X84678571Y-43392857D01*
X84607142Y-43250000D01*
X84464285Y-43178571D01*
X84250000Y-43178571D01*
X84107142Y-43107142D01*
X84035714Y-42964285D01*
X84035714Y-42892857D01*
X84107142Y-42750000D01*
X84250000Y-42678571D01*
X84464285Y-42678571D01*
X84607142Y-42750000D01*
X85892857Y-43607142D02*
X85750000Y-43678571D01*
X85464285Y-43678571D01*
X85321428Y-43607142D01*
X85250000Y-43464285D01*
X85250000Y-42892857D01*
X85321428Y-42750000D01*
X85464285Y-42678571D01*
X85750000Y-42678571D01*
X85892857Y-42750000D01*
X85964285Y-42892857D01*
X85964285Y-43035714D01*
X85250000Y-43178571D01*
X86821428Y-43678571D02*
X86678571Y-43607142D01*
X86607142Y-43464285D01*
X86607142Y-42178571D01*
X87607142Y-43678571D02*
X87464285Y-43607142D01*
X87392857Y-43464285D01*
X87392857Y-42178571D01*
X88178571Y-43107142D02*
X89321428Y-43107142D01*
X90535714Y-42892857D02*
X90750000Y-42964285D01*
X90821428Y-43035714D01*
X90892857Y-43178571D01*
X90892857Y-43392857D01*
X90821428Y-43535714D01*
X90750000Y-43607142D01*
X90607142Y-43678571D01*
X90035714Y-43678571D01*
X90035714Y-42178571D01*
X90535714Y-42178571D01*
X90678571Y-42250000D01*
X90750000Y-42321428D01*
X90821428Y-42464285D01*
X90821428Y-42607142D01*
X90750000Y-42750000D01*
X90678571Y-42821428D01*
X90535714Y-42892857D01*
X90035714Y-42892857D01*
X91750000Y-43678571D02*
X91607142Y-43607142D01*
X91535714Y-43535714D01*
X91464285Y-43392857D01*
X91464285Y-42964285D01*
X91535714Y-42821428D01*
X91607142Y-42750000D01*
X91750000Y-42678571D01*
X91964285Y-42678571D01*
X92107142Y-42750000D01*
X92178571Y-42821428D01*
X92250000Y-42964285D01*
X92250000Y-43392857D01*
X92178571Y-43535714D01*
X92107142Y-43607142D01*
X91964285Y-43678571D01*
X91750000Y-43678571D01*
X93535714Y-42678571D02*
X93535714Y-43678571D01*
X92892857Y-42678571D02*
X92892857Y-43464285D01*
X92964285Y-43607142D01*
X93107142Y-43678571D01*
X93321428Y-43678571D01*
X93464285Y-43607142D01*
X93535714Y-43535714D01*
X94035714Y-42678571D02*
X94607142Y-42678571D01*
X94250000Y-42178571D02*
X94250000Y-43464285D01*
X94321428Y-43607142D01*
X94464285Y-43678571D01*
X94607142Y-43678571D01*
X95678571Y-43607142D02*
X95535714Y-43678571D01*
X95250000Y-43678571D01*
X95107142Y-43607142D01*
X95035714Y-43464285D01*
X95035714Y-42892857D01*
X95107142Y-42750000D01*
X95250000Y-42678571D01*
X95535714Y-42678571D01*
X95678571Y-42750000D01*
X95750000Y-42892857D01*
X95750000Y-43035714D01*
X95035714Y-43178571D01*
X96392857Y-42678571D02*
X96392857Y-43678571D01*
X96392857Y-42821428D02*
X96464285Y-42750000D01*
X96607142Y-42678571D01*
X96821428Y-42678571D01*
X96964285Y-42750000D01*
X97035714Y-42892857D01*
X97035714Y-43678571D01*
X98892857Y-42892857D02*
X99392857Y-42892857D01*
X99607142Y-43678571D02*
X98892857Y-43678571D01*
X98892857Y-42178571D01*
X99607142Y-42178571D01*
X100250000Y-42678571D02*
X100250000Y-43678571D01*
X100250000Y-42821428D02*
X100321428Y-42750000D01*
X100464285Y-42678571D01*
X100678571Y-42678571D01*
X100821428Y-42750000D01*
X100892857Y-42892857D01*
X100892857Y-43678571D01*
X101464285Y-42678571D02*
X101821428Y-43678571D01*
X102178571Y-42678571D01*
X103321428Y-43607142D02*
X103178571Y-43678571D01*
X102892857Y-43678571D01*
X102750000Y-43607142D01*
X102678571Y-43464285D01*
X102678571Y-42892857D01*
X102750000Y-42750000D01*
X102892857Y-42678571D01*
X103178571Y-42678571D01*
X103321428Y-42750000D01*
X103392857Y-42892857D01*
X103392857Y-43035714D01*
X102678571Y-43178571D01*
X104250000Y-43678571D02*
X104107142Y-43607142D01*
X104035714Y-43464285D01*
X104035714Y-42178571D01*
X105035714Y-43678571D02*
X104892857Y-43607142D01*
X104821428Y-43535714D01*
X104750000Y-43392857D01*
X104750000Y-42964285D01*
X104821428Y-42821428D01*
X104892857Y-42750000D01*
X105035714Y-42678571D01*
X105250000Y-42678571D01*
X105392857Y-42750000D01*
X105464285Y-42821428D01*
X105535714Y-42964285D01*
X105535714Y-43392857D01*
X105464285Y-43535714D01*
X105392857Y-43607142D01*
X105250000Y-43678571D01*
X105035714Y-43678571D01*
X106178571Y-42678571D02*
X106178571Y-44178571D01*
X106178571Y-42750000D02*
X106321428Y-42678571D01*
X106607142Y-42678571D01*
X106750000Y-42750000D01*
X106821428Y-42821428D01*
X106892857Y-42964285D01*
X106892857Y-43392857D01*
X106821428Y-43535714D01*
X106750000Y-43607142D01*
X106607142Y-43678571D01*
X106321428Y-43678571D01*
X106178571Y-43607142D01*
X108107142Y-43607142D02*
X107964285Y-43678571D01*
X107678571Y-43678571D01*
X107535714Y-43607142D01*
X107464285Y-43464285D01*
X107464285Y-42892857D01*
X107535714Y-42750000D01*
X107678571Y-42678571D01*
X107964285Y-42678571D01*
X108107142Y-42750000D01*
X108178571Y-42892857D01*
X108178571Y-43035714D01*
X107464285Y-43178571D01*
X108821428Y-43107142D02*
X109964285Y-43107142D01*
X110964285Y-42178571D02*
X111250000Y-42178571D01*
X111392857Y-42250000D01*
X111535714Y-42392857D01*
X111607142Y-42678571D01*
X111607142Y-43178571D01*
X111535714Y-43464285D01*
X111392857Y-43607142D01*
X111250000Y-43678571D01*
X110964285Y-43678571D01*
X110821428Y-43607142D01*
X110678571Y-43464285D01*
X110607142Y-43178571D01*
X110607142Y-42678571D01*
X110678571Y-42392857D01*
X110821428Y-42250000D01*
X110964285Y-42178571D01*
X112250000Y-43107142D02*
X113392857Y-43107142D01*
X114107142Y-43678571D02*
X114107142Y-42178571D01*
X114607142Y-43250000D01*
X115107142Y-42178571D01*
X115107142Y-43678571D01*
X116464285Y-43678571D02*
X116464285Y-42892857D01*
X116392857Y-42750000D01*
X116250000Y-42678571D01*
X115964285Y-42678571D01*
X115821428Y-42750000D01*
X116464285Y-43607142D02*
X116321428Y-43678571D01*
X115964285Y-43678571D01*
X115821428Y-43607142D01*
X115750000Y-43464285D01*
X115750000Y-43321428D01*
X115821428Y-43178571D01*
X115964285Y-43107142D01*
X116321428Y-43107142D01*
X116464285Y-43035714D01*
X116964285Y-42678571D02*
X117535714Y-42678571D01*
X117178571Y-42178571D02*
X117178571Y-43464285D01*
X117250000Y-43607142D01*
X117392857Y-43678571D01*
X117535714Y-43678571D01*
X118035714Y-43678571D02*
X118035714Y-42678571D01*
X118035714Y-42178571D02*
X117964285Y-42250000D01*
X118035714Y-42321428D01*
X118107142Y-42250000D01*
X118035714Y-42178571D01*
X118035714Y-42321428D01*
X119392857Y-43607142D02*
X119250000Y-43678571D01*
X118964285Y-43678571D01*
X118821428Y-43607142D01*
X118750000Y-43535714D01*
X118678571Y-43392857D01*
X118678571Y-42964285D01*
X118750000Y-42821428D01*
X118821428Y-42750000D01*
X118964285Y-42678571D01*
X119250000Y-42678571D01*
X119392857Y-42750000D01*
X80880952Y-237952380D02*
X80880952Y-238666666D01*
X80833333Y-238809523D01*
X80738095Y-238904761D01*
X80595238Y-238952380D01*
X80500000Y-238952380D01*
X81833333Y-238952380D02*
X81357142Y-238952380D01*
X81357142Y-237952380D01*
X82738095Y-238857142D02*
X82690476Y-238904761D01*
X82547619Y-238952380D01*
X82452380Y-238952380D01*
X82309523Y-238904761D01*
X82214285Y-238809523D01*
X82166666Y-238714285D01*
X82119047Y-238523809D01*
X82119047Y-238380952D01*
X82166666Y-238190476D01*
X82214285Y-238095238D01*
X82309523Y-238000000D01*
X82452380Y-237952380D01*
X82547619Y-237952380D01*
X82690476Y-238000000D01*
X82738095Y-238047619D01*
X83452380Y-237952380D02*
X83452380Y-238666666D01*
X83404761Y-238809523D01*
X83309523Y-238904761D01*
X83166666Y-238952380D01*
X83071428Y-238952380D01*
X84404761Y-238952380D02*
X83928571Y-238952380D01*
X83928571Y-237952380D01*
X85309523Y-238857142D02*
X85261904Y-238904761D01*
X85119047Y-238952380D01*
X85023809Y-238952380D01*
X84880952Y-238904761D01*
X84785714Y-238809523D01*
X84738095Y-238714285D01*
X84690476Y-238523809D01*
X84690476Y-238380952D01*
X84738095Y-238190476D01*
X84785714Y-238095238D01*
X84880952Y-238000000D01*
X85023809Y-237952380D01*
X85119047Y-237952380D01*
X85261904Y-238000000D01*
X85309523Y-238047619D01*
X86023809Y-237952380D02*
X86023809Y-238666666D01*
X85976190Y-238809523D01*
X85880952Y-238904761D01*
X85738095Y-238952380D01*
X85642857Y-238952380D01*
X86976190Y-238952380D02*
X86500000Y-238952380D01*
X86500000Y-237952380D01*
X87880952Y-238857142D02*
X87833333Y-238904761D01*
X87690476Y-238952380D01*
X87595238Y-238952380D01*
X87452380Y-238904761D01*
X87357142Y-238809523D01*
X87309523Y-238714285D01*
X87261904Y-238523809D01*
X87261904Y-238380952D01*
X87309523Y-238190476D01*
X87357142Y-238095238D01*
X87452380Y-238000000D01*
X87595238Y-237952380D01*
X87690476Y-237952380D01*
X87833333Y-238000000D01*
X87880952Y-238047619D01*
X88595238Y-237952380D02*
X88595238Y-238666666D01*
X88547619Y-238809523D01*
X88452380Y-238904761D01*
X88309523Y-238952380D01*
X88214285Y-238952380D01*
X89547619Y-238952380D02*
X89071428Y-238952380D01*
X89071428Y-237952380D01*
X90452380Y-238857142D02*
X90404761Y-238904761D01*
X90261904Y-238952380D01*
X90166666Y-238952380D01*
X90023809Y-238904761D01*
X89928571Y-238809523D01*
X89880952Y-238714285D01*
X89833333Y-238523809D01*
X89833333Y-238380952D01*
X89880952Y-238190476D01*
X89928571Y-238095238D01*
X90023809Y-238000000D01*
X90166666Y-237952380D01*
X90261904Y-237952380D01*
X90404761Y-238000000D01*
X90452380Y-238047619D01*
X109142857Y-238047619D02*
X109190476Y-238000000D01*
X109285714Y-237952380D01*
X109523809Y-237952380D01*
X109619047Y-238000000D01*
X109666666Y-238047619D01*
X109714285Y-238142857D01*
X109714285Y-238238095D01*
X109666666Y-238380952D01*
X109095238Y-238952380D01*
X109714285Y-238952380D01*
X110285714Y-238380952D02*
X110190476Y-238333333D01*
X110142857Y-238285714D01*
X110095238Y-238190476D01*
X110095238Y-238142857D01*
X110142857Y-238047619D01*
X110190476Y-238000000D01*
X110285714Y-237952380D01*
X110476190Y-237952380D01*
X110571428Y-238000000D01*
X110619047Y-238047619D01*
X110666666Y-238142857D01*
X110666666Y-238190476D01*
X110619047Y-238285714D01*
X110571428Y-238333333D01*
X110476190Y-238380952D01*
X110285714Y-238380952D01*
X110190476Y-238428571D01*
X110142857Y-238476190D01*
X110095238Y-238571428D01*
X110095238Y-238761904D01*
X110142857Y-238857142D01*
X110190476Y-238904761D01*
X110285714Y-238952380D01*
X110476190Y-238952380D01*
X110571428Y-238904761D01*
X110619047Y-238857142D01*
X110666666Y-238761904D01*
X110666666Y-238571428D01*
X110619047Y-238476190D01*
X110571428Y-238428571D01*
X110476190Y-238380952D01*
X111095238Y-238571428D02*
X111857142Y-238571428D01*
X112523809Y-237952380D02*
X112619047Y-237952380D01*
X112714285Y-238000000D01*
X112761904Y-238047619D01*
X112809523Y-238142857D01*
X112857142Y-238333333D01*
X112857142Y-238571428D01*
X112809523Y-238761904D01*
X112761904Y-238857142D01*
X112714285Y-238904761D01*
X112619047Y-238952380D01*
X112523809Y-238952380D01*
X112428571Y-238904761D01*
X112380952Y-238857142D01*
X112333333Y-238761904D01*
X112285714Y-238571428D01*
X112285714Y-238333333D01*
X112333333Y-238142857D01*
X112380952Y-238047619D01*
X112428571Y-238000000D01*
X112523809Y-237952380D01*
X113428571Y-238380952D02*
X113333333Y-238333333D01*
X113285714Y-238285714D01*
X113238095Y-238190476D01*
X113238095Y-238142857D01*
X113285714Y-238047619D01*
X113333333Y-238000000D01*
X113428571Y-237952380D01*
X113619047Y-237952380D01*
X113714285Y-238000000D01*
X113761904Y-238047619D01*
X113809523Y-238142857D01*
X113809523Y-238190476D01*
X113761904Y-238285714D01*
X113714285Y-238333333D01*
X113619047Y-238380952D01*
X113428571Y-238380952D01*
X113333333Y-238428571D01*
X113285714Y-238476190D01*
X113238095Y-238571428D01*
X113238095Y-238761904D01*
X113285714Y-238857142D01*
X113333333Y-238904761D01*
X113428571Y-238952380D01*
X113619047Y-238952380D01*
X113714285Y-238904761D01*
X113761904Y-238857142D01*
X113809523Y-238761904D01*
X113809523Y-238571428D01*
X113761904Y-238476190D01*
X113714285Y-238428571D01*
X113619047Y-238380952D01*
X114238095Y-238571428D02*
X115000000Y-238571428D01*
X115428571Y-238047619D02*
X115476190Y-238000000D01*
X115571428Y-237952380D01*
X115809523Y-237952380D01*
X115904761Y-238000000D01*
X115952380Y-238047619D01*
X116000000Y-238142857D01*
X116000000Y-238238095D01*
X115952380Y-238380952D01*
X115380952Y-238952380D01*
X116000000Y-238952380D01*
X116619047Y-237952380D02*
X116714285Y-237952380D01*
X116809523Y-238000000D01*
X116857142Y-238047619D01*
X116904761Y-238142857D01*
X116952380Y-238333333D01*
X116952380Y-238571428D01*
X116904761Y-238761904D01*
X116857142Y-238857142D01*
X116809523Y-238904761D01*
X116714285Y-238952380D01*
X116619047Y-238952380D01*
X116523809Y-238904761D01*
X116476190Y-238857142D01*
X116428571Y-238761904D01*
X116380952Y-238571428D01*
X116380952Y-238333333D01*
X116428571Y-238142857D01*
X116476190Y-238047619D01*
X116523809Y-238000000D01*
X116619047Y-237952380D01*
X117333333Y-238047619D02*
X117380952Y-238000000D01*
X117476190Y-237952380D01*
X117714285Y-237952380D01*
X117809523Y-238000000D01*
X117857142Y-238047619D01*
X117904761Y-238142857D01*
X117904761Y-238238095D01*
X117857142Y-238380952D01*
X117285714Y-238952380D01*
X117904761Y-238952380D01*
X118285714Y-238047619D02*
X118333333Y-238000000D01*
X118428571Y-237952380D01*
X118666666Y-237952380D01*
X118761904Y-238000000D01*
X118809523Y-238047619D01*
X118857142Y-238142857D01*
X118857142Y-238238095D01*
X118809523Y-238380952D01*
X118238095Y-238952380D01*
X118857142Y-238952380D01*
%LPC*%
G36*
X107500000Y-175000000D02*
G01*
X117500000Y-175000000D01*
X117500000Y-185000000D01*
X107500000Y-185000000D01*
X107500000Y-175000000D01*
G37*
D11*
%TO.C,H4*%
X76727208Y-44272792D03*
X79800000Y-43000000D03*
X79272792Y-44272792D03*
D12*
X78000000Y-43000000D03*
D11*
X78000000Y-44800000D03*
X76727208Y-41727208D03*
X76200000Y-43000000D03*
X78000000Y-41200000D03*
X79272792Y-41727208D03*
%TD*%
%TO.C,H1*%
X76200000Y-237000000D03*
X79800000Y-237000000D03*
X76727208Y-238272792D03*
X79272792Y-238272792D03*
X78000000Y-235200000D03*
X79272792Y-235727208D03*
D12*
X78000000Y-237000000D03*
D11*
X76727208Y-235727208D03*
X78000000Y-238800000D03*
%TD*%
D13*
%TO.C,H14*%
X96000000Y-157500000D03*
X100000000Y-161500000D03*
X97171573Y-154671573D03*
X100000000Y-153500000D03*
D14*
X100000000Y-157500000D03*
D13*
X104000000Y-157500000D03*
X102828427Y-160328427D03*
X102828427Y-154671573D03*
X97171573Y-160328427D03*
%TD*%
%TO.C,H5*%
X110681981Y-176818019D03*
X103000000Y-180000000D03*
D15*
X107500000Y-180000000D03*
D13*
X110681981Y-183181981D03*
X104318019Y-176818019D03*
X107500000Y-175500000D03*
X104318019Y-183181981D03*
X112000000Y-180000000D03*
X107500000Y-184500000D03*
%TD*%
%TO.C,H13*%
X96000000Y-65000000D03*
X102828427Y-67828427D03*
D14*
X100000000Y-65000000D03*
D13*
X97171573Y-62171573D03*
X102828427Y-62171573D03*
X100000000Y-69000000D03*
X104000000Y-65000000D03*
X100000000Y-61000000D03*
X97171573Y-67828427D03*
%TD*%
D16*
%TO.C,H10*%
X87500000Y-195000000D03*
D13*
X91389087Y-191110913D03*
X93000000Y-195000000D03*
X82000000Y-195000000D03*
X83610913Y-198889087D03*
X91389087Y-198889087D03*
X83610913Y-191110913D03*
X87500000Y-189500000D03*
X87500000Y-200500000D03*
%TD*%
%TO.C,H11*%
X108610913Y-198889087D03*
X112500000Y-189500000D03*
X107000000Y-195000000D03*
X116389087Y-198889087D03*
X108610913Y-191110913D03*
D16*
X112500000Y-195000000D03*
D13*
X116389087Y-191110913D03*
X118000000Y-195000000D03*
X112500000Y-200500000D03*
%TD*%
D12*
%TO.C,H2*%
X122000000Y-237000000D03*
D11*
X122000000Y-238800000D03*
X122000000Y-235200000D03*
X123800000Y-237000000D03*
X123272792Y-235727208D03*
X123272792Y-238272792D03*
X120200000Y-237000000D03*
X120727208Y-238272792D03*
X120727208Y-235727208D03*
%TD*%
D15*
%TO.C,H6*%
X117500000Y-180000000D03*
D13*
X113000000Y-180000000D03*
X122000000Y-180000000D03*
X117500000Y-175500000D03*
X114318019Y-183181981D03*
X120681981Y-176818019D03*
X117500000Y-184500000D03*
X120681981Y-183181981D03*
X114318019Y-176818019D03*
%TD*%
%TO.C,H9*%
X93000000Y-220000000D03*
X83610913Y-216110913D03*
X87500000Y-225500000D03*
X82000000Y-220000000D03*
D16*
X87500000Y-220000000D03*
D13*
X91389087Y-216110913D03*
X87500000Y-214500000D03*
X91389087Y-223889087D03*
X83610913Y-223889087D03*
%TD*%
%TO.C,H15*%
X104000000Y-107500000D03*
X100000000Y-111500000D03*
X102828427Y-104671573D03*
X102828427Y-110328427D03*
X97171573Y-110328427D03*
X100000000Y-103500000D03*
D14*
X100000000Y-107500000D03*
D13*
X97171573Y-104671573D03*
X96000000Y-107500000D03*
%TD*%
%TO.C,H8*%
X108610913Y-223889087D03*
X112500000Y-214500000D03*
X116389087Y-223889087D03*
X108610913Y-216110913D03*
X116389087Y-216110913D03*
X118000000Y-220000000D03*
X112500000Y-225500000D03*
X107000000Y-220000000D03*
D16*
X112500000Y-220000000D03*
%TD*%
D13*
%TO.C,H7*%
X92000000Y-180000000D03*
X84318019Y-176818019D03*
X90681981Y-183181981D03*
X84318019Y-183181981D03*
X87500000Y-175500000D03*
D15*
X87500000Y-180000000D03*
D13*
X90681981Y-176818019D03*
X83000000Y-180000000D03*
X87500000Y-184500000D03*
%TD*%
D11*
%TO.C,H3*%
X120727208Y-41727208D03*
X120727208Y-44272792D03*
X123272792Y-44272792D03*
X122000000Y-44800000D03*
X123272792Y-41727208D03*
X120200000Y-43000000D03*
X123800000Y-43000000D03*
X122000000Y-41200000D03*
D12*
X122000000Y-43000000D03*
%TD*%
D13*
%TO.C,H12*%
X100000000Y-136250000D03*
X97348350Y-129848350D03*
X102651650Y-135151650D03*
D17*
X100000000Y-132500000D03*
D13*
X96250000Y-132500000D03*
X97348350Y-135151650D03*
X103750000Y-132500000D03*
X100000000Y-128750000D03*
X102651650Y-129848350D03*
%TD*%
M02*
