%FSLAX45Y45*%
G04 Gerber Fmt 4.5, Leading zero omitted, Abs format (unit mm)*
G04 Created by KiCad (PCBNEW (6.0.5)) date 2022-09-08 21:16:33*
%MOMM*%
%LPD*%
G01*
G04 APERTURE LIST*
%TA.AperFunction,Profile*%
%ADD10C,0.050000*%
%TD*%
%ADD11C,0.200000*%
G04 APERTURE END LIST*
D10*
X7500000Y-4000000D02*
X12500000Y-4000000D01*
X12500000Y-4000000D02*
X12500000Y-24000000D01*
X7500000Y-24000000D02*
X7500000Y-4000000D01*
X12500000Y-24000000D02*
X7500000Y-24000000D01*
D11*
X7755119Y-24312976D02*
X7755119Y-24112976D01*
X7802738Y-24112976D01*
X7831309Y-24122500D01*
X7850357Y-24141548D01*
X7859881Y-24160595D01*
X7869405Y-24198690D01*
X7869405Y-24227262D01*
X7859881Y-24265357D01*
X7850357Y-24284405D01*
X7831309Y-24303452D01*
X7802738Y-24312976D01*
X7755119Y-24312976D01*
X7955119Y-24312976D02*
X7955119Y-24179643D01*
X7955119Y-24217738D02*
X7964643Y-24198690D01*
X7974167Y-24189167D01*
X7993214Y-24179643D01*
X8012262Y-24179643D01*
X8078928Y-24312976D02*
X8078928Y-24179643D01*
X8078928Y-24112976D02*
X8069405Y-24122500D01*
X8078928Y-24132024D01*
X8088452Y-24122500D01*
X8078928Y-24112976D01*
X8078928Y-24132024D01*
X8202738Y-24312976D02*
X8183690Y-24303452D01*
X8174167Y-24284405D01*
X8174167Y-24112976D01*
X8307500Y-24312976D02*
X8288452Y-24303452D01*
X8278928Y-24284405D01*
X8278928Y-24112976D01*
X8536071Y-24312976D02*
X8536071Y-24112976D01*
X8602738Y-24255833D01*
X8669405Y-24112976D01*
X8669405Y-24312976D01*
X8850357Y-24312976D02*
X8850357Y-24208214D01*
X8840833Y-24189167D01*
X8821786Y-24179643D01*
X8783690Y-24179643D01*
X8764643Y-24189167D01*
X8850357Y-24303452D02*
X8831310Y-24312976D01*
X8783690Y-24312976D01*
X8764643Y-24303452D01*
X8755119Y-24284405D01*
X8755119Y-24265357D01*
X8764643Y-24246309D01*
X8783690Y-24236786D01*
X8831310Y-24236786D01*
X8850357Y-24227262D01*
X8945595Y-24179643D02*
X8945595Y-24379643D01*
X8945595Y-24189167D02*
X8964643Y-24179643D01*
X9002738Y-24179643D01*
X9021786Y-24189167D01*
X9031310Y-24198690D01*
X9040833Y-24217738D01*
X9040833Y-24274881D01*
X9031310Y-24293928D01*
X9021786Y-24303452D01*
X9002738Y-24312976D01*
X8964643Y-24312976D01*
X8945595Y-24303452D01*
X9126548Y-24293928D02*
X9136071Y-24303452D01*
X9126548Y-24312976D01*
X9117024Y-24303452D01*
X9126548Y-24293928D01*
X9126548Y-24312976D01*
X9126548Y-24189167D02*
X9136071Y-24198690D01*
X9126548Y-24208214D01*
X9117024Y-24198690D01*
X9126548Y-24189167D01*
X9126548Y-24208214D01*
M02*
